<?xml version="1.0" encoding="UTF-8" standalone="no"?>
<svg
   viewBox="0 0 32 32"
   version="1.1"
   id="svg58"
   sodipodi:docname="2124171_app_essential_keyboard_ui_icon.svg"
   inkscape:version="1.2 (dc2aeda, 2022-05-15)"
   xmlns:inkscape="http://www.inkscape.org/namespaces/inkscape"
   xmlns:sodipodi="http://sodipodi.sourceforge.net/DTD/sodipodi-0.dtd"
   xmlns="http://www.w3.org/2000/svg"
   xmlns:svg="http://www.w3.org/2000/svg">
  <defs
     id="defs21">
    <style
       id="style19">.cls-1{fill:none;stroke:#000;stroke-linejoin:round;stroke-width:2px;}</style>
  </defs>
  <title
     id="title23" />
  <path
     id="rect25"
     style="color:#000000;fill:#000000;stroke-linejoin:round;-inkscape-stroke:none"
     d="M 1 6 A 1.0001 1.0001 0 0 0 0 7 L 0 25 A 1.0001 1.0001 0 0 0 1 26 L 31 26 A 1.0001 1.0001 0 0 0 32 25 L 32 7 A 1.0001 1.0001 0 0 0 31 6 L 1 6 z M 2 8 L 30 8 L 30 24 L 2 24 L 2 8 z M 5 10 L 5 12 L 7 12 L 7 10 L 5 10 z M 9 10 L 9 12 L 11 12 L 11 10 L 9 10 z M 13 10 L 13 12 L 15 12 L 15 10 L 13 10 z M 17 10 L 17 12 L 19 12 L 19 10 L 17 10 z M 21 10 L 21 12 L 23 12 L 23 10 L 21 10 z M 25 10 L 25 12 L 27 12 L 27 10 L 25 10 z M 5 15 L 5 17 L 7 17 L 7 15 L 5 15 z M 9 15 L 9 17 L 11 17 L 11 15 L 9 15 z M 13 15 L 13 17 L 15 17 L 15 15 L 13 15 z M 17 15 L 17 17 L 19 17 L 19 15 L 17 15 z M 21 15 L 21 17 L 23 17 L 23 15 L 21 15 z M 25 15 L 25 17 L 27 17 L 27 15 L 25 15 z M 5 20 L 5 22 L 7 22 L 7 20 L 5 20 z M 9 20 L 9 22 L 23 22 L 23 20 L 9 20 z M 25 20 L 25 22 L 27 22 L 27 20 L 25 20 z " />
</svg>
