<svg xmlns="http://www.w3.org/2000/svg" preserveAspectRatio="xMidYMid" width="33" height="32" viewBox="0 0 33 32"><defs><style>.cls-2 { fill: #d9d9d9; }</style></defs><path d="M16.492 0c-9.104 0-16.487 7.313-16.487 16.336 0 7.217 4.724 13.34 11.276 15.5.825.15 1.125-.354 1.125-.787l-.022-2.779c-4.586.988-5.554-2.189-5.554-2.189-.75-1.887-1.831-2.39-1.831-2.39-1.497-1.013.114-.993.114-.993 1.654.116 2.525 1.684 2.525 1.684 1.471 2.496 3.859 1.775 4.799 1.357.149-1.056.575-1.776 1.046-2.184-3.661-.412-7.51-1.814-7.51-8.074 0-1.783.643-3.241 1.697-4.383-.169-.413-.735-2.074.162-4.323 0 0 1.384-.44 4.534 1.674 1.315-.362 2.726-.543 4.128-.55 1.4.007 2.81.188 4.127.55 3.148-2.114 4.53-1.674 4.53-1.674.9 2.249.334 3.91.164 4.323 1.057 1.142 1.695 2.6 1.695 4.383 0 6.276-3.855 7.657-7.528 8.061.592.505 1.119 1.502 1.119 3.025 0 2.184-.02 3.946-.02 4.482 0 .437.297.945 1.134.785 6.546-2.164 11.266-8.283 11.266-15.498 0-9.023-7.383-16.336-16.489-16.336z" id="path-1" class="cls-2" fill-rule="evenodd"/></svg>