<svg xmlns="http://www.w3.org/2000/svg" preserveAspectRatio="xMidYMid" width="64" height="64" viewBox="0 0 64 64"><path d="M56 64h-48c-4.418 0-8-3.582-8-8v-48c0-4.418 3.582-8 8-8h48c4.418 0 8 3.582 8 8v48c0 4.418-3.582 8-8 8zm-24-44.4c-4.989 0-9.278 2.953-11.246 7.2h-.011l-.055.137c-.117.262-.221.532-.321.803l-.143.389c-.091.278-.166.563-.238.849l-.103.401c-.065.302-.11.61-.153.92l-.057.374c-.046.436-.073.878-.073 1.327 0 6.848 5.552 12.4 12.4 12.4 6.848 0 12.4-5.552 12.4-12.4 0-.449-.027-.891-.073-1.327l-.057-.374c-.043-.31-.088-.618-.153-.92l-.103-.401c-.072-.286-.147-.571-.238-.849l-.143-.389c-.099-.271-.204-.541-.321-.803l-.055-.137h-.011c-1.968-4.247-6.257-7.2-11.246-7.2zm24.8-9.2c0-1.767-1.433-3.2-3.2-3.2h-6.4c-1.767 0-3.2 1.433-3.2 3.2v6.4c0 1.767 1.433 3.2 3.2 3.2h6.4c1.767 0 3.2-1.433 3.2-3.2v-6.4zm0 16.4h-5.899c.455 1.656.699 3.399.699 5.2 0 10.825-8.775 19.6-19.6 19.6-10.825 0-19.6-8.775-19.6-19.6 0-1.801.244-3.544.699-5.2h-5.899v26.8c0 1.767 1.433 3.2 3.2 3.2h43.2c1.767 0 3.2-1.433 3.2-3.2v-26.8z" class="cls-2" fill-rule="evenodd"/></svg>