<svg xmlns="http://www.w3.org/2000/svg" preserveAspectRatio="xMidYMid" width="64" height="61" viewBox="0 0 64 61"><path d="M49.749 60.999v-22.193c0-4.549-1.316-9.106-6.672-9.106-5.357 0-7.596 4.557-7.596 9.217v22.082h-14.292v-40.636h14.292v5.471c3.76-4.779 7.028-6.752 12.952-6.752 5.929 0 15.567 2.768 15.567 18.816v23.101h-14.251zm-41.767-46.66c-4.41 0-7.982-3.207-7.982-7.166 0-3.962 3.572-7.173 7.982-7.173 4.406 0 7.978 3.211 7.978 7.173 0 3.959-3.572 7.166-7.978 7.166zm7.13 46.66h-14.314v-40.636h14.314v40.636z" class="cls-2" fill-rule="evenodd"/></svg>