<svg xmlns="http://www.w3.org/2000/svg" preserveAspectRatio="xMidYMid" width="64" height="53" viewBox="0 0 64 53"><path d="M43.531.009c5.086-.09 7.793 1.774 10.379 4.146 2.195-.19 5.047-1.424 6.727-2.282l1.633-.9c-.959 2.61-2.26 4.652-4.26 6.203-.444.344-.885.809-1.441 1.028v.032c2.849-.029 5.199-1.323 7.431-2.024v.032c-1.172 1.875-2.759 3.777-4.452 5.142l-2.05 1.639c.037 3.036-.045 5.932-.609 8.484-3.279 14.831-11.968 24.899-25.722 29.212-4.939 1.549-12.92 2.185-18.578.771-2.807-.701-5.341-1.492-7.72-2.538-1.321-.582-2.545-1.211-3.716-1.929l-1.153-.707c1.276.039 2.769.393 4.196.161 1.291-.21 2.557-.155 3.748-.418 2.97-.655 5.607-1.523 7.88-2.86 1.101-.648 2.773-1.41 3.555-2.346-1.475.027-2.812-.318-3.907-.707-4.248-1.509-6.72-4.283-8.329-8.452 1.287.141 4.995.479 5.862-.257-1.62-.09-3.179-1.034-4.292-1.735-3.417-2.152-6.203-5.76-6.182-11.312l1.345.642c.858.364 1.731.559 2.755.771.432.09 1.297.346 1.793.161h-.064c-.661-.774-1.738-1.29-2.402-2.121-2.192-2.742-4.247-6.961-2.947-11.987.33-1.275.852-2.4 1.409-3.439l.064.033c.256.537.825.932 1.186 1.381 1.119 1.396 2.5 2.653 3.908 3.76 4.794 3.774 9.112 6.093 16.048 7.81 1.759.435 3.792.768 5.894.771-.591-1.73-.401-4.528.064-6.203 1.168-4.209 3.707-7.243 7.431-8.869.891-.389 1.878-.672 2.915-.9l1.601-.193z" class="cls-2" fill-rule="evenodd"/></svg>