<svg xmlns="http://www.w3.org/2000/svg" preserveAspectRatio="xMidYMid" width="88" height="100" viewBox="0 0 88 100"><defs><style>.cls-2 { fill: #d9d9d9; }</style></defs><path d="M.008 63.3c0 9.8 3.368 18.367 10.104 25.7 6.736 7.333 15.405 11 26.009 11 10.538 0 19.174-3.667 25.91-11 6.736-7.2 10.104-15.767 10.104-25.7 0-5.2-.9-10.067-2.701-14.6-2.668 1.667-5.502 2.8-8.503 3.4 1.467 3.4 2.201 7.2 2.201 11.4 0 5.067-1.201 9.8-3.602 14.2-2.467 4.4-5.769 7.767-9.903 10.1-4.135 2.4-8.637 3.6-13.506 3.6-5.001 0-9.536-1.2-13.605-3.6-4.201-2.467-7.469-5.833-9.803-10.1-2.468-4.333-3.702-9.067-3.702-14.2 0-7.8 2.668-14.533 8.003-20.2 5.336-5.533 11.705-8.3 19.107-8.3 3.402 0 6.67.633 9.804 1.9.267-2.6 1.167-5.467 2.701-8.6-3.801-1.4-7.969-2.1-12.505-2.1-10.67 0-19.54 3.933-26.61 11.8-6.335 7.133-9.503 15.567-9.503 25.3zm28.01 25.3l5.603.4c4.935-3.133 9.086-6.767 12.454-10.9 3.368-4.133 5.786-8.267 7.253-12.4 1.467-4.133 2.501-8.333 3.101-12.6.4-2.733.6-5.4.6-8 0-1.4-.066-2.733-.2-4-.333-3.667-.75-6.95-1.25-9.85-.5-2.9-1.017-5.183-1.551-6.85l-.9-2.5c-1.467-4.533-2.918-8.5-4.352-11.9-1.434-3.4-2.484-5.633-3.151-6.7l-1.1-1.7c2.601 1.333 4.701 2.933 6.302 4.8 1.534 1.933 2.468 3.7 2.801 5.3.267 1.333.4 2.633.4 3.9v.7c-.066 1.467-.267 2.633-.6 3.5l-.5 1.3c.267 3.867.433 7.6.5 11.2 0 3.467-.167 6.867-.5 10.2-.6 6.667-1.617 12.233-3.051 16.7-1.434 4.467-3.085 8.517-4.952 12.15-1.868 3.633-3.785 6.483-5.752 8.55-1.968 2.067-3.785 3.783-5.452 5.15-1.668 1.367-3.035 2.317-4.102 2.85l-1.601.7zm27.511-63.7c.267-2.667 1.034-4.8 2.301-6.4l1.8-2.5c.801-.933 2.101-1.817 3.902-2.65 1.801-.833 3.401-1.45 4.802-1.85l2.1-.6c2.401-.533 4.619-1.7 6.653-3.5s3.485-3.5 4.352-5.1l1.3-2.3c2.734 3.8 4.368 8.1 4.902 12.9.267 2.133.367 4.033.3 5.7 0 2.267-.2 4.233-.6 5.9l-1.101 4.5c-.8 2.2-1.917 4.2-3.351 6-1.434 1.8-2.651 3.033-3.651 3.7l-1.501 1.1c-2.267 1.333-4.501 2-6.702 2l-10.904-5.3c3.868-2.133 7.236-4.3 10.103-6.5 2.868-2.2 4.986-4.117 6.353-5.75s2.467-3.117 3.301-4.45c.834-1.333 1.317-2.367 1.451-3.1l.2-1c-1.201 2.667-2.818 5.1-4.852 7.3-2.034 2.2-4.102 3.933-6.203 5.2-2.1 1.267-4.118 2.35-6.052 3.25-1.934.9-3.501 1.517-4.702 1.85l-1.8.5c-1.668-2.933-2.501-5.567-2.501-7.9 0-.333.033-.667.1-1z" id="path-1" class="cls-2" fill-rule="evenodd"/></svg>