<svg height="16" viewBox="0 0 16 16" width="16" xmlns="http://www.w3.org/2000/svg"><title/><path d="M1 3c-.552 0-1 .456-1 .995v8.01c0 .55.445.994 1 .994h14c.552 0 1-.457 1-.996v-8.01c0-.55-.445-.994-1-.994H1zm13 3v2h1V6h-1zm-2-1v1h1V5h-1zm0 2v1h1V7h-1zm-1 2v1h1V9h-1zM9 9v1h1V9H9zm-6 2v1h1v-1H3zm-2 0v1h1v-1H1zm13 0v1h1v-1h-1zm-2 0v1h1v-1h-1zm-2-6v1h1V5h-1zM8 5v1h1V5H8zM6 5v1h1V5H6zM4 5v1h1V5H4zm6 2v1h1V7h-1zM8 7v1h1V7H8zM6 7v1h1V7H6zM4 7v1h1V7H4zm3 2v1h1V9H7zM5 9v1h1V9H5zM3 9v1h1V9H3zM1 9v1h1V9H1zm4 2v1h6v-1H5zm8-2v1h2V9h-2zM1 7v1h2V7H1zm0-2v1h2V5H1zm0 0"/></svg>