<svg xmlns="http://www.w3.org/2000/svg" width="416" height="448" viewBox="0 0 416 448"><path d="M4 112q0-30 21.25-50.75L62 24.75Q82.75 4 112.75 4q30.25 0 51 21.25L215.25 77Q236 97.75 236 127.75q0 30.75-22 52.25l22 22q21.5-22 52-22 30 0 51 21l52 52q21 21 21 51t-21.25 50.75L354 391.25Q333.25 412 303.25 412q-30.25 0-51-21.25L200.75 339Q180 318.25 180 288.25q0-30.75 22-52.25l-22-22q-21.5 22-52 22-30 0-51-21l-52-52Q4 142 4 112zm48 0q0 10 7 17l52 52q6.75 6.75 17 6.75 10.5 0 18-7.75-.75-.75-4.75-4.625T135.875 170t-3.75-4.75-3.25-6.375T128 152q0-10 7-17t17-7q3.75 0 6.875.875t6.375 3.25 4.75 3.75 5.375 5.375T180 146q8.25-7.75 8.25-18.25 0-10-7-17L129.75 59q-7-7-17-7-9.75 0-17 6.75L59 95.25q-7 7-7 16.75zm175.75 176.25q0 10 7 17l51.5 51.75q6.75 6.75 17 6.75 10 0 17-6.5l36.75-36.5q7-7 7-16.75 0-10-7-17l-52-52q-7-7-17-7-10.5 0-18 8 .75.75 4.75 4.625t5.375 5.375 3.75 4.75 3.25 6.375T288 264q0 10-7 17t-17 7q-3.75 0-6.875-.875t-6.375-3.25-4.75-3.75-5.375-5.375T236 270q-8.25 7.75-8.25 18.25z"/></svg>