<svg xmlns="http://www.w3.org/2000/svg" preserveAspectRatio="xMidYMid" width="64" height="61" viewBox="0 0 64 61"><path d="M49.75 61V38.805c0-4.55-1.317-9.106-6.673-9.106-5.357 0-7.596 4.557-7.596 9.217V61H21.19V20.362h14.29v5.47c3.76-4.778 7.03-6.75 12.953-6.75C54.363 19.082 64 21.85 64 37.897v23.1H49.75zM7.98 14.34C3.572 14.34 0 11.13 0 7.172 0 3.21 3.572 0 7.982 0c4.406 0 7.978 3.21 7.978 7.173 0 3.96-3.572 7.166-7.978 7.166zM15.112 61H.798V20.362h14.314V61z" class="cls-2" fill-rule="evenodd"/></svg>