<svg xmlns="http://www.w3.org/2000/svg" preserveAspectRatio="xMidYMid" width="88" height="100" viewBox="0 0 88 100"><path d="M.008 63.3c0 9.8 3.368 18.367 10.104 25.7 6.736 7.333 15.405 11 26.01 11 10.537 0 19.173-3.667 25.91-11 6.735-7.2 10.103-15.767 10.103-25.7 0-5.2-.9-10.067-2.7-14.6-2.67 1.667-5.503 2.8-8.504 3.4 1.468 3.4 2.202 7.2 2.202 11.4 0 5.067-1.2 9.8-3.602 14.2-2.467 4.4-5.77 7.767-9.903 10.1-4.135 2.4-8.637 3.6-13.506 3.6-5 0-9.535-1.2-13.604-3.6-4.2-2.467-7.47-5.833-9.803-10.1-2.468-4.333-3.702-9.067-3.702-14.2 0-7.8 2.67-14.533 8.004-20.2C22.35 37.767 28.72 35 36.12 35c3.403 0 6.67.633 9.805 1.9.267-2.6 1.167-5.467 2.7-8.6-3.8-1.4-7.968-2.1-12.504-2.1-10.67 0-19.54 3.933-26.61 11.8C3.177 45.133.01 53.567.01 63.3zm28.01 25.3l5.603.4c4.936-3.133 9.087-6.767 12.455-10.9 3.368-4.133 5.786-8.267 7.253-12.4 1.467-4.133 2.5-8.333 3.1-12.6.4-2.733.6-5.4.6-8 0-1.4-.065-2.733-.2-4-.332-3.667-.75-6.95-1.25-9.85-.5-2.9-1.016-5.183-1.55-6.85l-.9-2.5c-1.467-4.533-2.918-8.5-4.352-11.9-1.434-3.4-2.484-5.633-3.15-6.7l-1.1-1.7c2.6 1.333 4.7 2.933 6.3 4.8 1.535 1.933 2.47 3.7 2.802 5.3.267 1.333.4 2.633.4 3.9v.7c-.066 1.467-.267 2.633-.6 3.5l-.5 1.3c.267 3.867.433 7.6.5 11.2 0 3.467-.167 6.867-.5 10.2-.6 6.667-1.617 12.233-3.05 16.7-1.435 4.467-3.086 8.517-4.953 12.15-1.868 3.633-3.785 6.483-5.752 8.55-1.968 2.067-3.785 3.783-5.452 5.15-1.667 1.367-3.034 2.317-4.1 2.85l-1.602.7zm27.51-63.7c.268-2.667 1.035-4.8 2.302-6.4l1.8-2.5c.8-.933 2.1-1.817 3.902-2.65 1.8-.833 3.4-1.45 4.802-1.85l2.1-.6c2.4-.533 4.62-1.7 6.653-3.5 2.034-1.8 3.485-3.5 4.352-5.1l1.3-2.3c2.733 3.8 4.367 8.1 4.9 12.9.268 2.133.368 4.033.3 5.7 0 2.267-.2 4.233-.6 5.9l-1.1 4.5c-.8 2.2-1.917 4.2-3.35 6-1.435 1.8-2.652 3.033-3.652 3.7l-1.5 1.1c-2.268 1.333-4.502 2-6.703 2L60.13 36.5c3.87-2.133 7.237-4.3 10.104-6.5 2.868-2.2 4.986-4.117 6.353-5.75s2.467-3.117 3.3-4.45c.835-1.333 1.318-2.367 1.452-3.1l.2-1c-1.202 2.667-2.82 5.1-4.853 7.3-2.034 2.2-4.102 3.933-6.203 5.2-2.1 1.267-4.118 2.35-6.052 3.25-1.934.9-3.5 1.517-4.702 1.85l-1.8.5c-1.668-2.933-2.5-5.567-2.5-7.9 0-.333.032-.667.1-1z" id="path-1" class="cls-2" fill-rule="evenodd"/></svg>