<svg xmlns="http://www.w3.org/2000/svg" viewBox="0 0 1069.02 300.43"><path fill="#333" d="M0 .7v89.92L89.92.7H0zm0 209.81v89.92h89.92l-44.96-44.96L0 210.51zm156.11-66.2L299.73.7h-89.92L59.95 150.56l44.95 44.96 104.91 104.91h89.92L149.87 150.56l6.24-6.25zM380.28 119l15.9-22.62a59.73 59.73 0 0 0 43.21 18.55c16.1 0 23.64-7.13 23.64-15.08 0-23.64-78.26-7.13-78.26-58.29C384.76 19 404.33.2 436.33.2c21.6 0 39.54 6.52 53 19l-16.1 21.6c-11-10.19-25.68-14.88-39.54-14.88-12.23 0-19.16 5.3-19.16 13.45 0 21.4 78.05 6.93 78.05 57.67 0 24.86-17.93 43.61-54.41 43.61-26.3-.03-45.05-8.8-57.89-21.65zm165.89-48.69c0-41 30-70.31 71.13-70.31 41 0 70.92 29.35 70.92 70.31s-30 70.31-70.92 70.31c-41.17 0-71.13-29.35-71.13-70.31zm112.29 0c0-25.47-16.1-44.63-41.17-44.63-25.27 0-41.37 19.16-41.37 44.63 0 25.27 16.1 44.63 41.37 44.63 25.07 0 41.17-19.36 41.17-44.63zm84.37 0c0-41 30-70.31 71.12-70.31 41 0 70.92 29.35 70.92 70.31s-30 70.31-70.92 70.31c-41.16 0-71.12-29.35-71.12-70.31zm112.29 0c0-25.47-16.1-44.63-41.17-44.63-25.27 0-41.37 19.16-41.37 44.63 0 25.27 16.1 44.63 41.37 44.63 25.05 0 41.17-19.36 41.17-44.63zm184.64 67.86L975 49.52v88.65h-29V2.24h29.75l63 85.39V2.24h28.94v135.93zM382.94 228.1v-41.45h28.4V193h-21.13v10.69h20.69v6.4h-20.69v11.56h21.13v6.4zm72.91-20.69c0-12.81 9.51-21.44 21.75-21.44a18.59 18.59 0 0 1 16.59 9.26l-6.19 3.23a12.25 12.25 0 0 0-10.44-6c-8.2 0-14.29 6.21-14.29 15s6.09 15 14.29 15a12.39 12.39 0 0 0 10.44-6l6.21 3.1c-3.17 5-8.33 9.39-16.65 9.39-12.21-.11-21.71-8.81-21.71-21.54zm81.23 0c0-12.37 8.76-21.44 21.19-21.44s21.19 9.07 21.19 21.44-8.82 21.44-21.19 21.44-21.19-9.08-21.19-21.44zm34.93 0c0-8.58-5.41-15-13.73-15s-13.73 6.4-13.73 15 5.34 15 13.73 15 13.72-6.49 13.72-15zm89.05 20.69v-32l-12.68 32h-3.11l-12.74-32v32h-7.27v-41.45h10.25l11.31 28.47 11.25-28.47h10.25v41.45zm90.74 0v-32l-12.68 32H736l-12.74-32v32H716v-41.45h10.26l11.31 28.47 11.25-28.47h10.26v41.45zm54.94 0v-41.45h28.4V193H814v10.69h20.7v6.4H814v11.56h21.13v6.4zm98.39 0L896 212.63h-7.27v15.47h-7.27v-41.45h18.21c8.2 0 13.61 5.28 13.61 13 0 7.33-4.85 11.37-9.88 12.18l10.19 16.28zm.69-28.53c0-4-3-6.52-7.09-6.52h-10v13.17h10c4.1 0 7.08-2.61 7.08-6.65zm51.77 7.84c0-12.81 9.51-21.44 21.75-21.44a18.58 18.58 0 0 1 16.59 9.26l-6.15 3.23a12.26 12.26 0 0 0-10.44-6c-8.2 0-14.29 6.21-14.29 15s6.09 15 14.29 15a12.39 12.39 0 0 0 10.44-6l6.21 3.1c-3.17 5-8.33 9.39-16.65 9.39-12.25-.11-21.75-8.81-21.75-21.54zm83.03 20.69v-41.45H1069V193h-21.13v10.69h20.7v6.4h-20.7v11.56H1069v6.4zm-317.86 70.54v-25.71h11.45c4.47 0 7.21 2.7 7.21 6.55a5.84 5.84 0 0 1-4.51 5.89 6.42 6.42 0 0 1 5 6.32c0 4.12-2.74 6.94-7.44 6.94zm15.34-18.7c0-2.31-1.54-4.16-4.44-4.16H726v8.29h7.71c2.85 0 4.4-1.77 4.4-4.13zm.5 11.41c0-2.35-1.62-4.43-4.74-4.43H726v8.87h7.9c2.93 0 4.7-1.7 4.7-4.44zm35.03 7.29v-10.87l-10.14-14.84h3.74l8 11.95 8-11.95h3.74l-10.1 14.84v10.87zm82.76 0l-9.75-11.56-2.59 2.92v8.63h-3.2v-25.7h3.2v13.26l11.37-13.26h4l-10.72 12.18 11.68 13.53zm46.28 0l-2.27-5.74h-12.8l-2.27 5.74h-3.66L892 272.93h4l10.33 25.71zM894 276.2l-5.44 13.88h10.91zm35.56 22.44v-25.71h3.2v22.86h12v2.85zm39.72 0v-25.71h3.2v25.71zm28.47-12.84c0-7.59 5.16-13.3 12.76-13.3s12.8 5.71 12.8 13.3-5.21 13.3-12.8 13.3-12.76-5.71-12.76-13.3zm22.24 0c0-6-3.74-10.45-9.48-10.45s-9.44 4.43-9.44 10.45 3.66 10.44 9.44 10.44 9.49-4.46 9.49-10.44zm28.59 12.84v-25.71h10.33c5.17 0 8.06 3.54 8.06 7.75s-2.93 7.75-8.06 7.75h-7.13v10.21zm15.07-18a4.78 4.78 0 0 0-5.13-4.9h-6.75v9.79h6.75a4.78 4.78 0 0 0 5.13-4.85z"/></svg>