<svg xmlns="http://www.w3.org/2000/svg" preserveAspectRatio="xMidYMid" width="1094" height="1557" viewBox="0 0 1094 1557"><path fill="#333" d="M1041.816 1225.17h-40.5c-34.787 0-52.18-18.29-52.18-54.888V957.398c0-36.897 17.235-55.34 51.73-55.34h41.385c34.504 0 51.75 18.443 51.75 55.34v212.884c0 36.597-17.42 54.887-52.184 54.887zm8.977-265.05c0-12.617-6.43-18.916-19.325-18.916h-20.243c-12.59 0-18.91 6.3-18.91 18.917v207.016c0 12.582 6.476 18.885 19.345 18.885h22.058c11.41 0 17.075-6.302 17.075-18.884V960.12zm-95.44 462.08c1.406.35 2.802.73 4.197.874l8.435.76 8.436.9-.117 3.47c-2.802 1.547-19.523 5.465-20.934 5.917-1.41.436-2.812.485-4.232.07-1.415-.403-2.83-1.102-4.242-2.238-.704-.574-1.403-1.302-2.11-2.16-.36-.493-.71-.944-1.058-1.575-.342-.61-.7-1.254-1.01-2.315l.09-1.124c.676.16 1.375-.19 2.075-.467l2.09-.87c1.4-.54 2.79-.993 4.19-1.298 1.395-.293 2.79-.26 4.19.057zm-94.388-197.03h-40.47c-34.792 0-52.184-18.29-52.184-54.888V957.398c0-36.897 17.25-55.34 51.722-55.34h41.388c34.492 0 51.745 18.443 51.745 55.34v212.884c0 36.597-17.396 54.887-52.2 54.887zm9.005-265.05c0-12.617-6.442-18.916-19.332-18.916h-20.25c-12.602 0-18.882 6.3-18.882 18.917v207.016c0 12.582 6.44 18.885 19.332 18.885h22.03c11.408 0 17.102-6.302 17.102-18.884V960.12zM579.76 289.964l64.407 64.428 64.403 64.422 64.394 64.436 64.415 64.44-32.21 96.633-193.208 64.44h.008l-96.612 32.212-96.605 32.222-64.405-64.434-64.4-64.44 32.197-96.633 96.608-32.22 64.41 64.416 64.397 64.438 60.806 60.843 96.592-32.22-60.79-60.84-64.407-64.416-64.402-64.44-128.812-128.856-64.4-64.427-64.405-64.432 32.208-96.673L676.373 0 805.17 128.876l-32.206 96.655-96.59 32.212L547.56 128.876l-60.82-60.842-96.6 32.218 60.818 60.842 128.803 128.87zm-303.11 651.24h-41.39v283.966h-43.186V941.203H150.72v-39.147h125.93v39.147zM140.133 1432.58c-.624.858-1.246 1.573-1.877 2.135-1.25 1.11-2.5 1.795-3.756 2.194-1.25.4-2.5.373-3.75-.067-1.246-.452-16.167-4.557-18.645-6.075l.067-3.805 14.87-.903c1.245-.13 2.488-.492 3.727-.842 1.237-.31 2.475-.334 3.71-.057 1.24.302 2.473.742 3.707 1.263l1.85.818c.615.265 1.236.615 1.84.423l.083 1.095c-.283 1.05-.592 1.677-.897 2.287-.31.614-.62 1.066-.93 1.534zm-61.86-207.41H51.746c-34.52 0-51.746-19.793-51.746-59.392v-1.56l43.178-14.395v17.313c0 12.582 6.455 18.885 19.348 18.885h7.632c11.402 0 17.098-6.302 17.098-18.884v-54.91c0-6-1.196-10.05-3.577-12.164-2.405-2.095-6.303-4.765-11.707-8.1l-40.936-22.93c-9.003-4.82-15.517-8.87-19.582-12.166-4.05-3.28-6.962-7.577-8.776-12.826C.907 1038.8 0 1031.96 0 1023.58V957.4c0-36.897 17.227-55.34 51.746-55.34h26.978c34.475 0 51.748 18.443 51.748 55.34v17.022l-43.216 14.396v-28.24c0-12.898-6.288-19.372-18.882-19.372H61.63c-12.29 0-18.452 6.474-18.452 19.372v53.545c0 5.99 1.188 10.056 3.628 12.15 2.347 2.093 6.263 4.798 11.675 8.11l40.946 22.034c8.983 5.115 15.354 9.07 19.106 11.935 3.738 2.844 6.672 6.282 8.772 10.35 2.096 4.05 3.168 11.76 3.168 23.174v68.86c0 36.303-17.403 54.435-52.2 54.435zM186.7 1490.916c12.37-6.483 46.993-11.438 62.764-5.656 4.175-6.917 12.718-22.82 15.604-30.997-18.974 18.042-57.32 10.917-63.225-20.285-10.258-54.248 40.503-88.102 66.48-93.916 49.373-11.032 38.906 30.98 37.397 34.904-2.653 2.152-8.866 6.514-12.178 1.802 1.586-10.738 9.542-28.446-6.71-30.806-15.962-2.32-40.42 17.122-53.298 33.317-10.518 13.248-24.43 45.148-11.574 65.522 10.752 17.037 42.942 8.846 48.446-6.425 1.056-2.93 12.485-29.655 12.565-29.777 7.578-13.594 16.74-9.737 13.012 2.36-3.732 12.114-27.257 64.905-34.745 81.02 6.204 3.836 13.41 7.815 16.017 14.374-.393.025-.722.318-1.24.55-5.09-4.472-9.636-8.7-16.555-11.365-14.287 26.366-35.54 57.246-69.697 59.268-38.94 2.32-49.772-43.005-3.064-63.89zm11.995 50.28c13.687-4.72 32.014-18.974 47.637-50.32-14.35-2.32-57.024-.787-78.937 33.548-12.84 20.125 10.825 23.84 31.3 16.772zm94.438-89.82c8.32-8.813 39.34-53.824 46.282-64.623-16.206-8.525-36.986-34.408 3.256-50.513 16.983-6.807 24.973 3.488 24.776 12.04-.292 11.716-7.67 20.985-11.85 29.863 8.252 4.196 15.72 4.892 24.975 3.805 8.394-.976 13.494 2.828 15.605 8.22 4.328 11.07-25.54 31.363-31.752 52.29-5.092 17.18 9.642 18.57 18.61 16.045 9.122-2.58 17.41-9.827 22.86-16.162-5.618-16.22 7.747-43.196 14.63-51.297 39.14-46.042 70.126-23.178 77.208-11.548 3.16 5.192.385 12.784-5.07 13.277-4.412.423-6.855-2.39-9.303-5.607-3.982-5.192-13.925-16.382-24.233-13.277-7.094 1.252-20.738 11.466-30.797 34.712-6.214 14.368-14.205 44.178 10.297 49.903 15.954 3.73 27.268-11.207 29.3-14.612 2.397-10.786 4.528-21.223 11.6-34.138 7.077-12.928 12.19-11.76 12.728-11.776 12.223-.175 4.128 15.218 1.02 22.945-3.113 7.753-10.853 21.38-8.96 32.236.395 2.29 2.514 4.21 4.8 4.386 7.832.594 12.865-3.894 18.328-8.1 6.33-17.958 22.827-67.685 25.864-77.072 3.034-9.387 14.235-12.183 17.664-2.462 7.972-3.947 17.616-6.022 27.097-5.9 18.092.277 29.96 11.8 29.968 30.688 0 18.877-9.672 52.324-30.79 69.007 1.9 2.86 12.743 15.06 15.02 17.61 2.283 2.564-17.655-1.867-20.697-5.062-3.023-3.172-3.938-4.832-5.784-7.326-19 6.107-37.328.1-36.84-18.64.225-8.786 8.75-14.91 17.105-15.48 14.18-.948 19.954 10.902 24.884 20.142 13.684-20.166 20.305-46.138 20.468-64.286.23-24.365-36.818-17.664-41.257-9.648-5.218 9.404-42.066 116.757-59.92 155.013-2.092 4.472-5.208 10.523-9.623 14.718-9.455 8.968-21.307 6.91-14.146-3.06 7.25-10.066 37.048-87.085 37.57-88.497-8.087 7.32-32.373 11.398-36-3.287-29.168 23.77-54.117 7.176-60.49-8.36-1.6 2.48-13.36 16.285-29.01 20.126-20.436 5.02-29.16-11.206-29.264-20.82-.167-16.11 16.878-35.035 22.74-45.838-.042-.26-17.01-5.376-23.423-9.84-10.832 17.07-23.9 40.634-35.197 58.692-8.232 13.18-20.23 24.154-27.127 14.766-3.666-5.012 2.598-8.727 6.883-13.248zm252.627-6.575c-6.786-.232-7.085 10.144-3 15.6 3.557 4.778 14.65 4.452 18.946 1.047-3.44-5.352-8.468-16.387-15.946-16.648zm-198.98-100.358c-9.738-6.584-21.393 16.964-.56 28.902 5.418-11.047 8.74-23.372.56-28.902zm-47.646-119.275V957.397c0-36.897 17.244-55.34 51.727-55.34h32.4c34.482 0 51.732 18.443 51.732 55.34v267.77h-43.187v-135.302l-49.476 16.36v118.943h-43.196zm92.67-174.172V960.12c0-12.617-6.295-18.916-18.894-18.916h-11.706c-12.58 0-18.875 6.3-18.875 18.917v107.252l49.475-16.374zm179.04 174.17l-28.338-130.48h-26.092v130.48h-43.187V902.06h84.582c32.96 0 49.467 18.443 49.467 55.34v79.66c0 28.22-8.533 46.057-25.64 53.56l30.118 134.55h-40.91zM564.1 964.61c0-15.59-6.447-23.406-19.343-23.406h-28.34v116.57h28.34c12.896 0 19.343-7.8 19.343-23.393v-69.77zm79.15-48.105l43.187-14.4v283.916h59.384v39.15H643.25V916.504zm118.873 433.978c-7.28-8.342 10.9-18.165 16.433-11.923 5.523 6.234-9.6 19.743-16.432 11.923zm51.306 108.33c24.86-5.165 32.392-23.146 55.145-31.325 11.796-4.24 23.905-3.145 24.23.745.334 3.878-9.716-.484-19.99 3.41-24.006 9.14-37.282 32.007-59.93 35.897-16.496 2.828-28.905-5.668-34.327-16.996-35.28 31.173-47.14 14.327-48.174 1.794-.806-9.688 5.78-36.963 6.84-40.804-7.866 13.244-23.57 39.86-28.927 47.7-5.352 7.822-15.68 13.738-22.695 5.742-14.62-16.67 2.774-59.863 5.743-67.932 3.177-8.598 6.085-19.4 1.408-23.04-3.437.86-7.8 6.378-13.422 13.287-5.63 6.93-30.965 52.882-41.373 66.692-9.274 12.304-21.492 20.597-27.382 8.484-5.88-12.114 14.277-56.222 17.65-65.975 3.114-9.02 14.058-38.198 18.743-50.61-76.723-2.316-211.58-74.818-252.002-45.96-6.684 4.766 3.617 21.542 9.273 31.222 10.45 17.924 3.443 23.198-8.87 6.775-12.315-16.41-16.3-30.546-9.04-40.04 33.07-43.27 195.72 31.474 265.506 36.392l.684-1.585c6.564-14.226 13.414-35.226 26.812-41.89 7.95-3.964 19.742.524 16.774 28.392-1.058 9.92-6.477 18.43-19.952 22.753-4.178 1.59-8.787 2.67-13.774 3.3-8.978 26.27-43.776 109.92-42.196 111.253 1.594 1.326 7.598-9.286 9.71-13.16 5.653-11.73 11.042-25.215 23.3-44.12 12.252-18.917 30.636-36.947 46.117-32.727 14.1 3.857 11.624 21.244 8.622 31.9-3 10.654-18.092 58.648-14.398 62.212 3.696 3.577 7.466-3.35 9.166-6.16 3.89-6.397 41.553-74.69 48.833-82.402 7.46-7.926 22.536-8.862 14.406 9.912-8.493 19.64-28.7 69.296-15.997 75.212 7.357 3.414 17.88-7.267 25.993-13.595-8.582-28.642 9.193-54.614 22.73-67.64 17.114-16.438 40.526-17.097 51.377-3.657 17.66 21.847-13.796 43.123-14.57 28.028-.22-4.155 4.492-7.736 5.744-12.725 1.066-4.238 2.286-14.732-6.296-15.343-25.47-1.778-45.22 37.79-43.236 66.675 1.017 14.746 8.363 22.705 21.744 19.91zM666.99 1333.964c5.785-.85 10.25-2.71 13.106-5.827 9.143-11.03 6.536-33.165.393-26.264-2.67 3.003-10.686 21.834-14.84 32.03.463.047.897.046 1.34.06zm-49.057 166.583c63.797 40.417 140.27 67.452 259.936-17.59 5.055-3.585 8.46-5.592 9.858-6.568 5.58-3.91 9.77-.7 6.004 6.702-1.53 3.02-5.86 6.425-9.542 9.078-50.028 36.055-106.052 51.24-154.25 51.24-49.508 0-93.842-15.69-127.617-39.933-8.948-6.425 3.595-10.538 15.61-2.93z" class="cls-2" fill-rule="evenodd"/></svg>