<svg height="16" viewBox="0 0 16 16" width="16" xmlns="http://www.w3.org/2000/svg"><title/><path d="M1.001 3c-.553 0-1.001.456-1.001.995v8.009c0 .55.445.995 1.001.995h13.998c.553 0 1.001-.456 1.001-.995v-8.009c0-.55-.445-.995-1.001-.995h-13.998zm12.999 3v2h1v-2h-1zm-2-1v1h1v-1h-1zm0 2v1h1v-1h-1zm-1 2v1h1v-1h-1zm-2 0v1h1v-1h-1zm-6 2v1h1v-1h-1zm-2 0v1h1v-1h-1zm13 0v1h1v-1h-1zm-2 0v1h1v-1h-1zm-2-6v1h1v-1h-1zm-2 0v1h1v-1h-1zm-2 0v1h1v-1h-1zm-2 0v1h1v-1h-1zm6 2v1h1v-1h-1zm-2 0v1h1v-1h-1zm-2 0v1h1v-1h-1zm-2 0v1h1v-1h-1zm3 2v1h1v-1h-1zm-2 0v1h1v-1h-1zm-2 0v1h1v-1h-1zm-2 0v1h1v-1h-1zm4 2v1h6v-1h-6zm8-2v1h2v-1h-2zm-12-2v1h2v-1h-2zm0-2v1h2v-1h-2zm0 0" fill="#000"/></svg>