<svg height="64" viewBox="0 0 64 64" width="64" xmlns="http://www.w3.org/2000/svg">
    <path d="M4.55 32c0 10.864 6.312 20.255 15.471 24.704l-13.095-35.876c-1.524 3.414-2.376 7.191-2.376 11.172zm45.982-1.385c0-3.395-1.22-5.743-2.263-7.571-1.394-2.261-2.697-4.174-2.697-6.438 0-2.521 1.912-4.871 4.611-4.871l.354.021c-4.885-4.474-11.389-7.204-18.538-7.204-9.591 0-18.025 4.918-22.937 12.371.646.02 1.252.033 1.77.033 2.869 0 7.314-.351 7.314-.351 1.479-.086 1.656 2.089.176 2.265 0 0-1.487.173-3.143.261l9.998 29.733 6.007-18.017-4.275-11.717c-1.479-.088-2.879-.261-2.879-.261-1.481-.089-1.308-2.351.174-2.265 0 0 4.532.351 7.229.351 2.872 0 7.316-.351 7.316-.351 1.479-.086 1.655 2.089.176 2.265 0 0-1.489.173-3.141.261l9.92 29.508 2.739-9.147c1.389-3.57 2.089-6.525 2.089-8.876zm-18.05 3.783l-8.237 23.935c2.46.726 5.061 1.118 7.754 1.118 3.196 0 6.263-.553 9.116-1.555-.073-.117-.141-.241-.195-.381l-8.438-23.117zm23.607-15.568c.116.875.185 1.812.185 2.823 0 2.786-.521 5.917-2.088 9.832l-8.385 24.242c8.163-4.759 13.65-13.601 13.65-23.728 0-4.773-1.221-9.258-3.362-13.169zm-56.089 13.17c0 17.646 14.356 32 31.999 32 17.644 0 32.001-14.354 32.001-32 0-17.645-14.357-32-32.001-32-17.643 0-31.999 14.355-31.999 32zm1.468 0c0-16.834 13.697-30.529 30.531-30.529 16.837 0 30.534 13.695 30.534 30.529 0 16.835-13.697 30.533-30.534 30.533-16.834 0-30.531-13.698-30.531-30.533z"/>
</svg>
