<svg viewBox="0 0 50 11" fill="none" xmlns="http://www.w3.org/2000/svg">
<path d="M0 0.196777H4.09661C8.34607 0.196777 10.4708 2.27254 10.4708 5.4089V5.4392C10.4708 8.57557 8.30021 10.8028 3.97432 10.8028H0V0.196777ZM3.57689 3.28769V7.71193H4.17304C5.80862 7.71193 6.86334 7.04526 6.86334 5.51496V5.48466C6.86334 3.95435 5.80862 3.28769 4.17304 3.28769H3.57689Z" fill="#333333"/>
<path d="M10.4097 9.21212L12.3204 6.95455C13.4821 7.8333333 14.812 8.19697 16.0654 8.19697C16.7074 8.19697 16.9826 8.0303 16.9826 7.74242V7.71212C16.9826 7.40909 16.6463 7.24242 15.4999 7.01515C13.1 6.5303 10.9905 5.84848 10.9905 3.60606V3.57576C10.9905 1.56061 12.5803 0 15.5304 0C17.594 0 19.1226 0.484849 20.3608 1.45455L18.6182 3.84848C17.6093 3.12121 16.4017 2.80303 15.4081 2.80303C14.8731 2.80303 14.6286 2.98485 14.6286 3.24242V3.27273C14.6286 3.56061 14.919 3.74242 16.0501 3.95455C18.7863 4.45455 20.6206 5.24242 20.6206 7.37879V7.40909C20.6206 9.63636 18.771 11 15.8973 11C13.7267 11 11.7701 10.3939 10.4097 9.21212Z" fill="#333"/>
<path d="M21.446 0.196777H26.2611C29.1043 0.196777 31.0456 1.45435 31.0456 3.96951V3.99981C31.0456 6.56041 29.0737 7.92405 26.1847 7.92405H25.0229V10.8028H21.446V0.196777ZM25.9859 5.39375C26.9031 5.39375 27.5145 4.98466 27.5145 4.22708V4.19678C27.5145 3.42405 26.949 3.03011 26.0012 3.03011H25.0229V5.39375H25.9859Z" fill="#333"/>
<path d="M31.8098 0.196777H35.3867V7.77254H40.4157V10.8028H31.8098V0.196777Z" fill="#333"/>
<path d="M42.3876 7.04526L38.3522 0.196777H42.3571L44.1914 3.68163L46.041 0.196777H50L45.9645 6.99981V10.8028H42.3876V7.04526Z" fill="#333333"/>
</svg>
