<svg xmlns="http://www.w3.org/2000/svg" xmlns:xlink="http://www.w3.org/1999/xlink" preserveAspectRatio="xMidYMid" width="1094" height="1557" viewBox="0 0 1094 1557">
  <path fill="#333333" d="M1041.816,1225.169 C1041.816,1225.169 1001.317,1225.169 1001.317,1225.169 C966.529,1225.169 949.137,1206.879 949.137,1170.282 C949.137,1170.282 949.137,957.398 949.137,957.398 C949.137,920.501 966.371,902.057 1000.865,902.057 C1000.865,902.057 1042.251,902.057 1042.251,902.057 C1076.754,902.057 1094.000,920.501 1094.000,957.398 C1094.000,957.398 1094.000,1170.282 1094.000,1170.282 C1094.000,1206.879 1076.579,1225.169 1041.816,1225.169 ZM1050.793,960.121 C1050.793,947.503 1044.362,941.204 1031.468,941.204 C1031.468,941.204 1011.225,941.204 1011.225,941.204 C998.636,941.204 992.316,947.503 992.316,960.121 C992.316,960.121 992.316,1167.136 992.316,1167.136 C992.316,1179.718 998.791,1186.021 1011.660,1186.021 C1011.660,1186.021 1033.718,1186.021 1033.718,1186.021 C1045.127,1186.021 1050.793,1179.718 1050.793,1167.136 C1050.793,1167.136 1050.793,960.121 1050.793,960.121 ZM955.352,1422.199 C956.759,1422.549 958.155,1422.931 959.550,1423.074 C959.550,1423.074 967.985,1423.835 967.985,1423.835 C967.985,1423.835 976.421,1424.734 976.421,1424.734 C976.421,1424.734 976.303,1428.205 976.303,1428.205 C973.501,1429.751 956.780,1433.669 955.369,1434.121 C953.961,1434.556 952.558,1434.605 951.138,1434.190 C949.723,1433.787 948.307,1433.088 946.896,1431.952 C946.192,1431.378 945.493,1430.650 944.785,1429.792 C944.427,1429.299 944.077,1428.848 943.728,1428.217 C943.386,1427.606 943.028,1426.963 942.719,1425.902 C942.719,1425.902 942.808,1424.778 942.808,1424.778 C943.484,1424.937 944.183,1424.587 944.883,1424.311 C944.883,1424.311 946.973,1423.440 946.973,1423.440 C948.373,1422.899 949.763,1422.447 951.163,1422.142 C952.558,1421.849 953.953,1421.881 955.352,1422.199 ZM860.965,1225.169 C860.965,1225.169 820.495,1225.169 820.495,1225.169 C785.703,1225.169 768.311,1206.879 768.311,1170.282 C768.311,1170.282 768.311,957.398 768.311,957.398 C768.311,920.501 785.561,902.057 820.032,902.057 C820.032,902.057 861.420,902.057 861.420,902.057 C895.912,902.057 913.165,920.501 913.165,957.398 C913.165,957.398 913.165,1170.282 913.165,1170.282 C913.165,1206.879 895.769,1225.169 860.965,1225.169 ZM869.970,960.121 C869.970,947.503 863.528,941.204 850.638,941.204 C850.638,941.204 830.387,941.204 830.387,941.204 C817.786,941.204 811.506,947.503 811.506,960.121 C811.506,960.121 811.506,1167.136 811.506,1167.136 C811.506,1179.718 817.945,1186.021 830.838,1186.021 C830.838,1186.021 852.867,1186.021 852.867,1186.021 C864.276,1186.021 869.970,1179.718 869.970,1167.136 C869.970,1167.136 869.970,960.121 869.970,960.121 ZM579.761,289.963 C579.761,289.963 644.167,354.391 644.167,354.391 C644.167,354.391 708.570,418.812 708.570,418.812 C708.570,418.812 772.964,483.248 772.964,483.248 C772.964,483.248 837.379,547.687 837.379,547.687 C837.379,547.687 805.170,644.321 805.170,644.321 C805.170,644.321 611.962,708.760 611.962,708.760 C611.962,708.760 611.970,708.760 611.970,708.760 C611.970,708.760 515.358,740.972 515.358,740.972 C515.358,740.972 418.753,773.194 418.753,773.194 C418.753,773.194 354.348,708.760 354.348,708.760 C354.348,708.760 289.948,644.321 289.948,644.321 C289.948,644.321 322.145,547.687 322.145,547.687 C322.145,547.687 418.753,515.467 418.753,515.467 C418.753,515.467 483.162,579.883 483.162,579.883 C483.162,579.883 547.560,644.321 547.560,644.321 C547.560,644.321 608.366,705.163 608.366,705.163 C608.366,705.163 704.958,672.942 704.958,672.942 C704.958,672.942 644.167,612.102 644.167,612.102 C644.167,612.102 579.761,547.687 579.761,547.687 C579.761,547.687 515.358,483.248 515.358,483.248 C515.358,483.248 386.546,354.391 386.546,354.391 C386.546,354.391 322.145,289.963 322.145,289.963 C322.145,289.963 257.741,225.531 257.741,225.531 C257.741,225.531 289.948,128.857 289.948,128.857 C289.948,128.857 676.373,0.000 676.373,0.000 C676.373,0.000 805.170,128.876 805.170,128.876 C805.170,128.876 772.964,225.531 772.964,225.531 C772.964,225.531 676.373,257.742 676.373,257.742 C676.373,257.742 547.560,128.876 547.560,128.876 C547.560,128.876 486.739,68.034 486.739,68.034 C486.739,68.034 390.141,100.252 390.141,100.252 C390.141,100.252 450.958,161.094 450.958,161.094 C450.958,161.094 579.761,289.963 579.761,289.963 ZM276.650,941.204 C276.650,941.204 235.261,941.204 235.261,941.204 C235.261,941.204 235.261,1225.169 235.261,1225.169 C235.261,1225.169 192.074,1225.169 192.074,1225.169 C192.074,1225.169 192.074,941.204 192.074,941.204 C192.074,941.204 150.719,941.204 150.719,941.204 C150.719,941.204 150.719,902.057 150.719,902.057 C150.719,902.057 276.650,902.057 276.650,902.057 C276.650,902.057 276.650,941.204 276.650,941.204 ZM140.133,1432.579 C139.509,1433.438 138.887,1434.153 138.256,1434.715 C137.006,1435.826 135.755,1436.510 134.500,1436.909 C133.250,1437.311 131.999,1437.283 130.750,1436.843 C129.504,1436.391 114.583,1432.286 112.105,1430.768 C112.105,1430.768 112.172,1426.963 112.172,1426.963 C112.172,1426.963 127.043,1426.060 127.043,1426.060 C128.287,1425.930 129.530,1425.568 130.769,1425.218 C132.007,1424.909 133.245,1424.884 134.480,1425.161 C135.719,1425.462 136.953,1425.902 138.187,1426.423 C138.187,1426.423 140.038,1427.241 140.038,1427.241 C140.652,1427.505 141.273,1427.855 141.877,1427.663 C141.877,1427.663 141.960,1428.758 141.960,1428.758 C141.677,1429.808 141.368,1430.435 141.063,1431.045 C140.752,1431.659 140.443,1432.111 140.133,1432.579 ZM78.273,1225.169 C78.273,1225.169 51.746,1225.169 51.746,1225.169 C17.227,1225.169 -0.000,1205.377 -0.000,1165.778 C-0.000,1165.778 -0.000,1164.219 -0.000,1164.219 C-0.000,1164.219 43.178,1149.823 43.178,1149.823 C43.178,1149.823 43.178,1167.136 43.178,1167.136 C43.178,1179.718 49.633,1186.021 62.526,1186.021 C62.526,1186.021 70.158,1186.021 70.158,1186.021 C81.560,1186.021 87.256,1179.718 87.256,1167.136 C87.256,1167.136 87.256,1112.225 87.256,1112.225 C87.256,1106.227 86.060,1102.175 83.679,1100.062 C81.275,1097.967 77.377,1095.297 71.973,1091.962 C71.973,1091.962 31.037,1069.033 31.037,1069.033 C22.034,1064.211 15.520,1060.162 11.455,1056.866 C7.406,1053.586 4.493,1049.289 2.679,1044.040 C0.908,1038.799 -0.000,1031.960 -0.000,1023.581 C-0.000,1023.581 -0.000,957.398 -0.000,957.398 C-0.000,920.501 17.227,902.057 51.746,902.057 C51.746,902.057 78.724,902.057 78.724,902.057 C113.199,902.057 130.472,920.501 130.472,957.398 C130.472,957.398 130.472,974.420 130.472,974.420 C130.472,974.420 87.256,988.816 87.256,988.816 C87.256,988.816 87.256,960.576 87.256,960.576 C87.256,947.678 80.968,941.204 68.374,941.204 C68.374,941.204 61.630,941.204 61.630,941.204 C49.340,941.204 43.178,947.678 43.178,960.576 C43.178,960.576 43.178,1014.121 43.178,1014.121 C43.178,1020.111 44.366,1024.176 46.806,1026.271 C49.153,1028.363 53.069,1031.068 58.481,1034.381 C58.481,1034.381 99.426,1056.414 99.426,1056.414 C108.409,1061.529 114.780,1065.484 118.532,1068.349 C122.270,1071.194 125.204,1074.632 127.304,1078.701 C129.400,1082.749 130.472,1090.460 130.472,1101.874 C130.472,1101.874 130.472,1170.734 130.472,1170.734 C130.472,1207.037 113.069,1225.169 78.273,1225.169 ZM186.699,1490.917 C199.071,1484.434 233.693,1479.479 249.464,1485.261 C253.639,1478.343 262.182,1462.441 265.068,1454.263 C246.094,1472.305 207.749,1465.180 201.843,1433.978 C191.585,1379.730 242.346,1345.876 268.322,1340.062 C317.696,1329.030 307.229,1371.043 305.720,1374.966 C303.067,1377.118 296.854,1381.480 293.542,1376.768 C295.128,1366.030 303.084,1348.322 286.833,1345.962 C270.870,1343.642 246.411,1363.084 233.534,1379.279 C223.016,1392.528 209.104,1424.428 221.960,1444.802 C232.712,1461.839 264.902,1453.648 270.406,1438.377 C271.462,1435.448 282.891,1408.722 282.971,1408.600 C290.548,1395.006 299.710,1398.863 295.982,1410.960 C292.250,1423.074 268.725,1475.865 261.237,1491.979 C267.441,1495.816 274.647,1499.795 277.254,1506.354 C276.861,1506.379 276.532,1506.672 276.015,1506.904 C270.923,1502.432 266.378,1498.204 259.459,1495.539 C245.173,1521.906 223.921,1552.786 189.763,1554.808 C150.822,1557.127 139.991,1511.803 186.699,1490.917 ZM198.695,1541.197 C212.382,1536.477 230.709,1522.223 246.332,1490.876 C231.983,1488.557 189.308,1490.090 167.395,1524.425 C154.554,1544.550 178.220,1548.265 198.695,1541.197 ZM293.133,1451.378 C301.453,1442.564 332.474,1397.553 339.415,1386.754 C323.209,1378.229 302.429,1352.346 342.671,1336.241 C359.653,1329.433 367.643,1339.728 367.446,1348.281 C367.154,1359.996 359.775,1369.265 355.595,1378.143 C363.848,1382.339 371.316,1383.035 380.571,1381.948 C388.964,1380.972 394.064,1384.776 396.175,1390.168 C400.503,1401.239 370.636,1421.531 364.423,1442.459 C359.331,1459.638 374.065,1461.029 383.032,1458.503 C392.155,1455.923 400.442,1448.676 405.892,1442.341 C400.275,1426.121 413.640,1399.144 420.524,1391.043 C459.662,1345.001 490.649,1367.865 497.731,1379.495 C500.889,1384.687 498.115,1392.279 492.661,1392.772 C488.248,1393.195 485.805,1390.383 483.357,1387.165 C479.375,1381.973 469.432,1370.783 459.124,1373.888 C452.030,1375.140 438.386,1385.354 428.327,1408.600 C422.113,1422.968 414.122,1452.778 438.624,1458.503 C454.578,1462.234 465.892,1447.296 467.923,1443.891 C470.321,1433.104 472.452,1422.667 479.525,1409.752 C486.601,1396.824 491.713,1397.992 492.252,1397.976 C504.475,1397.801 496.380,1413.194 493.273,1420.921 C490.159,1428.673 482.419,1442.300 484.312,1453.156 C484.707,1455.447 486.826,1457.367 489.112,1457.542 C496.944,1458.136 501.977,1453.648 507.440,1449.441 C513.770,1431.484 530.267,1381.757 533.304,1372.370 C536.338,1362.983 547.539,1360.187 550.968,1369.908 C558.940,1365.961 568.584,1363.886 578.065,1364.008 C596.157,1364.285 608.025,1375.808 608.033,1394.696 C608.033,1413.573 598.361,1447.020 577.243,1463.703 C579.143,1466.564 589.986,1478.762 592.264,1481.314 C594.546,1483.877 574.608,1479.446 571.566,1476.251 C568.543,1473.078 567.628,1471.418 565.782,1468.924 C546.781,1475.031 528.454,1469.025 528.942,1450.283 C529.167,1441.498 537.691,1435.374 546.047,1434.805 C560.226,1433.856 566.001,1445.706 570.931,1454.946 C584.614,1434.780 591.235,1408.808 591.398,1390.660 C591.629,1366.295 554.580,1372.996 550.141,1381.012 C544.922,1390.416 508.074,1497.769 490.220,1536.025 C488.128,1540.497 485.012,1546.548 480.597,1550.743 C471.142,1559.711 459.290,1557.652 466.451,1547.683 C473.699,1537.617 503.498,1460.598 504.021,1459.186 C495.933,1466.506 471.647,1470.584 468.019,1455.899 C438.852,1479.670 413.903,1463.076 407.531,1447.541 C405.929,1450.019 394.170,1463.825 378.519,1467.666 C358.084,1472.687 349.360,1456.460 349.256,1446.845 C349.089,1430.736 366.134,1411.811 371.997,1401.008 C371.954,1400.747 354.985,1395.632 348.573,1391.168 C337.741,1408.238 324.673,1431.802 313.376,1449.860 C305.144,1463.039 293.147,1474.014 286.249,1464.626 C282.584,1459.614 288.848,1455.899 293.133,1451.378 ZM545.760,1444.802 C538.974,1444.570 538.675,1454.946 542.760,1460.403 C546.317,1465.180 557.411,1464.854 561.706,1461.449 C558.265,1456.098 553.238,1445.063 545.760,1444.802 ZM346.779,1344.444 C337.042,1337.860 325.387,1361.408 346.220,1373.346 C351.638,1362.299 354.961,1349.974 346.779,1344.444 ZM299.134,1225.169 C299.134,1225.169 299.134,957.398 299.134,957.398 C299.134,920.501 316.378,902.057 350.861,902.057 C350.861,902.057 383.259,902.057 383.259,902.057 C417.742,902.057 434.992,920.501 434.992,957.398 C434.992,957.398 434.992,1225.169 434.992,1225.169 C434.992,1225.169 391.805,1225.169 391.805,1225.169 C391.805,1225.169 391.805,1089.866 391.805,1089.866 C391.805,1089.866 342.329,1106.227 342.329,1106.227 C342.329,1106.227 342.329,1225.169 342.329,1225.169 C342.329,1225.169 299.134,1225.169 299.134,1225.169 ZM391.805,1050.998 C391.805,1050.998 391.805,960.121 391.805,960.121 C391.805,947.503 385.509,941.204 372.910,941.204 C372.910,941.204 361.204,941.204 361.204,941.204 C348.625,941.204 342.329,947.503 342.329,960.121 C342.329,960.121 342.329,1067.372 342.329,1067.372 C342.329,1067.372 391.805,1050.998 391.805,1050.998 ZM570.845,1225.169 C570.845,1225.169 542.506,1094.688 542.506,1094.688 C542.506,1094.688 516.414,1094.688 516.414,1094.688 C516.414,1094.688 516.414,1225.169 516.414,1225.169 C516.414,1225.169 473.227,1225.169 473.227,1225.169 C473.227,1225.169 473.227,902.057 473.227,902.057 C473.227,902.057 557.809,902.057 557.809,902.057 C590.771,902.057 607.277,920.501 607.277,957.398 C607.277,957.398 607.277,1037.058 607.277,1037.058 C607.277,1065.277 598.744,1083.115 581.636,1090.619 C581.636,1090.619 611.755,1225.169 611.755,1225.169 C611.755,1225.169 570.845,1225.169 570.845,1225.169 ZM564.098,964.610 C564.098,949.021 557.651,941.204 544.755,941.204 C544.755,941.204 516.414,941.204 516.414,941.204 C516.414,941.204 516.414,1057.774 516.414,1057.774 C516.414,1057.774 544.755,1057.774 544.755,1057.774 C557.651,1057.774 564.098,1049.973 564.098,1034.381 C564.098,1034.381 564.098,964.610 564.098,964.610 ZM643.249,916.505 C643.249,916.505 686.435,902.105 686.435,902.105 C686.435,902.105 686.435,1186.021 686.435,1186.021 C686.435,1186.021 745.819,1186.021 745.819,1186.021 C745.819,1186.021 745.819,1225.169 745.819,1225.169 C745.819,1225.169 643.249,1225.169 643.249,1225.169 C643.249,1225.169 643.249,916.505 643.249,916.505 ZM762.121,1350.483 C754.840,1342.141 773.021,1332.318 778.553,1338.560 C784.076,1344.794 768.954,1358.303 762.121,1350.483 ZM813.426,1458.812 C838.286,1453.648 845.818,1435.667 868.571,1427.488 C880.366,1423.248 892.475,1424.343 892.800,1428.233 C893.134,1432.111 883.084,1427.749 872.809,1431.643 C848.804,1440.782 835.528,1463.650 812.881,1467.540 C796.384,1470.368 783.975,1461.872 778.553,1450.544 C743.272,1481.717 731.412,1464.871 730.379,1452.338 C729.574,1442.650 736.159,1415.375 737.220,1411.534 C729.354,1424.778 713.650,1451.394 708.293,1459.235 C702.941,1467.056 692.614,1472.972 685.598,1464.976 C670.979,1448.306 688.372,1405.113 691.341,1397.044 C694.517,1388.446 697.425,1377.643 692.748,1374.005 C689.311,1374.864 684.947,1380.382 679.326,1387.291 C673.696,1394.220 648.361,1440.172 637.953,1453.982 C628.679,1466.286 616.461,1474.579 610.571,1462.466 C604.690,1450.352 624.847,1406.244 628.219,1396.491 C631.334,1387.470 642.278,1358.292 646.963,1345.880 C570.240,1343.564 435.382,1271.062 394.961,1299.921 C388.276,1304.686 398.577,1321.462 404.233,1331.142 C414.682,1349.066 407.676,1354.340 395.362,1337.917 C383.048,1321.507 379.064,1307.371 386.324,1297.878 C419.392,1254.606 582.043,1329.351 651.829,1334.269 C651.829,1334.269 652.514,1332.685 652.514,1332.685 C659.078,1318.459 665.928,1297.459 679.326,1290.794 C687.277,1286.831 699.068,1291.319 696.100,1319.187 C695.042,1329.106 689.623,1337.617 676.148,1341.940 C671.970,1343.531 667.361,1344.610 662.374,1345.239 C653.396,1371.511 618.598,1455.161 620.178,1456.493 C621.772,1457.819 627.776,1447.207 629.887,1443.334 C635.541,1431.602 640.930,1418.118 653.189,1399.213 C665.440,1380.296 683.824,1362.266 699.305,1366.486 C713.406,1370.343 710.929,1387.730 707.927,1398.387 C704.926,1409.040 689.835,1457.034 693.529,1460.598 C697.226,1464.175 700.996,1457.249 702.696,1454.438 C706.585,1448.041 744.249,1379.747 751.529,1372.036 C758.989,1364.110 774.066,1363.174 765.936,1381.948 C757.443,1401.589 737.237,1451.244 749.939,1457.160 C757.297,1460.574 767.819,1449.893 775.933,1443.565 C767.351,1414.923 785.126,1388.951 798.662,1375.926 C815.777,1359.487 839.189,1358.828 850.040,1372.268 C867.701,1394.115 836.244,1415.391 835.471,1400.296 C835.251,1396.141 839.962,1392.560 841.214,1387.571 C842.280,1383.332 843.500,1372.838 834.918,1372.227 C809.448,1370.449 789.697,1410.016 791.682,1438.902 C792.699,1453.648 800.045,1461.607 813.426,1458.812 ZM666.991,1333.965 C672.775,1333.116 677.240,1331.255 680.096,1328.138 C689.239,1317.108 686.632,1294.973 680.489,1301.874 C677.821,1304.877 669.804,1323.708 665.651,1333.905 C666.113,1333.951 666.547,1333.950 666.991,1333.965 ZM617.933,1500.548 C681.730,1540.965 758.204,1568.000 877.869,1482.957 C882.925,1479.373 886.329,1477.366 887.728,1476.390 C893.309,1472.480 897.498,1475.690 893.732,1483.092 C892.202,1486.111 887.871,1489.517 884.190,1492.170 C834.162,1528.225 778.138,1543.411 729.940,1543.411 C680.432,1543.411 636.098,1527.721 602.323,1503.477 C593.375,1497.052 605.918,1492.939 617.933,1500.548 Z" id="path-1" class="cls-2" fill-rule="evenodd"/>
</svg>
