<?xml version="1.0" encoding="UTF-8"?>
<svg class="upian-logo" xmlns="http://www.w3.org/2000/svg" viewBox="0 0 113 33" enable-background="new 0 0 113 33">
    <path fill="#333" d="M21.2 21.2h-5.6v-12.4h-5.6v12.4h2.8v3.1h14v-15.5h-5.6z"/>
    <path fill="#333" d="M44.2 8.8h-14.1v21.7h5.6v-6.2h8.5v-3.1h2.8v-9.3h-2.8v-3.1zm-2.8 12.4h-5.7v-9.3h5.7v9.3z"/>
    <path fill="#333" d="M49.8 8.8h5.6v15.5h-5.6zM49.8 3.5h5.6v3.1h-5.6z"/>
    <path fill="#333" d="M71.5 8.8h-11.2v3.1h8.4v3.1h-8.4v3.1h-2.3v3.2h2.3v3.1h14.1v-12.5h-2.8l-.1-3.1zm-2.8 12.4h-4.8v-3.1h4.8v3.1z"/>
    <path fill="#333" d="M92.7 8.8h-14.7v15.5h5.6v-12.4h5.6v12.4h5.6v-12.4h-2.1z"/>
    <path fill="#333" d="M98.4 21.2h5.6v3.1h-5.6z"/>
</svg>
