<svg xmlns="http://www.w3.org/2000/svg" preserveAspectRatio="xMidYMid" width="1245" height="1244" viewBox="0 0 1245 1244"><path fill="#333" d="M1244.57 10.428c.05 408.82.12 817.64.19 1226.46.002 2.253.002 4.507.002 6.67H171.712l981.114-797.728-.39-1.208c-145.46 6.06-290.92 12.118-437.5 18.223 2.02-2.474 3.242-4.012 4.507-5.513 57.737-68.533 115.483-137.06 173.22-205.595 62.244-73.89 124.498-147.772 186.705-221.693C1087.706 20.136 1095.795 10.02 1104 0h141c-.15 3.476-.43 6.952-.43 10.428zM150.51 752.578c-1.09 1.57-2.103 3.192-3.64 5.54L524.385 744.4c-1.53 2.226-2.437 3.597-3.396 4.928-10.996 15.273-22.002 30.538-33.003 45.807-106.79 148.228-213.59 296.452-320.314 444.727-2.05 2.85-4.126 4.02-7.723 4.012-51.322-.13-102.645-.09-153.967-.08-1.995 0-3.99.134-5.983.206V0h673c-7.928 11.313-15.903 22.594-23.78 33.943-166.245 239.54-332.48 479.085-498.71 718.634z" class="cls-2" fill-rule="evenodd"/></svg>