<svg xmlns="http://www.w3.org/2000/svg" preserveAspectRatio="xMidYMid" width="424" height="110" viewBox="0 0 424 110"><path fill="#333" d="M422.815 100.864c-.48.54-1.02.78-1.683.78H379c-.663 0-1.203-.18-1.624-.6-.48-.42-.782-.9-.84-1.502-.122-.6 0-1.142.3-1.683l36.002-61.428h-46.882c-5.77-.06-10.7 1.923-14.726 6.01l-.06.12c-4.087 4.027-6.13 8.896-6.13 14.666V99.12c0 .662-.24 1.264-.782 1.744-.48.54-1.082.78-1.743.78-.72 0-1.323-.24-1.863-.78-.48-.48-.722-1.082-.722-1.743V57.23c0-7.152 2.585-13.284 7.694-18.332l.06-.06c4.99-5.11 11.12-7.573 18.332-7.513h51.27c.66-.06 1.202.18 1.683.6.48.42.78.902.9 1.504.06.6 0 1.14-.3 1.682l-36.063 61.427h37.625c.662 0 1.203.24 1.683.78.542.482.78 1.083.842 1.804-.06.662-.3 1.264-.842 1.744zm-97.55-22.058c-.72 5.83-3.246 10.94-7.513 15.326l-.06.06c-5.11 4.99-11.24 7.513-18.393 7.513h-.962-26.987c-7.212 0-13.342-2.524-18.33-7.573-5.11-5.108-7.695-11.24-7.695-18.33V24.89c0-5.83-2.043-10.7-6.07-14.726-1.263-1.262-2.585-2.284-3.967-3.186-.54-.42-.902-.962-1.082-1.623-.18-.66-.12-1.322.24-1.923.42-.6.962-.962 1.744-1.142.66-.18 1.26-.06 1.862.36 1.683 1.023 3.306 2.345 4.81 3.848 5.048 5.048 7.572 11.18 7.572 18.392v50.91c0 5.71 2.044 10.577 6.13 14.724 4.03 4.027 8.956 6.07 14.787 6.07H299.3c5.77 0 10.7-2.043 14.847-6.07v-.06c3.427-3.486 5.41-7.573 6.01-12.26.062-.542.062-1.144.062-1.684V57.228c0-5.83-2.044-10.76-6.072-14.786-4.147-4.087-9.076-6.07-14.786-6.01h-.12c-5.77-.06-10.64 1.923-14.666 6.01l-.06.12c-4.087 4.027-6.13 8.896-6.13 14.666v19.294c-.06.48 0 .96.06 1.502.06.06.06.18.06.24.18 1.624.48 3.126 1.02 4.57.06.18.12.3.182.48.12.24.24.48.36.78.3.662.3 1.323.12 1.984-.24.66-.66 1.142-1.322 1.503-.66.302-1.263.302-1.924.12-.66-.24-1.14-.66-1.442-1.26-.3-.542-.48-1.143-.66-1.684-.12-.18-.18-.36-.18-.54-.662-1.744-1.084-3.487-1.263-5.35v-.12l.06.12c-.18-.782-.24-1.563-.24-2.344V57.228c0-7.152 2.584-13.284 7.692-18.332l.06-.06c4.99-5.11 11.12-7.573 18.273-7.513h.12c7.153-.06 13.223 2.464 18.332 7.573 5.048 5.048 7.573 11.18 7.633 18.332v19.294c0 .72 0 1.442-.06 2.164v.12zm-93.584 0c-.72 5.83-3.245 10.94-7.51 15.326l-.06.06c-5.11 4.99-11.3 7.513-18.454 7.513-4.268 0-8.114-.9-11.66-2.704h-.12c-1.443-.72-2.825-1.622-4.148-2.704-.54-.42-.9-1.022-1.02-1.743-.062-.66.18-1.262.6-1.803.48-.6 1.082-.962 1.803-1.022.662-.06 1.323.12 1.864.6 1.022.842 2.104 1.564 3.246 2.105h.06c2.825 1.443 5.95 2.164 9.376 2.164 5.77 0 10.698-2.044 14.846-6.07l.06-.06c3.426-3.487 5.41-7.574 6.01-12.262.06-.54.06-1.143.06-1.683V57.228c0-5.83-2.043-10.76-6.07-14.786-4.147-4.087-9.076-6.07-14.846-6.01h-.12c-5.71-.06-10.64 1.923-14.666 6.01l-.06.12c-4.087 4.027-6.13 8.896-6.13 14.666v19.294c0 .72 0 1.442-.06 2.164v.12c-.662 5.83-3.186 10.94-7.454 15.326l-.06.06c-5.11 4.99-11.3 7.513-18.452 7.513-7.213 0-13.343-2.524-18.392-7.573-4.327-4.387-6.852-9.436-7.513-15.266v-.12l.06.12c-.18-.782-.24-1.563-.24-2.344V57.228c0-7.152 2.583-13.284 7.692-18.332v-.06c5.05-5.05 11.18-7.573 18.332-7.513h.12c1.984-.06 3.967.12 5.83.6.662.12 1.203.48 1.563 1.083.42.6.54 1.262.36 1.923-.18.66-.54 1.2-1.14 1.622-.663.36-1.324.48-1.985.3-1.502-.36-3.005-.48-4.568-.42h-.12c-5.77-.06-10.698 1.923-14.725 6.01l-.062.12c-4.087 4.027-6.13 8.896-6.13 14.666v19.294c-.06.48 0 .96.12 1.502v.24c.54 4.69 2.524 8.776 6.01 12.262 4.027 4.027 8.956 6.07 14.786 6.07 5.71 0 10.64-2.043 14.786-6.07l.06-.06c3.426-3.486 5.41-7.573 5.95-12.26.06-.542.06-1.144.06-1.684V57.228c0-7.152 2.585-13.284 7.694-18.332l.06-.06c4.99-5.11 11.12-7.573 18.272-7.513h.12c7.153-.06 13.283 2.464 18.393 7.573 5.048 5.048 7.57 11.18 7.63 18.332v19.294c0 .72 0 1.442-.06 2.164v.12zM97.83 93.47c-7.153 2.947-17.13 6.132-29.933 9.558-12.8 3.426-23.08 5.65-30.713 6.67-4.688.663-8.835-.058-12.502-2.162-1.562-.902-2.945-2.044-4.147-3.306 3.005 1.202 6.37 1.864 10.037 1.923 1.383-.06 2.946-.24 4.748-.66 6.492-1.383 15.748-6.552 27.77-15.508C73.845 81.87 82.74 75.44 89.652 70.69c.782-.54 1.503-1.02 2.224-1.56 4.87-3.307 10.338-4.87 16.47-4.63.6 3.006 1.08 5.77 1.382 8.295.66 4.628-.122 8.836-2.225 12.502-2.104 3.666-5.29 6.372-9.677 8.174zm-2.164-39.488c-2.885.18-6.19.962-9.857 2.344-4.99 1.744-10.76 4.628-17.25 8.655-11.6 7.094-20.496 10.76-26.687 11.06-2.585.06-4.748-.78-6.552-2.403-1.982-1.383-2.944-3.306-2.944-5.71-.18-3.787 1.262-7.273 4.327-10.46 2.886-3.305 6.312-5.107 10.22-5.348 1.62-.122 3.185.24 4.687 1.08 1.382.843 2.224 2.104 2.404 3.848l-.24 2.764c-.18.602-.3 1.142-.36 1.623-.18.54-.24.902-.18 1.202.06 1.082.6 1.863 1.623 2.404.902.482 1.983.723 3.125.723 5.59-.42 10.7-4.268 15.207-11.6 3.967-6.672 5.41-12.442 4.387-17.43-1.262-5.77-4.567-10.1-9.917-12.924-5.11-2.825-10.88-3.847-17.37-3.126-2.284.24-4.508.66-6.612 1.262-.3.06-.6.12-.78.24-8.716 2.225-16.59 7.033-23.562 14.546C12.24 44.125 7.49 52.18 5.147 60.954c-2.465-9.677-4.087-17.61-4.93-23.8-.66-4.75.12-8.897 2.225-12.503 2.105-3.665 5.35-6.43 9.738-8.173 7.153-2.945 17.13-6.07 29.933-9.497 7.453-2.044 14.065-3.666 19.775-4.808C65.972 1.27 69.638.67 72.825.248c4.507-.66 8.474 0 12.02 1.924.18.06.3.18.48.24 3.667 2.104 6.372 5.35 8.175 9.737 2.885 7.03 6.01 16.89 9.437 29.51-1.142-.06-2.284-.06-3.486.12-2.885.3-5.108.903-6.67 1.924-1.624 1.022-2.345 2.525-2.285 4.63.06 2.102 1.082 2.884 3.186 2.403 1.984-.54 4.268-.782 6.852-.782 1.624 0 3.186.18 4.69.54.42 1.624.78 3.247 1.14 4.81-3.005-1.143-6.55-1.623-10.698-1.323z" class="cls-2" fill-rule="evenodd"/></svg>