<svg xmlns="http://www.w3.org/2000/svg" preserveAspectRatio="xMidYMid" width="478" height="166" viewBox="0 0 478 166"><path d="M475.978 52.154c-4.492 6.36-15.647 14.82-22.97 5.517-2.864 3.763-6.206 7.396-9.25 9.232-13.376 8.524-24.13-3.802-25.097-9.155-4.895 3.38-10.925 4.715-15.7-.936-2.727 3.85-5.934 7.6-8.924 9.542-13.093 8.974-24.236-3.007-25.388-8.29-4.773 3.534-10.748 5.06-15.708-.41-2.597 3.944-5.68 7.794-8.593 9.835-8.97 6.617-15.745 2.71-17.86 1.118-1.606-1.118-5.657-2.843-7.393-7.15-9.246 10.666-20.32 13.006-25.824 9.472-10.14-6.686-1.217-23.938 5.778-36.475-2.41-.064-4.993-.708-7.546-2.673-3.22 7.177-10.167 19.14-13.73 24.797-9.846 17.755-29.53 23.26-35.04 19.02-14.823-11.216-7.514-22.097-1.01-33.744.84-1.475 2.11-3.58 3.554-6.06-3.577.595-7.19 1.216-10.853 1.86-1.606.338-1.545-7.085.827-7.752 5.027-1.052 10.067-1.854 15.112-2.562l1.81-2.983C256.688 16.78 265.73 1.43 266.04.915c2.42-3.39 9.905 3.538 8.832 5.936-.595 1.277-7.21 12.796-9.558 16.896l-1.11 1.92c3.687-.37 7.378-.703 11.072-1.007 4.04-.258.28 7.33-3.292 7.803-4.022.24-8.2.696-12.44 1.235-4.358 7.377-8.57 14.794-9.694 16.584-4.292 7.43-7.895 17.93-5.283 19.826 3.195 2.294 13.326.147 24.7-15.65 9.21-13.155 11.745-21.75 13.47-27.073-1.68-1.556-2.67-3.4-2.155-6.2 1.767-9.987 9.37-17.773 13.29-16.86 4.9 1.064 6.756 6.575 4.502 14.917-.37 1.468-1.04 3.68-3.228 8.283 3.188.726 7.4-2.468 11.476-5.908.507-.585 1.944-.8 3.293.597 4.63 3.855 5.278 9.214 4.648 10.46-2.55 4.4-20.756 29.56-17.27 34.223 3.465 4.64 18.77-13.73 23.78-23.395 3.692-9.717 10.112-17.28 13.783-20.82 5.32-5.026 9.382-5.552 13.926-3.235 13.15 6.756 13.565 13.695 9.91 26.56-.43 1.222-.966 2.684-1.74 4.275.534 1.3 1.182 2.47 2.04 2.79 2.475.826 7.166-2.32 12.733-11.775 4.036-9.442 10.62-16.66 14.37-20.043 5.482-4.838 9.56-5.23 14.028-2.755 12.905 7.206 13.08 14.144 8.985 26.88-.472 1.2-1.06 2.644-1.882 4.212.488 1.31 1.097 2.504 1.942 2.855 2.448.907 7.25-2.083 13.148-11.355 4.356-9.302 11.184-16.287 15.048-19.54 5.65-4.65 9.745-4.902 14.12-2.275 12.652 7.64 12.59 14.59 8.058 27.18-.51 1.187-1.152 2.603-2.035 4.14.453 1.33 1.02 2.546 1.85 2.926 2.502 1.03 7.62-1.954 14.123-11.74 1-1.656 7.36 3.193 2.495 10.37zm-132.15-22.177c-2.9 2.516-6.332 6.5-9.683 12.52-4.588 7.99-7.346 19.38-4.374 21.41 3.346 2.375 11.992-9.137 15.697-15.298.45-.738.888-1.592 1.45-2.575-1.884-4.72-3.72-11.12-3.09-16.058zm50.982-1.13c-2.982 2.417-6.556 6.29-10.106 12.18-4.86 7.828-8.012 19.12-5.11 21.248 3.263 2.486 12.296-8.722 16.212-14.748.47-.725.947-1.562 1.536-2.527-1.72-4.78-3.333-11.232-2.532-16.152zm51 .592c-3.062 2.315-6.765 6.06-10.518 11.833-5.124 7.652-8.663 18.832-5.833 21.06 3.174 2.598 12.587-8.3 16.703-14.186.504-.708 1.002-1.533 1.627-2.475-1.55-4.838-2.946-11.343-1.98-16.233zm-219.2 33.765c.208 5.29 2.976 13.508-3.34 17.106-8.565 4.862-19.39 2.642-25.61-5.13-.15-.17-.257-.31-.348-.433-8.34 8.872-20.73 15.254-32.046 10.086-3.184-1.392-5.57-2.864-7.186-5.476-7.085 11.797-15.218 14.76-20.483 12.306-2.958-1.39-4.39-3.794-5.077-6.716-5.236 9.05-11.912 15.7-21.187 9.416-2-1.375-3.465-2.9-4.515-4.58-6.007 10.936-13.524 18.66-18.906 19.998-11.422 2.832-15.66-8.704-14.163-19.58 1.47-10.486 3.986-20.74 7.147-30.914C70.09 80 58.53 100.646 45.867 119.348c-.29.322-.61.524-.81.696-2.89 1.334-11.1-1.322-10.454-4.197 3.597-14.35 7.578-28.674 11.56-42.995-9.754 18.963-20.182 37.233-32.254 55.295-1.52 2.35-10.98-1.843-10.077-5.157.613-2.004 3.832-11.937 8.074-26.202 8.944-30.13 18.38-48.395 15.144-49.945-2.883-1.416-6.97 3.474-10.256 9.003-.003.01-.01.01-.015.023-2.08 3.24-3.83.888-3.83.888-5.32-11.308 10.806-20.364 17.836-15.28 10.1 7.242 4.843 17.44 2.856 24.36-1.783 6.242-6.166 19.43-10.323 31.57 12.99-22.854 23.97-46.816 35.768-70.49 1.314-2.668 11.856.39 11.032 3.556-5.526 20.516-11.495 40.77-17.02 61.274 15.32-25.407 30.036-53.763 42.328-78.42 1.428-2.697 11.997.485 11.062 3.68-5.526 20.012-12.633 39.68-17.986 59.904-1.958 7.52-8.947 28.15-2.656 26.586.704-.17 2.568-.138 7.323-7.863 5.14-8.26 10.467-16.687 14.308-25.58 3.242-9.19 8.024-19.024 15.998-25.225 6.736-5.148 17.528 1.457 18.217 4.452 3.412.568 7.396 3.463 6.625 5.2-.79 1.615-3.66 7.04-6.118 13.362-2.91 7.15-6.05 16.9-2.18 18.6 3.162 1.396 11.485-12.054 16.316-21.934 2.263-12.712 11.26-28.8 19.513-32.527 1.823-.777 4.748-1.48 7.542.018 10.16 5.067 11.02 8.21 9.282 16.364-2.504 11.074-9.068 19.504-17.206 22.61-2.99 1.077-6.86-1.1-9.176-2.673-.953 5.482.01 10.788 2.507 11.973 5.947 2.76 19.15-4.584 28.83-20.057 8.28-14.55 16.758-33.708 20.315-39.254 1.7-2.76 7.027-.913 9.984 1.357 2.137 1.538 3.74 3.626 2.442 5.726-8.34 14.005-4.44 22.564-3.762 35.16zM133.58 50.95c-2.324-1.264-9.887 7.745-15.22 20.106-3.58 8.13-6.907 18.16-5.27 19.677 1.33 1.208 6.686-2.744 15.66-19.706l1.536-3.464c2.234-5.55 5.376-15.297 3.295-16.614zm35.025 14.315c1.93.66 6.238-4.382 9.8-10.28 4.72-7.78 6.18-14.683 5.116-15.24-1.195-.66-6.83 5.202-12.353 16.382-2.406 4.75-3.723 8.716-2.562 9.138zm47.038-9.092c-.06-2.287-.235-4.557-.275-6.727-4.398 7.096-8.52 13.548-12.425 18.89 1.67 3.533 3.902 8.552 7.74 8.295 5.66-.25 5.485-10.857 4.96-20.457zm250.364 31.68c4.02.466-1.035 7.265-4.635 7.095-151.204-9.2-308.102 16.506-456.02 70.48-3.384 1.104-7.51-8.982-3.996-10.198l.044-.012c154.215-55.152 317.703-77.51 464.607-67.364z" id="path-1" class="cls-2" fill-rule="evenodd"/></svg>