<svg width="380" height="140" viewBox="0 0 380 140" xmlns="http://www.w3.org/2000/svg"><g fill="#333"><path d="M368.7.9v30.6c0 18.7-28.7 18.7-28.7 0V.9h-4.5v30.6c0 24.4 37.5 24.5 37.5 0V.9h-4.3zM364 31V.9h-4.5V31c0 7.1-10.3 7.1-10.3 0V.9h-4.5V31c0 13 19.3 13 19.3 0zM37 49.9h4.5V.9H37v49zm-36.4 0H5V.9H.6v49zm8.9 0H14V27l14.5 22.9h5.4L9.5 10.7v39.2zm23-49H28v22.9L13.5.9H8.1l24.4 39.3V.9zm214.2 31.2h7.8v-4.5h-12.3v13.3h16.4v-4.5h-11.9v-4.3zm-13.4 17.8h25.3v-4.5h-20.8V5.3h20.8V.8h-25.3v49.1zm8.9-26.8h12.3v-4.5h-7.8v-4.5h11.9V9.7h-16.4v13.4zm-90 8.3c0 18.7-28.7 18.7-28.7 0V.8H119v30.6c0 24.4 37.5 24.5 37.5 0V.8h-4.4v30.6h.1zm-4.7-.5V.8H143v30.1c0 7.1-10.4 7.1-10.4 0V.8h-4.5v30.1c.1 13 19.4 13 19.4 0zm-52.9 90c0 18.7-28.7 18.7-28.7 0V90.3h-4.5v30.6c0 24.4 37.5 24.5 37.5 0V90.3h-4.4v30.6h.1zm-24-30.6v30.1c0 13 19.3 13 19.3 0V90.3h-4.5v30.1c0 7.1-10.4 7.1-10.4 0V90.3h-4.4z" id="Shape"/><path id="Rectangle-path" d="M37.7 78h4.5v49h-4.5zM1.2 78h4.4v49H1.2z"/><path d="M10.2 127h4.4v-22.9L29.1 127h5.4L10.2 87.9zm23-49h-4.5v23L14.2 78H8.8l24.4 39.3zm213.5 31.2h7.8v-4.5h-12.3v13.4h16.5v-4.5h-12zM233.3 127h25.4v-4.5h-20.9v-40h20.9V78h-25.4zm8.9-26.7h12.3v-4.5h-7.8v-4.4h12V87h-16.5zM113.3 78h4.5v48.9h-4.5zm44.7 0h4.5v48.9H158zM138 110.1h-.1l-15.5-22.3v39.1h4.6v-24.7l10.9 15.8h.1l11-15.8v24.7h4.5V87.8zm0-15.8h-.1L126.6 78h-5.5l16.8 24v.1h.1v-.1l16.8-24h-5.5zm154.5 12.1v4.4h3.5c3.7 0 6.8-2.9 6.8-6.6 0-3.4-2.7-6.8-6.8-6.8h-7.9v4.5h7.9c1.3 0 2.3.9 2.3 2.3.1 2.5-3.7 2.2-5.8 2.2zm-6.6 31.1h4.5v-9.8l6.9 9.8h5.5l-16.9-23.9zm21.8-22.4c9.6-9.9 2.7-26.6-11-26.6h-19.8v49h4.5V93h15.4c3 0 5.7 1.2 7.7 3.2 6.8 6.9 2.1 18.9-7.6 19h-4.5l15.7 22.3h5.4l-12.9-18.3c2.8-.7 5.2-2.2 7.1-4.1zm59.6 5.2c-3.5 2.5-7.8 4-12.6 4-27.8 0-27.8-41.7 0-41.7 4.7 0 9.1 1.5 12.6 4 3.7 2.7 6.4 6.3 7.7 10.6l4.3-1.3c-1.7-5.3-5-9.7-9.4-12.9-4.3-3.1-9.5-4.9-15.3-4.9-33.9 0-33.9 50.8 0 50.8 5.8 0 11-1.9 15.3-4.9 4.3-3.1 7.7-7.7 9.4-12.9l-4.3-1.4c-1.4 4.3-4 8-7.7 10.6zm-12.6-5.2c-2.1 0-4-.6-5.6-1.6-1.7-.9-3.2-2.5-4.3-4.2l-3.9 2.2c1.4 2.5 3.4 4.5 5.8 6 2.4 1.3 5.1 2.1 7.9 2.1 4.5 0 8.5-1.8 11.4-4.8 2.8-2.9 4.6-6.9 4.6-11.4s-1.8-8.5-4.6-11.4c-2.9-2.9-6.9-4.7-11.4-4.7-2.8 0-5.5.7-7.9 2.1-2.4 1.4-4.4 3.5-5.8 5.9l3.9 2.2c1.1-1.7 2.5-3.2 4.3-4.2 1.7-1 3.5-1.5 5.6-1.5 3.2 0 6.1 1.3 8.1 3.4 2.1 2.1 3.4 5 3.4 8.2 0 3.3-1.3 6.2-3.4 8.3-2 2.1-4.9 3.4-8.1 3.4zM105.3 30.9c-1.7-5.3-5-9.7-9.4-12.9-4.3-3.1-9.5-4.9-15.3-4.9-33.9 0-33.9 50.9 0 50.9 5.8 0 11-1.9 15.3-4.9 4.3-3.1 7.7-7.7 9.4-12.9l-4.3-1.4c-1.4 4.3-4.1 8-7.7 10.6-3.5 2.5-7.8 4-12.6 4-27.8 0-27.8-41.7 0-41.7 4.7 0 9.1 1.5 12.6 4 3.7 2.7 6.4 6.3 7.7 10.6l4.3-1.4zM80.6 50.2c-2.1 0-4-.6-5.6-1.6-1.7-.9-3.2-2.5-4.3-4.2l-3.9 2.2c1.4 2.5 3.4 4.5 5.8 6 2.4 1.3 5.1 2.1 7.9 2.1 4.5 0 8.5-1.8 11.4-4.8 2.8-2.9 4.6-6.9 4.6-11.4s-1.8-8.5-4.6-11.4c-2.9-2.9-6.9-4.7-11.4-4.7-2.8 0-5.5.7-7.9 2.1-2.4 1.4-4.4 3.5-5.8 5.9l3.9 2.2c1.1-1.7 2.5-3.2 4.3-4.2 1.7-1 3.5-1.5 5.6-1.5 3.2 0 6.1 1.3 8.1 3.4 2.1 2.1 3.4 5 3.4 8.2 0 3.3-1.3 6.2-3.4 8.3-2 2.1-4.9 3.4-8.1 3.4zm116.7 10.1l20.4-49H213l-18 43-17.6-43h-4.8l20 49zm9.9-49h-4.8L195 29.5l-7.4-18.2H183l11.9 30.1zm85.8 0l-19.5 49h4.8L295.1 18l16.8 42.3h4.8l-19.5-49zm-9.5 49h4.7l1.5-4.4h10.8l1.7 4.4h4.8l-3.5-9h-16.4zm5.3-13.4h12.9l-1.3-3.1-5.2-12.9-2.4 6 2.2 5.6h-4.4zM195.234 97.663l7.14 7.14-7.14 7.142-7.14-7.14z"/></g></svg>