<svg baseProfile="tiny" xmlns="http://www.w3.org/2000/svg" viewBox="0 0 400 200"><g fill="#333"><path d="M378.7 30.9v30.6c0 18.7-28.7 18.7-28.7 0V30.9h-4.5v30.6c0 24.4 37.5 24.5 37.5 0V30.9h-4.3zM374 61V30.9h-4.5V61c0 7.1-10.3 7.1-10.3 0V30.9h-4.5V61c0 13 19.3 13 19.3 0zM47 79.9h4.5v-49H47v49zm-36.4 0H15v-49h-4.4v49zm8.9 0H24V57l14.5 22.9h5.4L19.5 40.7v39.2zm23-49H38v22.9L23.5 30.9h-5.4l24.4 39.3V30.9zm214.2 31.2h7.8v-4.5h-12.3v13.3h16.4v-4.5h-11.9v-4.3zm-13.4 17.8h25.3v-4.5h-20.8V35.3h20.8v-4.5h-25.3v49.1zm8.9-26.8h12.3v-4.5h-7.8v-4.5h11.9v-4.4h-16.4v13.4zm-90 8.3c0 18.7-28.7 18.7-28.7 0V30.8H129v30.6c0 24.4 37.5 24.5 37.5 0V30.8h-4.4v30.6zm-4.7-.5V30.8H153v30.1c0 7.1-10.4 7.1-10.4 0V30.8h-4.5v30.1c.1 13 19.4 13 19.4 0zM104.6 150.9c0 18.7-28.7 18.7-28.7 0v-30.6h-4.5v30.6c0 24.4 37.5 24.5 37.5 0v-30.6h-4.4v30.6z"/><path d="M80.6 120.3v30.1c0 13 19.3 13 19.3 0v-30.1h-4.5v30.1c0 7.1-10.4 7.1-10.4 0v-30.1h-4.4zM47.7 108h4.5v49h-4.5zM11.2 108h4.4v49h-4.4zM20.2 157h4.4v-22.9L39.1 157h5.4l-24.3-39.1M43.2 108h-4.5v23l-14.5-23h-5.4l24.4 39.3M256.7 139.2h7.8v-4.5h-12.3v13.4h16.5v-4.5h-12"/><path d="M243.3 157h25.4v-4.5h-20.9v-40h20.9V108h-25.4"/><path d="M252.2 130.3h12.3v-4.5h-7.8v-4.4h12V117h-16.5M123.3 108h4.5v48.9h-4.5zM168 108h4.5v48.9H168zM148 140.1h-.1l-15.5-22.3v39.1h4.6v-24.7l10.9 15.8h.1l11-15.8v24.7h4.5v-39.1L148 140.1"/><path d="M148 124.3h-.1L136.6 108h-5.5l16.8 24v.1h.1v-.1l16.8-24h-5.5M302.5 136.4v4.4h3.5c3.7 0 6.8-2.9 6.8-6.6 0-3.4-2.7-6.8-6.8-6.8h-7.9v4.5h7.9c1.3 0 2.3.9 2.3 2.3.1 2.5-3.7 2.2-5.8 2.2zM295.9 167.5h4.5v-9.8l6.9 9.8h5.5l-16.9-23.9"/><path d="M317.7 145.1c9.6-9.9 2.7-26.6-11-26.6h-19.8v49h4.5V123h15.4c3 0 5.7 1.2 7.7 3.2 6.8 6.9 2.1 18.9-7.6 19h-4.5l15.7 22.3h5.4l-12.9-18.3c2.8-.7 5.2-2.2 7.1-4.1zM377.3 150.3c-3.5 2.5-7.8 4-12.6 4-27.8 0-27.8-41.7 0-41.7 4.7 0 9.1 1.5 12.6 4 3.7 2.7 6.4 6.3 7.7 10.6l4.3-1.3c-1.7-5.3-5-9.7-9.4-12.9-4.3-3.1-9.5-4.9-15.3-4.9-33.9 0-33.9 50.8 0 50.8 5.8 0 11-1.9 15.3-4.9 4.3-3.1 7.7-7.7 9.4-12.9l-4.3-1.4c-1.4 4.3-4 8-7.7 10.6z"/><path d="M364.7 145.1c-2.1 0-4-.6-5.6-1.6-1.7-.9-3.2-2.5-4.3-4.2l-3.9 2.2c1.4 2.5 3.4 4.5 5.8 6 2.4 1.3 5.1 2.1 7.9 2.1 4.5 0 8.5-1.8 11.4-4.8 2.8-2.9 4.6-6.9 4.6-11.4s-1.8-8.5-4.6-11.4c-2.9-2.9-6.9-4.7-11.4-4.7-2.8 0-5.5.7-7.9 2.1-2.4 1.4-4.4 3.5-5.8 5.9l3.9 2.2c1.1-1.7 2.5-3.2 4.3-4.2 1.7-1 3.5-1.5 5.6-1.5 3.2 0 6.1 1.3 8.1 3.4 2.1 2.1 3.4 5 3.4 8.2 0 3.3-1.3 6.2-3.4 8.3-2 2.1-4.9 3.4-8.1 3.4zM115.3 60.9c-1.7-5.3-5-9.7-9.4-12.9-4.3-3.1-9.5-4.9-15.3-4.9-33.9 0-33.9 50.9 0 50.9 5.8 0 11-1.9 15.3-4.9 4.3-3.1 7.7-7.7 9.4-12.9l-4.3-1.4c-1.4 4.3-4.1 8-7.7 10.6-3.5 2.5-7.8 4-12.6 4-27.8 0-27.8-41.7 0-41.7 4.7 0 9.1 1.5 12.6 4 3.7 2.7 6.4 6.3 7.7 10.6l4.3-1.4z"/><path d="M90.6 80.2c-2.1 0-4-.6-5.6-1.6-1.7-.9-3.2-2.5-4.3-4.2l-3.9 2.2c1.4 2.5 3.4 4.5 5.8 6 2.4 1.3 5.1 2.1 7.9 2.1 4.5 0 8.5-1.8 11.4-4.8 2.8-2.9 4.6-6.9 4.6-11.4s-1.8-8.5-4.6-11.4c-2.9-2.9-6.9-4.7-11.4-4.7-2.8 0-5.5.7-7.9 2.1-2.4 1.4-4.4 3.5-5.8 5.9l3.9 2.2c1.1-1.7 2.5-3.2 4.3-4.2 1.7-1 3.5-1.5 5.6-1.5 3.2 0 6.1 1.3 8.1 3.4 2.1 2.1 3.4 5 3.4 8.2 0 3.3-1.3 6.2-3.4 8.3-2 2.1-4.9 3.4-8.1 3.4zM207.3 90.3l20.4-49H223l-18 43-17.6-43h-4.8l20 49"/><path d="M217.2 41.3h-4.8L205 59.5l-7.4-18.2H193l11.9 30.1M303 41.3l-19.5 49h4.8L305.1 48l16.8 42.3h4.8l-19.5-49M293.5 90.3h4.7l1.5-4.4h10.8l1.7 4.4h4.8l-3.5-9h-16.4M298.8 76.9h12.9l-1.3-3.1-5.2-12.9-2.4 6 2.2 5.6h-4.4M205.234 127.662l7.143 7.14-7.142 7.144-7.143-7.142z"/></g></svg>