<svg xmlns="http://www.w3.org/2000/svg" preserveAspectRatio="xMidYMid" width="1770" height="989" viewBox="0 0 1770 989"><path fill="#333" d="M1753.837 453.592h-.29c-7.936 0-14.368-6.434-14.368-14.37V165.73c0-35.096-12.828-65.722-38.133-91.027-25.31-25.305-55.93-38.137-91.008-38.137-35.562 0-66.297 12.714-91.366 37.788-25.065 25.075-37.778 55.814-37.778 91.378v273.495c0 7.935-6.428 14.37-14.37 14.37h-.292c-7.934 0-14.37-6.435-14.37-14.37V165.678c0-43.644 15.542-81.31 46.192-111.947 30.66-30.65 68.33-46.19 111.983-46.19 43.184 0 80.747 15.658 111.63 46.54 30.88 30.878 46.536 68.426 46.536 111.598v273.545c0 7.935-6.432 14.37-14.37 14.37zm-236.408 268.72h.43V592.58h14.02v151.085h-17.043l-59.958-129.33h-.432v129.33h-14.02V592.58h17.47l59.53 129.733zm-72.054 184.303h.31l42.065-54.38h11.644l-34.462 43.94 36.17 64.822h-10.866l-31.82-57.14-13.04 15.956v41.184h-10.094V852.234h10.094v54.38zM1344.88 592.58h73.332v11.68H1358.9v54.394h53.92v11.685h-53.92v61.64h60.39v11.685h-74.41V592.58zm-184.89-131.114c-127.468 0-230.798-103.302-230.798-230.733C929.192 103.305 1032.522 0 1159.99 0c127.467 0 230.793 103.305 230.793 230.733 0 127.43-103.326 230.733-230.793 230.733zm10.382-433.786c-105.796 0-191.56 85.74-191.56 191.506 0 105.762 85.764 191.502 191.56 191.502 105.79 0 191.555-85.74 191.555-191.502 0-105.766-85.764-191.506-191.555-191.506zM929.896 636.09c-1.294-17.93-8.625-35.454-30.407-35.454-34.08 0-32.787 45.93-32.787 66.278 0 23.166-1.294 68.694 34.292 68.694 24.157 0 29.55-24.578 30.194-43.112h14.023c.647 25.786-13.373 54.797-45.724 54.797-46.806 0-46.806-51.372-46.806-83.4 0-31.025 4.314-74.942 47.237-74.942 29.113 0 43.783 21.557 44 47.14h-14.024zM628.5 461.465c-127.466 0-230.8-103.302-230.8-230.733C397.7 103.305 501.033 0 628.5 0c127.464 0 230.795 103.305 230.795 230.733 0 127.43-103.33 230.733-230.794 230.733zM618.12 27.68c-105.793 0-191.56 85.74-191.56 191.506 0 105.762 85.767 191.502 191.56 191.502 105.79 0 191.554-85.74 191.554-191.502 0-105.766-85.764-191.506-191.555-191.506zM402.114 724.326L441.37 592.58h22.862v151.085h-14.02V605.67h-.43l-40.118 137.995h-14.882L354.234 605.67h-.432v137.995h-14.02V592.58h23.512l38.39 131.746h.43zM122.67 217.588h91.322c32.477 0 60.71 11.644 83.928 34.607 23.206 22.97 34.97 51.083 34.97 83.563 0 32.485-11.813 60.6-35.124 83.564-23.295 22.964-51.66 34.604-84.287 34.604H18.046c-7.9 0-14.304-6.402-14.304-14.3v-.293c0-7.9 6.403-14.3 14.304-14.3h195.497c24.556 0 45.996-8.83 63.726-26.25 17.73-17.407 26.724-38.613 26.724-63.025 0-24.406-8.95-45.612-26.598-63.032-17.66-17.416-39-26.245-63.43-26.245h-91.323c-32.494 0-60.732-11.652-83.93-34.635-23.205-22.97-34.97-51.34-34.97-84.308 0-32.5 11.814-60.633 35.125-83.62C62.172 20.932 90.535 9.28 123.155 9.28h195.432c7.9 0 14.304 6.406 14.304 14.305v.288c0 7.9-6.402 14.3-14.303 14.3H123.094c-24.552 0-45.996 8.842-63.734 26.278-17.725 17.425-26.716 38.65-26.716 63.087 0 24.444 8.95 45.788 26.602 63.44 17.648 17.66 38.987 26.61 63.425 26.61zM76.21 604.26H16.9v54.394h53.92v11.685h-53.92v61.64h60.39v11.685H2.88V592.58H76.21v11.68zm69.882 131.348c24.155 0 29.548-24.578 30.195-43.112h14.02c.646 25.786-13.373 54.797-45.724 54.797-46.804 0-46.804-51.372-46.804-83.4 0-31.025 4.314-74.942 47.234-74.942 29.117 0 43.783 21.557 43.998 47.14h-14.02c-1.293-17.93-8.626-35.454-30.41-35.454-34.077 0-32.784 45.93-32.784 66.278 0 23.166-1.293 68.694 34.294 68.694zm70.532-71.716c0-31.024 4.528-74.94 47.45-74.94 47.45 0 47.666 49.557 47.666 82.39 0 32.84-2.59 75.95-48.097 75.95-46.804 0-47.02-51.37-47.02-83.4zm81.097 4.43c0-22.16.217-67.686-34.293-67.686-32.568 0-32.784 44.52-32.784 66.278 0 23.166-1.294 68.694 34.294 68.694 34.078 0 32.784-45.93 32.784-67.287zm197.787 75.343V592.58h23.51l38.39 131.746h.432l39.254-131.747h22.86v151.085h-14.018V605.67h-.43l-40.118 137.995h-14.882l-40.55-137.994h-.43v137.995h-14.02zM724.35 731.98v11.685h-74.41V592.58h73.33v11.68H663.96v54.394h53.92v11.685h-53.92v61.64h60.392zm99.426-28.002c.432 7.252-.647 33.847 7.334 37.873v1.815h-15.313c-6.04-12.69-5.61-38.475-6.47-49.558-1.51-20.145-17.686-21.556-36.02-21.556h-14.45v71.115h-14.02V592.58h31.273c29.55 0 49.825 8.056 49.825 38.677 0 14.703-6.687 32.03-23.726 35.454v.403c18.764 4.433 21.35 17.928 21.566 36.865zm-11.86-71.716c0-22.158-10.786-28.002-32.785-28.002h-20.273v56.61h24.59c4.742 0 28.47-1.615 28.47-28.608zm235.964 99.718v11.685h-74.41V592.58h73.332v11.68H987.49v54.394h53.92v11.685h-53.92v61.64h60.39zm84.116-34.85l-13.157 46.535h-13.59l43.353-151.086h16.18l43.35 151.085H1193.9l-12.727-46.536h-49.177zm24.804-88.035h-.43l-21.355 76.35h43.136l-21.35-76.35zm56.81 304.264H0v-7.696h1213.61v7.695zm54.913-324.41c26.96 0 43.783 20.548 43.783 44.922h-13.372c-2.372-16.317-9.056-33.236-29.98-33.236-35.8 0-34.507 46.735-34.507 67.486 0 20.746.432 67.486 33.214 67.486 30.627 0 32.136-33.643 33.003-55.2h-34.727v-11.684h48.746v74.94h-11.216l-1.294-15.51h-.43c-7.983 12.892-18.984 19.14-35.16 19.14-45.507 0-46.154-51.572-46.154-82.194 0-32.232 2.372-76.15 48.095-76.15zm11.53 298.52h.31c5.28-5.51 11.333-8.552 19.25-8.552 21.733 0 23.905 26.538 23.905 41.766 0 16.093-1.71 42.343-24.682 42.343-8.38 0-14.438-2.9-18.474-9.57h-.31v7.54h-9.002V852.234h9.003v35.237zm16.61 68.163c17.54 0 17.852-22.914 17.852-34.372 0-10.874-.154-34.948-17.233-34.948-17.384 0-17.23 22.48-17.23 33.208 0 10.3-.93 36.113 16.612 36.113zm45.484-74.685l17.697 64.822h.31l18.628-64.822h9.158l-23.283 79.033c-2.327 8.41-5.277 21.756-13.507 26.685-6.363 3.335-12.73 1.594-16.765 1.594v-7.395c5.59.29 12.575.87 15.524-4.93 2.172-4.64 3.726-9.716 4.966-14.65l-22.196-80.337h9.467zm176.19 38.865c7.607-3.335 15.833-5.657 23.44-8.992 1.396-.58 2.173-2.175 2.328-3.188.622-3.34.31-10.01-.31-13.344-1.245-4.787-4.35-7.976-12.266-7.976-12.73 0-12.57 7.687-13.97 14.792h-8.695c-.463-14.068 7.917-22.186 22.82-22.186 7.143 0 13.66 1.448 17.696 6.09 3.882 4.64 4.192 10.004 4.192 15.66v49.16c0 4.788.93 5.512 6.212 5.37v6.088c-3.104 1.163-6.676 1.017-9.935.435-4.037-1.447-3.882-3.476-4.814-7.25h-.154c-4.504 5.803-11.49 8.557-18.938 8.557-15.68 0-19.406-10.005-19.406-22.622 0-9.28 2.795-16.244 11.798-20.592zm9.157 35.82c5.9 0 10.09-2.323 12.73-5.946 3.726-5.076 4.344-11.893 4.344-17.84V917.78c-5.9 3.046-11.952 5.076-17.85 7.398-9.16 3.77-11.177 7.105-11.177 16.533 0 7.83 2.64 13.923 11.954 13.923zm57.127 5.364h-9.003V852.234h9.004v108.763zm22.32-372.046c29.12 0 43.786 21.557 44.002 47.14h-14.02c-1.297-17.93-8.628-35.454-30.414-35.454-34.076 0-32.782 45.93-32.782 66.278 0 23.166-1.294 68.694 34.29 68.694 24.16 0 29.553-24.578 30.2-43.112h14.02c.646 25.786-13.373 54.797-45.728 54.797-46.8 0-46.8-51.372-46.8-83.4 0-31.025 4.31-74.942 47.23-74.942zm12.92 277.06h-10.402v-13.776h10.402v13.775zm-.777 94.987h-9.003v-80.05h9.003v80.05zm47.497-82.08c24.06 0 26.7 24.217 26.7 41.767 0 18.127-2.485 42.343-27.163 42.343-26.082 0-26.7-25.38-26.7-43.942 0-17.98 3.567-40.167 27.163-40.167zm-.622 76.716c18.165 0 18.32-22.768 18.32-34.807 0-12.47-.31-34.514-18.784-34.514-16.143 0-17.075 21.898-17.075 32.92 0 11.892-.932 36.4 17.538 36.4zm52.782-67.434h.31c3.88-5.51 9.78-9.282 17.078-9.282 23.437 0 25.768 22.91 25.768 40.025 0 17.4 0 44.084-24.995 44.084-7.603 0-13.347-2.61-17.538-8.558h-.313v34.082h-9.313V880.948h9.003v7.25zm17.388 67.433c16.92 0 16.765-23.35 16.765-33.937 0-10.875 0-35.384-16.456-35.384-18.783 0-17.697 22.044-17.697 34.225 0 12.182-.932 35.096 17.388 35.096zm-23.287-211.968v-64.26l-42.704-86.826h15.53l34.08 71.914 35.584-71.915H1770l-43.14 86.824v64.26h-14.02z" class="cls-2" fill-rule="evenodd"/></svg>