<svg xmlns="http://www.w3.org/2000/svg" preserveAspectRatio="xMidYMid" width="33" height="32" viewBox="0 0 33 32"><path d="M16.492 0C7.388 0 .005 7.313.005 16.336c0 7.217 4.724 13.34 11.276 15.5.826.15 1.126-.354 1.126-.787 0-.39-.014-1.416-.022-2.78-4.586.988-5.554-2.19-5.554-2.19C6.08 24.195 5 23.69 5 23.69c-1.498-1.012.113-.992.113-.992 1.654.116 2.525 1.684 2.525 1.684 1.47 2.496 3.86 1.775 4.8 1.357.148-1.057.574-1.777 1.045-2.185-3.66-.412-7.51-1.814-7.51-8.074 0-1.782.643-3.24 1.697-4.382-.17-.413-.735-2.074.162-4.323 0 0 1.384-.44 4.534 1.674 1.315-.363 2.726-.544 4.128-.55 1.4.006 2.81.187 4.127.55 3.15-2.115 4.53-1.675 4.53-1.675.9 2.25.335 3.91.165 4.323 1.057 1.142 1.695 2.6 1.695 4.383 0 6.277-3.855 7.658-7.528 8.062.592.505 1.12 1.502 1.12 3.025 0 2.184-.02 3.946-.02 4.482 0 .436.296.944 1.133.784C28.26 29.67 32.98 23.55 32.98 16.336 32.98 7.313 25.6 0 16.493 0z" id="path-1" class="cls-2" fill-rule="evenodd"/></svg>