<svg xmlns="http://www.w3.org/2000/svg" preserveAspectRatio="xMidYMid" width="64" height="64" viewBox="0 0 64 64"><path d="M56 64H8c-4.418 0-8-3.582-8-8V8c0-4.418 3.582-8 8-8h48c4.418 0 8 3.582 8 8v48c0 4.418-3.582 8-8 8zM32 19.6c-4.99 0-9.278 2.953-11.246 7.2h-.01c-.02.044-.035.092-.056.137-.117.262-.22.532-.32.803-.05.13-.1.258-.144.39-.09.277-.166.562-.238.848-.033.134-.073.265-.103.4-.065.303-.11.61-.153.92-.017.126-.043.248-.057.375-.046.436-.073.878-.073 1.327 0 6.848 5.552 12.4 12.4 12.4 6.848 0 12.4-5.552 12.4-12.4 0-.45-.027-.89-.073-1.327-.014-.127-.04-.25-.057-.374-.043-.31-.088-.62-.153-.92-.03-.137-.07-.268-.103-.402-.072-.286-.147-.57-.238-.85-.044-.13-.095-.258-.143-.388-.1-.27-.204-.54-.32-.803-.022-.045-.036-.093-.056-.137h-.01c-1.97-4.247-6.258-7.2-11.247-7.2zm24.8-9.2c0-1.767-1.433-3.2-3.2-3.2h-6.4c-1.767 0-3.2 1.433-3.2 3.2v6.4c0 1.767 1.433 3.2 3.2 3.2h6.4c1.767 0 3.2-1.433 3.2-3.2v-6.4zm0 16.4h-5.9c.456 1.656.7 3.4.7 5.2 0 10.825-8.775 19.6-19.6 19.6-10.825 0-19.6-8.775-19.6-19.6 0-1.8.244-3.544.7-5.2H7.2v26.8c0 1.767 1.433 3.2 3.2 3.2h43.2c1.767 0 3.2-1.433 3.2-3.2V26.8z" class="cls-2" fill-rule="evenodd"/></svg>