<svg height="500" viewBox="0 0 500 500" width="500" xmlns="http://www.w3.org/2000/svg"><path clip-rule="evenodd" d="M31.95 403.452c0 35.164 28.434 63.6 63.598 63.6 17.53 0 33.89-6.638 45.426-18.173l115.93-116.02 31.072 31.072c-4.182 15.265-.18 32.345 11.905 44.518l45.064 45.063c17.985 17.9 46.782 18.08 64.504.362 17.72-17.72 17.54-46.51-.366-64.504L364.02 344.31c-12.175-12.085-29.255-16.078-44.515-11.898l-31.072-30.99 19.983-19.984c42.516 10.722 89.397-.46 122.563-32.888 22.802-22.35 35.35-50.698 37.07-80.04v-1.543c0-9.91-8.182-17.905-18.26-17.905-5.002 0-9.545 2.006-12.908 5.18l-5.353 5.272-18.357 17.985c-11.543 11.268-27.984 17.896-45.7 17.896-17.623 0-33.166-7.718-44.702-19.076-11.354-11.533-19.165-27.167-19.165-44.788 0-17.718 6.63-34.16 17.897-45.703l17.985-18.358 5.27-5.352c3.18-3.363 5.18-7.906 5.18-12.91 0-10.08-7.992-18.26-17.904-18.26h-1.544c-29.34 1.72-57.688 14.268-80.04 37.07-32.43 33.166-43.52 80.048-32.8 122.478l-20.07 20.07-83.863-83.944v-22.988L59.205 76.376 31.95 103.632l27.255 54.513h22.89l83.952 83.863L50.12 358.026c-11.534 11.535-18.17 27.897-18.17 45.426zm45.425-4.543c0-12.537 10.177-22.712 22.714-22.712 12.537 0 22.712 10.175 22.712 22.71s-10.175 22.717-22.713 22.717c-12.537 0-22.715-10.18-22.715-22.716z" fill="#010101" fill-rule="evenodd"/></svg>