<svg xmlns="http://www.w3.org/2000/svg" preserveAspectRatio="xMidYMid" width="64" height="53" viewBox="0 0 64 53"><path d="M43.53.01c5.087-.09 7.794 1.773 10.38 4.145 2.195-.19 5.047-1.424 6.727-2.282l1.633-.9c-.96 2.61-2.26 4.652-4.26 6.203-.444.344-.885.81-1.44 1.028v.032c2.848-.03 5.198-1.323 7.43-2.024v.032c-1.172 1.875-2.76 3.777-4.452 5.142-.684.546-1.367 1.092-2.05 1.64.037 3.035-.045 5.93-.61 8.483-3.278 14.83-11.967 24.898-25.72 29.21-4.94 1.55-12.92 2.186-18.58.772-2.806-.7-5.34-1.492-7.72-2.538-1.32-.582-2.544-1.21-3.715-1.93-.384-.234-.77-.47-1.153-.706 1.276.04 2.77.393 4.196.16 1.29-.21 2.557-.154 3.748-.417 2.97-.654 5.607-1.522 7.88-2.86 1.1-.647 2.773-1.41 3.555-2.345-1.476.027-2.813-.318-3.908-.707-4.248-1.51-6.72-4.283-8.33-8.452 1.288.14 4.996.48 5.863-.257-1.62-.09-3.18-1.035-4.292-1.736-3.417-2.152-6.203-5.76-6.182-11.312l1.346.642c.858.364 1.73.56 2.755.77.433.09 1.298.347 1.794.162H8.36c-.66-.774-1.738-1.29-2.402-2.12C3.766 15.102 1.71 10.883 3.01 5.857c.33-1.275.853-2.4 1.41-3.44l.064.034c.256.537.825.932 1.186 1.38 1.12 1.397 2.5 2.654 3.908 3.76 4.794 3.775 9.112 6.094 16.048 7.81 1.76.436 3.792.77 5.894.772-.59-1.73-.4-4.528.064-6.203 1.168-4.208 3.707-7.242 7.43-8.868.892-.39 1.88-.672 2.916-.9.534-.064 1.068-.13 1.6-.193z" class="cls-2" fill-rule="evenodd"/></svg>