<svg xmlns="http://www.w3.org/2000/svg" xmlns:xlink="http://www.w3.org/1999/xlink" preserveAspectRatio="xMidYMid" width="982.2" height="142.8" viewBox="0 0 982.2 142.8">
    <path d="M84.6 67.4c8.8-7.1 13.2-16.4 13.2-28 0-11.5-4.1-20.9-12.3-28.3C77.3 3.7 67.2 0 55.2 0H0v140h59.4c12.3 0 22.6-3.8 31-11.4 8.4-7.6 12.6-17.3 12.6-29.2 0-14.3-6.1-24.9-18.4-32zm-57-41.6h27.6c4.4 0 8 1.5 10.8 4.4 2.8 2.9 4.2 6.6 4.2 11s-1.4 8.1-4.3 11c-2.9 2.9-6.4 4.4-10.7 4.4H27.6V25.8zM71 109.5c-3.1 3.1-6.9 4.7-11.6 4.7H27.6v-33h31.8c4.7 0 8.5 1.6 11.6 4.7 3.1 3.1 4.6 7 4.6 11.7 0 4.8-1.5 8.8-4.6 11.9zM115.8 40h25.8v100h-25.8zm93-2.8c-15.5 0-28.1 5-38 15.1C160.9 62.4 156 74.9 156 90c0 15.2 5 27.8 15 37.8s23.3 15 39.8 15c19.2 0 33.7-7.1 43.6-21.4l-20.8-12c-5.1 6.7-12.5 10-22.4 10-15.3 0-24.7-6.3-28.2-18.8h75.4c.7-3.7 1-7.3 1-10.6 0-14.9-4.8-27.5-14.3-37.6-9.5-10.1-21.6-15.2-36.3-15.2zm-26.2 43.4c1.5-6.4 4.5-11.4 9-14.9s10.3-5.3 17.2-5.3c5.9 0 11.1 1.7 15.7 5s7.6 8.4 9.1 15.2h-51zM329 37.2c-13.6 0-23.5 4.7-29.8 14V40h-25.8v100h25.8V86c0-8.3 2-14.5 6-18.6 4-4.1 9.3-6.2 16-6.2 6 0 10.8 1.8 14.4 5.3 3.6 3.5 5.4 8.6 5.4 15.3V140h25.8V78.6c0-12.9-3.6-23.1-10.7-30.4-7.1-7.3-16.2-11-27.1-11zM438 140h27.6V86H520V59.6h-54.4V26.4h56V0H438zM584.2 37.2c-14.8 0-27.3 5.1-37.5 15.3-10.2 10.2-15.3 22.7-15.3 37.5s5.1 27.3 15.3 37.5c10.2 10.2 22.7 15.3 37.5 15.3s27.3-5.1 37.6-15.3c10.3-10.2 15.4-22.7 15.4-37.5s-5.1-27.3-15.4-37.5-22.8-15.3-37.6-15.3zm19.4 72.6c-5.2 5.2-11.7 7.8-19.4 7.8-7.7 0-14.2-2.6-19.3-7.8-5.1-5.2-7.7-11.8-7.7-19.8s2.6-14.6 7.7-19.8c5.1-5.2 11.6-7.8 19.3-7.8 7.7 0 14.2 2.6 19.4 7.8s7.8 11.8 7.8 19.8-2.6 14.6-7.8 19.8zM707 37.2c-13.6 0-23.5 4.7-29.8 14V40h-25.8v100h25.8V86c0-8.3 2-14.5 6-18.6 4-4.1 9.3-6.2 16-6.2 6 0 10.8 1.8 14.4 5.3 3.6 3.5 5.4 8.6 5.4 15.3V140h25.8V78.6c0-12.9-3.6-23.1-10.7-30.4-7.1-7.3-16.2-11-27.1-11zm131.6 14.6c-7.6-9.7-18.4-14.6-32.4-14.6-13.5 0-25 5.1-34.5 15.3-9.5 10.2-14.3 22.7-14.3 37.5s4.8 27.3 14.3 37.5 21 15.3 34.5 15.3c14 0 24.8-4.9 32.4-14.6V140h25.8V0h-25.8v51.8zm-7.8 58.5c-5.2 5.3-11.8 7.9-19.8 7.9s-14.6-2.6-19.9-7.9c-5.3-5.3-7.9-12-7.9-20.3s2.6-15 7.9-20.3c5.3-5.3 11.9-7.9 19.9-7.9s14.6 2.6 19.8 7.9c5.2 5.3 7.8 12 7.8 20.3s-2.6 15-7.8 20.3zM982.2 90c0-14.9-4.8-27.5-14.3-37.6-9.5-10.1-21.6-15.2-36.3-15.2-15.5 0-28.1 5-38 15.1-9.9 10.1-14.8 22.6-14.8 37.7 0 15.2 5 27.8 15 37.8s23.3 15 39.8 15c19.2 0 33.7-7.1 43.6-21.4l-20.8-12c-5.1 6.7-12.5 10-22.4 10-15.3 0-24.7-6.3-28.2-18.8h75.4c.7-3.7 1-7.3 1-10.6zm-76.8-9.4c1.5-6.4 4.5-11.4 9-14.9s10.3-5.3 17.2-5.3c5.9 0 11.1 1.7 15.7 5s7.6 8.4 9.1 15.2h-51zm-503.1-3.3c-3.4 0-6.4 1.3-8.8 3.8-2.5 2.6-3.7 5.5-3.7 8.9 0 3.4 1.2 6.4 3.7 8.8 2.5 2.5 5.4 3.7 8.8 3.7 3.5 0 6.5-1.2 9-3.7s3.7-5.4 3.7-8.8c0-3.4-1.3-6.4-3.7-8.9-2.5-2.5-5.5-3.8-9-3.8zM128.6 25.8c3.5 0 6.5-1.2 9-3.7s3.7-5.4 3.7-8.8c0-3.4-1.3-6.4-3.7-8.9-2.5-2.6-5.5-3.8-9-3.8-3.4 0-6.4 1.3-8.8 3.8-2.5 2.6-3.7 5.5-3.7 8.9 0 3.4 1.2 6.4 3.7 8.8 2.5 2.5 5.4 3.7 8.8 3.7zm802.2-.5c3.5 0 6.5-1.2 9-3.7s3.7-5.4 3.7-8.8c0-3.4-1.3-6.4-3.7-8.9-2.5-2.6-5.5-3.8-9-3.8-3.4 0-6.4 1.3-8.8 3.8-2.5 2.6-3.7 5.5-3.7 8.9 0 3.4 1.2 6.4 3.7 8.8 2.5 2.5 5.4 3.7 8.8 3.7z"/>
</svg>
