<svg xmlns="http://www.w3.org/2000/svg" xmlns:xlink="http://www.w3.org/1999/xlink" preserveAspectRatio="xMidYMid" width="1245" height="1244" viewBox="0 0 1245 1244">
  <path fill="#333333" d="M1244.569,10.428 C1244.620,419.247 1244.691,828.068 1244.761,1236.887 C1244.762,1239.141 1244.762,1241.395 1244.762,1243.558 C886.896,1243.558 529.880,1243.558 171.713,1243.558 C499.335,977.173 826.081,711.501 1152.826,445.830 C1152.697,445.427 1152.567,445.025 1152.437,444.622 C1006.977,450.681 861.517,456.740 714.937,462.845 C716.957,460.371 718.178,458.833 719.443,457.332 C777.180,388.799 834.926,320.272 892.662,251.737 C954.907,177.848 1017.161,103.965 1079.368,30.044 C1087.706,20.136 1095.795,10.020 1104.000,0.000 C1151.000,0.000 1198.000,0.000 1245.000,0.000 C1244.850,3.476 1244.569,6.952 1244.569,10.428 ZM150.509,752.577 C149.419,754.147 148.407,755.770 146.869,758.118 C273.105,753.531 398.343,748.980 524.386,744.400 C522.855,746.626 521.949,747.997 520.990,749.328 C509.994,764.601 498.988,779.866 487.987,795.135 C381.197,943.363 274.398,1091.587 167.673,1239.862 C165.622,1242.711 163.547,1243.883 159.950,1243.874 C108.628,1243.744 57.305,1243.783 5.983,1243.794 C3.988,1243.795 1.994,1243.928 0.000,1244.000 C0.000,829.333 0.000,414.667 0.000,0.000 C224.333,0.000 448.667,0.000 673.000,0.000 C665.072,11.313 657.097,22.594 649.221,33.943 C482.975,273.482 316.740,513.028 150.509,752.577 Z" id="path-1" class="cls-2" fill-rule="evenodd"/>
</svg>
