<svg xmlns="http://www.w3.org/2000/svg" xmlns:xlink="http://www.w3.org/1999/xlink" preserveAspectRatio="xMidYMid" width="424" height="110" viewBox="0 0 424 110">
  <path  fill="#333333" d="M422.815,100.864 C422.335,101.405 421.794,101.645 421.132,101.645 C421.132,101.645 378.999,101.645 378.999,101.645 C378.337,101.645 377.797,101.465 377.376,101.045 C376.895,100.624 376.594,100.143 376.535,99.542 C376.414,98.941 376.535,98.400 376.835,97.859 C376.835,97.859 412.838,36.432 412.838,36.432 C412.838,36.432 365.956,36.432 365.956,36.432 C360.186,36.371 355.257,38.355 351.230,42.442 C351.230,42.442 351.170,42.562 351.170,42.562 C347.083,46.589 345.040,51.458 345.040,57.228 C345.040,57.228 345.040,99.121 345.040,99.121 C345.040,99.782 344.799,100.384 344.258,100.864 C343.777,101.405 343.176,101.645 342.515,101.645 C341.794,101.645 341.192,101.405 340.652,100.864 C340.171,100.384 339.930,99.782 339.930,99.121 C339.930,99.121 339.930,57.228 339.930,57.228 C339.930,50.076 342.515,43.944 347.624,38.896 C347.624,38.896 347.685,38.836 347.685,38.836 C352.673,33.727 358.804,31.263 366.016,31.323 C366.016,31.323 417.286,31.323 417.286,31.323 C417.947,31.263 418.488,31.503 418.969,31.924 C419.450,32.344 419.750,32.825 419.870,33.427 C419.930,34.027 419.870,34.568 419.569,35.109 C419.569,35.109 383.507,96.537 383.507,96.537 C383.507,96.537 421.132,96.537 421.132,96.537 C421.794,96.537 422.335,96.777 422.815,97.318 C423.357,97.799 423.596,98.400 423.657,99.121 C423.596,99.782 423.357,100.384 422.815,100.864 ZM325.265,78.806 C324.544,84.636 322.019,89.745 317.752,94.132 C317.752,94.132 317.692,94.193 317.692,94.193 C312.583,99.181 306.453,101.705 299.299,101.705 C298.939,101.705 298.638,101.705 298.338,101.705 C298.338,101.705 271.351,101.705 271.351,101.705 C264.138,101.705 258.008,99.181 253.019,94.132 C247.910,89.024 245.325,82.893 245.325,75.801 C245.325,75.801 245.325,24.892 245.325,24.892 C245.325,19.061 243.282,14.193 239.255,10.166 C237.992,8.904 236.670,7.882 235.288,6.980 C234.747,6.560 234.386,6.018 234.206,5.357 C234.025,4.696 234.085,4.035 234.446,3.434 C234.867,2.833 235.408,2.472 236.190,2.292 C236.851,2.111 237.451,2.232 238.052,2.653 C239.735,3.675 241.358,4.997 242.862,6.500 C247.910,11.548 250.434,17.679 250.434,24.892 C250.434,24.892 250.434,75.801 250.434,75.801 C250.434,81.511 252.478,86.379 256.565,90.526 C260.593,94.553 265.520,96.597 271.351,96.597 C271.351,96.597 298.338,96.597 298.338,96.597 C298.638,96.597 298.939,96.597 299.299,96.597 C305.069,96.597 309.998,94.553 314.145,90.526 C314.145,90.526 314.145,90.466 314.145,90.466 C317.572,86.980 319.556,82.893 320.156,78.205 C320.217,77.664 320.217,77.062 320.217,76.522 C320.217,76.522 320.217,57.228 320.217,57.228 C320.217,51.398 318.173,46.469 314.145,42.442 C309.998,38.355 305.069,36.371 299.359,36.432 C299.359,36.432 299.240,36.432 299.240,36.432 C293.470,36.371 288.601,38.355 284.574,42.442 C284.574,42.442 284.514,42.562 284.514,42.562 C280.427,46.589 278.383,51.458 278.383,57.228 C278.383,57.228 278.383,76.522 278.383,76.522 C278.324,77.002 278.383,77.483 278.443,78.024 C278.503,78.084 278.503,78.205 278.503,78.265 C278.684,79.888 278.984,81.390 279.525,82.833 C279.585,83.013 279.645,83.133 279.706,83.314 C279.826,83.554 279.946,83.794 280.066,84.095 C280.367,84.756 280.367,85.417 280.186,86.078 C279.946,86.739 279.525,87.220 278.864,87.581 C278.203,87.882 277.601,87.882 276.940,87.701 C276.279,87.461 275.799,87.040 275.498,86.439 C275.197,85.898 275.018,85.297 274.837,84.756 C274.717,84.576 274.657,84.395 274.657,84.215 C273.996,82.472 273.574,80.729 273.395,78.866 C273.395,78.806 273.395,78.806 273.395,78.746 C273.395,78.746 273.454,78.866 273.454,78.866 C273.274,78.084 273.214,77.303 273.214,76.522 C273.214,76.522 273.214,57.228 273.214,57.228 C273.214,50.076 275.799,43.944 280.907,38.896 C280.907,38.896 280.967,38.836 280.967,38.836 C285.956,33.727 292.088,31.263 299.240,31.323 C299.240,31.323 299.359,31.323 299.359,31.323 C306.513,31.263 312.583,33.787 317.692,38.896 C322.740,43.944 325.265,50.076 325.325,57.228 C325.325,57.228 325.325,76.522 325.325,76.522 C325.325,77.243 325.325,77.964 325.265,78.686 C325.265,78.686 325.265,78.806 325.265,78.806 ZM231.681,78.806 C230.960,84.636 228.435,89.745 224.169,94.132 C224.169,94.132 224.109,94.193 224.109,94.193 C218.999,99.181 212.809,101.705 205.656,101.705 C201.388,101.705 197.542,100.804 193.996,99.001 C193.996,99.001 193.876,99.001 193.876,99.001 C192.433,98.280 191.051,97.378 189.728,96.296 C189.188,95.876 188.827,95.274 188.707,94.553 C188.646,93.892 188.887,93.291 189.307,92.750 C189.788,92.149 190.390,91.788 191.111,91.728 C191.772,91.668 192.433,91.848 192.974,92.329 C193.996,93.170 195.078,93.892 196.220,94.433 C196.220,94.433 196.280,94.433 196.280,94.433 C199.105,95.876 202.230,96.597 205.656,96.597 C211.426,96.597 216.354,94.553 220.502,90.526 C220.502,90.526 220.562,90.466 220.562,90.466 C223.988,86.980 225.971,82.893 226.573,78.205 C226.632,77.664 226.632,77.062 226.632,76.522 C226.632,76.522 226.632,57.228 226.632,57.228 C226.632,51.398 224.589,46.469 220.562,42.442 C216.415,38.355 211.486,36.371 205.716,36.432 C205.716,36.432 205.596,36.432 205.596,36.432 C199.886,36.371 194.957,38.355 190.930,42.442 C190.930,42.442 190.871,42.562 190.871,42.562 C186.783,46.589 184.740,51.458 184.740,57.228 C184.740,57.228 184.740,76.522 184.740,76.522 C184.740,77.243 184.740,77.964 184.680,78.686 C184.680,78.686 184.680,78.806 184.680,78.806 C184.018,84.636 181.494,89.745 177.226,94.132 C177.226,94.132 177.166,94.193 177.166,94.193 C172.057,99.181 165.867,101.705 158.714,101.705 C151.501,101.705 145.371,99.181 140.322,94.132 C135.995,89.745 133.470,84.696 132.809,78.866 C132.809,78.806 132.809,78.806 132.809,78.746 C132.809,78.746 132.869,78.866 132.869,78.866 C132.689,78.084 132.629,77.303 132.629,76.522 C132.629,76.522 132.629,57.228 132.629,57.228 C132.629,50.076 135.213,43.944 140.322,38.896 C140.322,38.896 140.322,38.836 140.322,38.836 C145.371,33.787 151.501,31.263 158.654,31.323 C158.654,31.323 158.774,31.323 158.774,31.323 C160.758,31.263 162.741,31.443 164.605,31.924 C165.266,32.044 165.807,32.404 166.167,33.006 C166.588,33.607 166.708,34.268 166.528,34.929 C166.347,35.590 165.987,36.131 165.386,36.552 C164.724,36.912 164.063,37.033 163.402,36.852 C161.900,36.492 160.397,36.371 158.834,36.432 C158.834,36.432 158.714,36.432 158.714,36.432 C152.944,36.371 148.016,38.355 143.989,42.442 C143.989,42.442 143.928,42.562 143.928,42.562 C139.841,46.589 137.798,51.458 137.798,57.228 C137.798,57.228 137.798,76.522 137.798,76.522 C137.737,77.002 137.798,77.483 137.918,78.024 C137.918,78.084 137.918,78.205 137.918,78.265 C138.459,82.953 140.442,87.040 143.928,90.526 C147.955,94.553 152.884,96.597 158.714,96.597 C164.424,96.597 169.353,94.553 173.500,90.526 C173.500,90.526 173.560,90.466 173.560,90.466 C176.986,86.980 178.969,82.893 179.511,78.205 C179.570,77.664 179.570,77.062 179.570,76.522 C179.570,76.522 179.570,57.228 179.570,57.228 C179.570,50.076 182.155,43.944 187.264,38.896 C187.264,38.896 187.324,38.836 187.324,38.836 C192.313,33.727 198.444,31.263 205.596,31.323 C205.596,31.323 205.716,31.323 205.716,31.323 C212.869,31.263 218.999,33.787 224.109,38.896 C229.158,43.944 231.681,50.076 231.741,57.228 C231.741,57.228 231.741,76.522 231.741,76.522 C231.741,77.243 231.741,77.964 231.681,78.686 C231.681,78.686 231.681,78.806 231.681,78.806 ZM97.828,93.471 C90.675,96.417 80.698,99.602 67.895,103.028 C55.094,106.454 44.815,108.678 37.182,109.699 C32.494,110.361 28.347,109.640 24.680,107.536 C23.118,106.634 21.735,105.492 20.533,104.230 C23.538,105.432 26.904,106.094 30.570,106.153 C31.953,106.094 33.516,105.913 35.318,105.492 C35.318,105.492 35.319,105.492 35.319,105.492 C41.810,104.110 51.066,98.941 63.087,89.985 C73.846,81.871 82.742,75.439 89.653,70.691 C90.435,70.151 91.156,69.670 91.877,69.129 C96.746,65.823 102.215,64.260 108.346,64.500 C108.947,67.506 109.428,70.271 109.729,72.795 C110.390,77.423 109.608,81.631 107.505,85.297 C105.401,88.963 102.215,91.669 97.828,93.471 ZM95.664,53.982 C92.779,54.162 89.473,54.944 85.807,56.326 C80.818,58.070 75.048,60.954 68.557,64.981 C56.957,72.074 48.061,75.740 41.870,76.041 C39.285,76.101 37.122,75.259 35.318,73.637 C33.336,72.254 32.374,70.331 32.374,67.927 C32.193,64.140 33.636,60.654 36.701,57.468 C39.586,54.162 43.012,52.360 46.919,52.119 C48.541,51.998 50.105,52.360 51.607,53.201 C52.989,54.043 53.831,55.304 54.011,57.048 C54.011,57.048 53.771,59.812 53.771,59.812 C53.591,60.414 53.471,60.954 53.411,61.435 C53.230,61.976 53.170,62.337 53.230,62.637 C53.290,63.719 53.831,64.500 54.853,65.041 C55.755,65.522 56.836,65.763 57.978,65.763 C63.568,65.342 68.677,61.495 73.185,54.162 C77.152,47.491 78.594,41.721 77.572,36.732 C76.310,30.962 73.005,26.634 67.655,23.809 C62.546,20.985 56.776,19.963 50.285,20.684 C48.001,20.925 45.777,21.345 43.673,21.946 C43.373,22.006 43.072,22.067 42.892,22.186 C34.177,24.411 26.303,29.219 19.331,36.732 C12.238,44.125 7.490,52.179 5.146,60.954 C2.681,51.277 1.059,43.344 0.217,37.153 C-0.444,32.405 0.337,28.257 2.441,24.651 C4.545,20.985 7.791,18.220 12.178,16.477 C19.331,13.532 29.308,10.406 42.111,6.980 C49.563,4.936 56.175,3.314 61.885,2.172 C65.972,1.270 69.638,0.669 72.824,0.248 C77.332,-0.413 81.299,0.248 84.845,2.172 C85.025,2.232 85.146,2.352 85.326,2.412 C88.992,4.516 91.697,7.761 93.500,12.149 C96.385,19.181 99.511,29.039 102.937,41.661 C101.795,41.601 100.653,41.601 99.451,41.781 C96.565,42.081 94.342,42.683 92.779,43.704 C91.156,44.726 90.435,46.229 90.495,48.333 C90.555,50.436 91.577,51.218 93.681,50.737 C95.664,50.196 97.948,49.955 100.532,49.955 C102.156,49.955 103.718,50.135 105.221,50.496 C105.641,52.119 106.002,53.742 106.363,55.304 C103.357,54.162 99.811,53.682 95.664,53.982 Z" id="path-1" class="cls-2" fill-rule="evenodd"/>
</svg>
