<svg version="1.2" baseProfile="tiny" xmlns="http://www.w3.org/2000/svg" viewBox="0 0 1412.1 229.9">
    <path fill="#000000" d="M1091 72.9c-11.1 0-20.3 3.5-27.8 10.6S1052 100 1052 111.6c0 11.7 3.7 21.1 11.1 28.3 7.4 7.2 16.6 10.8 27.7 10.8 11.1 0 20.4-3.6 27.9-10.8 7.5-7.2 11.3-16.6 11.3-28.3 0-11.6-3.7-21-11.2-28.1-7.5-7.1-16.8-10.6-27.8-10.6zm13.6 55.6c-3.9 4-8.5 5.9-13.9 5.9s-9.9-2-13.6-5.9c-3.7-3.9-5.6-9.5-5.6-16.8 0-7.3 1.9-12.9 5.6-16.8 3.7-3.9 8.3-5.9 13.7-5.9 5.4 0 10 2 13.9 5.9 3.8 3.9 5.7 9.5 5.7 16.7 0 7.3-1.9 12.9-5.8 16.9z"/>
    <path fill="#000000" d="M144.5 85.7c-5.5-8.6-13.4-12.8-23.8-12.8S101.8 76.5 95 83.8c-6.6 7.1-10 16.5-10 27.8 0 11.4 3.4 20.7 10.2 28.1 6.8 7.3 15.3 11 25.5 11s18.2-4.6 23.9-13.8v12.7h19.1v-101h-19.1v37.1zm-6 42.4c-4 4-8.7 5.9-14 5.9-5.3 0-10-2-14-6s-6-9.5-6-16.4c0-6.9 2-12.3 5.9-16.2 4-3.9 8.6-5.9 14-5.9s10 2 14.1 5.9c4 4 6 9.4 6 16.3 0 7-2 12.4-6 16.4z"/>
    <path fill="#000000" d="M192.5 74H211.7V149.6H192.5z"/>
    <path fill="#000000" d="M197.5 43.6c-4.7 2.7-7.1 6.3-7.1 11.1 0 3.3 1.1 6.1 3.4 8.3 3.3 3.3 7.5 4.2 12.7 2.8 4.8-2.6 7.2-6.3 7.2-11.1 0-3.3-1.1-6-3.4-8.3-3.2-3.3-7.5-4.2-12.8-2.8zm97.2 42.1c-5.5-8.6-13.4-12.8-23.8-12.8s-18.9 3.6-25.7 10.9c-6.7 7.2-10.1 16.5-10.1 27.9 0 11.4 3.4 20.7 10.2 28.1 6.8 7.3 15.3 11 25.5 11s18.2-4.6 23.9-13.8v13.2c0 6.7-1.7 11.8-5.1 15.2-3.4 3.4-7.7 5.1-12.8 5.1-5.1 0-9.3-1-12.7-2.9-3.4-2-5.6-4.6-6.8-8h-18.8c.9 8.8 4.7 15.6 11.5 20.4 6.8 4.8 15.9 7.2 27.4 7.2 11.5 0 20.5-3.4 26.8-10.3 6.4-6.9 9.6-15.7 9.6-26.5V74h-19.1v11.7zm-6 42.4c-4 4-8.7 5.9-14 5.9-5.3 0-10-2-14-6s-6-9.5-6-16.4c0-6.9 2-12.3 5.9-16.2 4-3.9 8.6-5.9 14-5.9s10 2 14.1 5.9c4 4 6 9.4 6 16.3 0 7-2 12.4-6 16.4zm58.9-84.5c-4.7 2.7-7.1 6.3-7.1 11.1 0 3.3 1.1 6.1 3.4 8.3 3.3 3.3 7.5 4.2 12.7 2.8 4.8-2.6 7.2-6.3 7.2-11.1 0-3.3-1.1-6-3.4-8.3-3.2-3.3-7.5-4.2-12.8-2.8z"/>
    <path fill="#000000" d="M342.6 74H361.8V149.6H342.6z"/>
    <path fill="#000000" d="M413.8 131.9c-1.2-1-1.8-2.8-1.8-5.3v-37h17V74h-16.9V55.3h-19.2V74h-8.1v15.7h8.1v37c0 8.2 2.1 14.1 6.3 17.6 4.2 3.5 10.1 5.3 17.9 5.3h12.1v-16.1H420c-2.9 0-5-.6-6.2-1.6zm92.9-46.2c-5.5-8.6-13.4-12.8-23.8-12.8s-18.9 3.6-25.7 10.9c-6.7 7.2-10.1 16.5-10.1 27.9 0 11.4 3.4 20.7 10.2 28.1 6.8 7.3 15.3 11 25.5 11s18.2-4.6 23.9-13.8v12.7h19.1V74h-19.1v11.7zm-6 42.4c-4 4-8.7 5.9-14 5.9s-10-2-14-6-6-9.5-6-16.4c0-6.9 2-12.3 5.9-16.2 3.9-3.9 8.6-5.9 14-5.9s10.1 2 14.1 5.9c4 4 6 9.4 6 16.3 0 7-2 12.4-6 16.4z"/>
    <path fill="#000000" d="M554.6 48.6H573.8000000000001V149.6H554.6z"/>
    <g fill="#000000">
        <path d="M645.5 72.9c-10.4 0-18.2 4.3-23.6 12.8V74h-19.2v111.7h19.2V137c5.6 9.2 13.6 13.8 23.8 13.8 10.2 0 18.7-3.6 25.5-10.9 6.7-7.3 10.1-16.6 10.1-28.1 0-11.4-3.4-20.7-10.1-28-6.8-7.3-15.3-10.9-25.7-10.9zm10.3 55.1c-4 4-8.6 6-14 6s-10-2-14-5.9c-4-4-5.9-9.4-5.9-16.3s2-12.4 5.9-16.3c4-4 8.6-5.9 14-5.9s10 2 14 5.9c4 3.9 5.9 9.3 5.9 16.2 0 6.8-1.9 12.3-5.9 16.3z"/>
        <path d="M704.7 74H723.9000000000001V149.6H704.7z"/>
        <path d="M709.8 43.6c-4.7 2.7-7.1 6.3-7.1 11.1 0 3.3 1.1 6.1 3.4 8.3 3.3 3.3 7.5 4.2 12.7 2.8 4.8-2.6 7.2-6.3 7.2-11.1 0-3.3-1.1-6-3.4-8.3-3.3-3.3-7.6-4.2-12.8-2.8zm85.7 29.3c-10.8 0-18.7 4.1-23.5 12.4V74h-19.2v75.6H772v-41.8c0-5.9 1.5-10.4 4.6-13.6 3-3.1 7.2-4.7 12.4-4.7s9.3 1.6 12.3 4.7 4.5 7.7 4.5 13.6v41.8h19.1v-44.5c0-10.1-2.7-18-8.2-23.7-5.5-5.7-12.6-8.5-21.2-8.5zm111.7 12.8c-5.5-8.6-13.4-12.8-23.8-12.8s-18.9 3.6-25.7 10.9c-6.7 7.2-10.1 16.5-10.1 27.9 0 11.4 3.4 20.7 10.2 28.1 6.8 7.3 15.3 11 25.5 11s18.2-4.6 23.9-13.8v13.2c0 6.7-1.7 11.8-5.1 15.2-3.4 3.4-7.7 5.1-12.8 5.1-5.1 0-9.3-1-12.7-2.9-3.4-2-5.6-4.6-6.8-8H851c.9 8.8 4.8 15.6 11.5 20.4 6.8 4.8 15.9 7.2 27.4 7.2 11.5 0 20.5-3.4 26.8-10.3 6.4-6.9 9.6-15.7 9.6-26.5V74h-19.1v11.7zm-6.1 42.4c-4 4-8.7 5.9-14 5.9s-10-2-14-6-6-9.5-6-16.4c0-6.9 2-12.3 5.9-16.2 3.9-3.9 8.6-5.9 14-5.9s10.1 2 14.1 5.9c4 4 6 9.4 6 16.3.1 7-1.9 12.4-6 16.4zm96.8-55.2c-10.4 0-18.2 4.3-23.6 12.8V74h-19.2v111.7h19.2V137c5.6 9.2 13.6 13.8 23.8 13.8 10.2 0 18.7-3.6 25.5-10.9s10.1-16.6 10.1-28.1c0-11.4-3.4-20.7-10.1-28-6.8-7.3-15.3-10.9-25.7-10.9zm10.3 55.1c-4 4-8.6 6-14 6s-10-2-14-5.9c-4-4-5.9-9.4-5.9-16.3s2-12.4 5.9-16.3c4-4 8.6-5.9 14-5.9s10 2 14 5.9c4 3.9 5.9 9.3 5.9 16.2.1 6.8-1.9 12.3-5.9 16.3zm188.1-55.1c-10.8 0-18.7 4.1-23.5 12.4V74h-19.2v75.6h19.2v-41.8c0-5.9 1.5-10.4 4.6-13.6 3-3.1 7.2-4.7 12.3-4.7 5.2 0 9.3 1.6 12.3 4.7s4.5 7.7 4.5 13.6v41.8h19.1v-44.5c0-10.1-2.7-18-8.2-23.7-5.4-5.7-12.5-8.5-21.1-8.5zm111.6 12.8c-5.5-8.6-13.4-12.8-23.8-12.8s-18.9 3.6-25.7 10.9c-6.7 7.2-10.1 16.5-10.1 27.9 0 11.4 3.4 20.7 10.2 28.1 6.8 7.3 15.3 11 25.5 11s18.2-4.6 23.9-13.8v13.2c0 6.7-1.7 11.8-5.1 15.2-3.4 3.4-7.7 5.1-12.8 5.1-5.1 0-9.3-1-12.7-2.9-3.4-2-5.6-4.6-6.8-8h-18.8c.9 8.8 4.8 15.6 11.5 20.4 6.8 4.8 15.9 7.2 27.4 7.2 11.5 0 20.5-3.4 26.8-10.3 6.4-6.9 9.6-15.7 9.6-26.5V74h-19.1v11.7zm-6 42.4c-4 4-8.7 5.9-14 5.9-5.3 0-10-2-14-6s-6-9.5-6-16.4c0-6.9 2-12.3 5.9-16.2 3.9-3.9 8.6-5.9 14-5.9s10.1 2 14.1 5.9c4 4 6 9.4 6 16.3 0 7-2 12.4-6 16.4z"/>
    </g>
</svg>
