<svg xmlns="http://www.w3.org/2000/svg" viewBox="0 0 446.8 107.21">
    <defs>
        <style>.a{fill:#333;}.b{fill:#333;}.c{fill:#333;}</style>
    </defs>
    <polygon class="a" points="32.16 0.03 0 0.03 0 32.18 32.16 0.03"/>
    <polygon class="a" points="55.83 51.38 107.18 0.03 75.03 0.03 21.44 53.62 37.51 69.69 55.83 51.38 55.83 51.38"/>
    <polygon class="a" points="0 75.05 0 107.21 16.08 91.13 0 75.05"/>
    <polyline class="b" points="55.83 51.38 55.83 51.38 37.51 69.69 75.03 107.21 107.18 107.21 53.59 53.62"/>
    <polygon class="b" points="32.16 107.21 16.08 91.13 0 107.21 0 107.21 32.16 107.21"/>
    <rect class="c" x="313.74" width="9.98" height="46.57"/>
    <polygon class="c" points="293.78 46.57 293.78 36.59 267.17 36.59 267.17 0 257.19 0 257.19 46.57 293.78 46.57"/>
    <path class="c" d="M371.19,4.2a23.29,23.29,0,1,0,23.29,23.29A23.28,23.28,0,0,0,371.19,4.2Zm0,36.59a13.31,13.31,0,1,1,13.31-13.3A13.3,13.3,0,0,1,371.19,40.79Z" transform="translate(-4.23 -4.2)"/>
    <path class="c" d="M414.44,4.2V50.77h10V37.47h10a16.64,16.64,0,0,0,0-33.27Zm20,23.29h-10V14.18h10a6.66,6.66,0,0,1,0,13.31Z" transform="translate(-4.23 -4.2)"/>
    <path class="c" d="M231.48,50.77h10L223.16,4.2h-10L194.89,50.77h10l3.92-10h18.77Zm-18.77-20,5.46-13.91,5.47,13.91Z" transform="translate(-4.23 -4.2)"/>
    <polygon class="c" points="144.05 0 134.07 0 134.07 46.57 144.05 46.57 144.05 34.44 144.1 34.49 147.26 30.39 158.5 46.57 170.66 46.57 153.65 22.09 170.66 0 158.12 0 144.05 18.28 144.05 0"/>
    <path class="c" d="M137.69,81.29V67.82H143c4.22,0,7.15,2.69,7.15,6.73s-2.93,6.74-7.13,6.74Zm9.53-6.74a3.92,3.92,0,0,0-4.2-4.2h-2.46v8.41H143A4,4,0,0,0,147.22,74.55Z" transform="translate(-4.23 -4.2)"/>
    <path class="c" d="M160.26,81.29V67.82h2.87V81.29Z" transform="translate(-4.23 -4.2)"/>
    <path class="c" d="M173.22,74.56a6.84,6.84,0,0,1,7.19-7,6.28,6.28,0,0,1,5.55,3L183.6,71.9a3.88,3.88,0,0,0-3.19-1.76,4.43,4.43,0,0,0,0,8.85,4.48,4.48,0,0,0,2.84-1V76.34H179.7v-2.5h6.42V79a7.45,7.45,0,0,1-5.71,2.52A6.85,6.85,0,0,1,173.22,74.56Z" transform="translate(-4.23 -4.2)"/>
    <path class="c" d="M196.48,81.29V67.82h2.86V81.29Z" transform="translate(-4.23 -4.2)"/>
    <path class="c" d="M213.19,81.29V70.35h-3.93V67.82H220v2.53h-3.91V81.29Z" transform="translate(-4.23 -4.2)"/>
    <path class="c" d="M237.92,81.29,237.07,79H231.3l-.85,2.28H227.2l5.19-13.47H236l5.19,13.47Zm-3.73-10.6-2.1,5.79h4.2Z" transform="translate(-4.23 -4.2)"/>
    <path class="c" d="M250.38,81.29V67.82h2.88V78.76H259v2.53Z" transform="translate(-4.23 -4.2)"/>
    <path class="c" d="M281.59,74.56a6.83,6.83,0,0,1,7.18-7,6.11,6.11,0,0,1,5.61,3.29l-2.46,1.21a3.63,3.63,0,0,0-3.15-2,4.43,4.43,0,0,0,0,8.85,3.63,3.63,0,0,0,3.15-2l2.46,1.19a6.16,6.16,0,0,1-5.61,3.31A6.84,6.84,0,0,1,281.59,74.56Z" transform="translate(-4.23 -4.2)"/>
    <path class="c" d="M303.53,74.56a7,7,0,1,1,7.05,7A6.77,6.77,0,0,1,303.53,74.56Zm11.12,0c0-2.52-1.59-4.42-4.07-4.42s-4.1,1.9-4.1,4.42,1.59,4.43,4.1,4.43S314.65,77.07,314.65,74.56Z" transform="translate(-4.23 -4.2)"/>
    <path class="c" d="M339.4,81.29V71.58l-3.79,9.71h-1.25l-3.8-9.71v9.71h-2.87V67.82h4L335,76.24l3.27-8.42h4V81.29Z" transform="translate(-4.23 -4.2)"/>
    <path class="c" d="M364.74,81.29V71.58l-3.8,9.71h-1.25l-3.79-9.71v9.71H353V67.82h4l3.27,8.42,3.27-8.42h4V81.29Z" transform="translate(-4.23 -4.2)"/>
    <path class="c" d="M378.36,81.29V67.82h9.53v2.53h-6.66v2.82h6.52V75.7h-6.52v3.06h6.66v2.53Z" transform="translate(-4.23 -4.2)"/>
    <path class="c" d="M405.82,81.29l-2.65-4.79h-2.09v4.79h-2.87V67.82h6.3a4.21,4.21,0,0,1,4.54,4.34,3.89,3.89,0,0,1-3,4l3.05,5.13Zm.28-9.15a1.81,1.81,0,0,0-2-1.79h-3V74h3A1.83,1.83,0,0,0,406.1,72.14Z" transform="translate(-4.23 -4.2)"/>
    <path class="c" d="M418.62,74.56a6.84,6.84,0,0,1,7.18-7,6.14,6.14,0,0,1,5.62,3.29L429,72.1a3.63,3.63,0,0,0-3.15-2,4.43,4.43,0,0,0,0,8.85A3.63,3.63,0,0,0,429,77l2.47,1.19a6.19,6.19,0,0,1-5.62,3.31A6.85,6.85,0,0,1,418.62,74.56Z" transform="translate(-4.23 -4.2)"/>
    <path class="c" d="M441.21,81.29V67.82h9.53v2.53h-6.67v2.82h6.52V75.7h-6.52v3.06h6.67v2.53Z" transform="translate(-4.23 -4.2)"/>
</svg>
