<svg xmlns="http://www.w3.org/2000/svg" xmlns:xlink="http://www.w3.org/1999/xlink" preserveAspectRatio="xMidYMid" width="478" height="166" viewBox="0 0 478 166">
  <defs>
    <style>

      .cls-2 {
        fill: #333333;
      }
    </style>
  </defs>
  <path d="M475.978,52.154 C471.486,58.514 460.331,66.973 453.008,57.671 C450.144,61.433 446.802,65.066 443.759,66.902 C430.382,75.426 419.629,63.100 418.661,57.747 C413.765,61.128 407.735,62.462 402.959,56.811 C400.233,60.660 397.026,64.410 394.036,66.352 C380.943,75.326 369.800,63.345 368.648,58.063 C363.875,61.596 357.900,63.123 352.940,57.653 C350.343,61.596 347.261,65.446 344.347,67.487 C335.377,74.104 328.602,70.196 326.488,68.605 C324.881,67.487 320.830,65.762 319.094,61.456 C309.848,72.121 298.775,74.461 293.270,70.927 C283.129,64.241 292.053,46.989 299.048,34.452 C296.638,34.388 294.055,33.744 291.502,31.779 C288.283,38.957 281.335,50.920 277.773,56.577 C267.926,74.332 248.243,79.837 242.731,75.596 C227.909,64.381 235.218,53.500 241.723,41.853 C242.561,40.378 243.831,38.272 245.276,35.792 C241.699,36.388 238.087,37.009 234.423,37.652 C232.817,37.991 232.878,30.568 235.250,29.901 C240.277,28.848 245.317,28.046 250.362,27.338 C250.362,27.338 252.171,24.355 252.171,24.355 C256.689,16.779 265.730,1.429 266.041,0.914 C268.462,-2.474 275.947,4.453 274.874,6.851 C274.279,8.127 267.665,19.646 265.316,23.746 C265.316,23.746 264.205,25.666 264.205,25.666 C267.893,25.297 271.584,24.963 275.278,24.659 C279.318,24.402 275.557,31.989 271.986,32.463 C267.964,32.703 263.786,33.159 259.547,33.698 C255.188,41.075 250.975,48.492 249.852,50.282 C245.560,57.712 241.957,68.213 244.569,70.108 C247.765,72.402 257.896,70.255 269.271,54.459 C278.480,41.303 281.015,32.709 282.739,27.385 C281.059,25.829 280.069,23.986 280.585,21.184 C282.352,11.198 289.954,3.412 293.876,4.324 C298.775,5.389 300.631,10.900 298.377,19.242 C298.007,20.710 297.336,22.922 295.149,27.525 C298.338,28.251 302.551,25.057 306.626,21.617 C307.133,21.032 308.570,20.816 309.919,22.214 C314.550,26.069 315.198,31.428 314.568,32.674 C312.018,37.073 293.812,62.234 297.298,66.897 C300.763,71.536 316.069,53.166 321.079,43.502 C324.770,33.785 331.190,26.221 334.861,22.682 C340.179,17.656 344.242,17.130 348.786,19.447 C361.937,26.203 362.351,33.142 358.695,46.006 C358.267,47.229 357.730,48.691 356.956,50.282 C357.490,51.581 358.138,52.751 358.997,53.073 C361.471,53.898 366.162,50.751 371.729,41.297 C375.766,31.855 382.350,24.636 386.100,21.254 C391.582,16.416 395.660,16.024 400.128,18.499 C413.033,25.706 413.209,32.644 409.113,45.380 C408.641,46.579 408.052,48.024 407.231,49.592 C407.718,50.902 408.327,52.096 409.172,52.447 C411.620,53.354 416.422,50.364 422.320,41.092 C426.676,31.790 433.504,24.805 437.368,21.553 C443.017,16.902 447.113,16.650 451.487,19.277 C464.140,26.917 464.078,33.867 459.546,46.457 C459.036,47.644 458.394,49.060 457.511,50.598 C457.963,51.926 458.531,53.143 459.361,53.523 C461.862,54.553 466.980,51.569 473.483,41.782 C474.482,40.127 480.844,44.976 475.978,52.154 ZM343.828,29.977 C340.929,32.493 337.496,36.476 334.145,42.496 C329.557,50.487 326.799,61.877 329.771,63.907 C333.116,66.282 341.762,54.770 345.467,48.609 C345.916,47.872 346.355,47.018 346.918,46.035 C345.033,41.314 343.198,34.914 343.828,29.977 ZM394.810,28.848 C391.828,31.264 388.254,35.137 384.704,41.028 C379.844,48.855 376.692,60.146 379.594,62.275 C382.857,64.761 391.890,53.553 395.806,47.527 C396.276,46.802 396.753,45.965 397.342,45.000 C395.622,40.220 394.009,33.768 394.810,28.848 ZM445.811,29.439 C442.748,31.755 439.045,35.499 435.292,41.273 C430.168,48.925 426.629,60.105 429.459,62.333 C432.634,64.931 442.047,54.032 446.163,48.147 C446.667,47.439 447.165,46.614 447.790,45.672 C446.239,40.834 444.844,34.329 445.811,29.439 ZM226.610,63.205 C226.818,68.494 229.586,76.713 223.271,80.311 C214.705,85.172 203.881,82.952 197.660,75.180 C197.511,75.011 197.403,74.870 197.312,74.747 C188.971,83.619 176.582,90.001 165.266,84.833 C162.082,83.441 159.696,81.969 158.080,79.357 C150.995,91.154 142.862,94.117 137.597,91.663 C134.639,90.274 133.206,87.869 132.520,84.947 C127.284,93.997 120.608,100.646 111.333,94.363 C109.333,92.988 107.868,91.464 106.818,89.782 C100.811,100.719 93.294,108.444 87.912,109.781 C76.490,112.612 72.251,101.076 73.749,90.201 C75.221,79.714 77.736,69.459 80.897,59.286 C70.091,80.001 58.531,100.646 45.867,119.348 C45.576,119.670 45.257,119.872 45.057,120.044 C42.167,121.378 33.958,118.722 34.603,115.847 C38.200,101.497 42.181,87.173 46.163,72.852 C36.409,91.815 25.981,110.085 13.909,128.147 C12.390,130.496 2.930,126.304 3.833,122.990 C4.446,120.986 7.665,111.053 11.907,96.788 C20.851,66.657 30.288,48.393 27.051,46.843 C24.167,45.427 20.080,50.317 16.794,55.846 C16.791,55.857 16.785,55.857 16.779,55.869 C14.700,59.110 12.950,56.758 12.950,56.758 C7.629,45.450 23.756,36.394 30.786,41.478 C40.886,48.720 35.629,58.917 33.642,65.838 C31.859,72.080 27.476,85.269 23.319,97.408 C36.309,74.554 47.291,50.592 59.088,26.917 C60.402,24.250 70.944,27.309 70.120,30.474 C64.594,50.990 58.625,71.243 53.099,91.748 C68.420,66.341 83.136,37.985 95.428,13.328 C96.856,10.631 107.425,13.813 106.490,17.007 C100.964,37.020 93.857,56.688 88.504,76.912 C86.546,84.432 79.557,105.063 85.848,103.498 C86.552,103.328 88.416,103.360 93.171,95.635 C98.310,87.375 103.637,78.948 107.478,70.056 C110.720,60.865 115.502,51.031 123.476,44.830 C130.212,39.682 141.004,46.287 141.693,49.282 C145.105,49.850 149.089,52.745 148.318,54.483 C147.527,56.097 144.659,61.521 142.200,67.844 C139.289,74.993 136.149,84.745 140.019,86.444 C143.182,87.840 151.505,74.390 156.336,64.510 C158.599,51.798 167.597,35.710 175.849,31.983 C177.673,31.206 180.598,30.503 183.392,32.001 C193.553,37.067 194.412,40.209 192.674,48.364 C190.170,59.438 183.606,67.868 175.468,70.974 C172.478,72.051 168.608,69.874 166.292,68.301 C165.339,73.782 166.301,79.088 168.799,80.273 C174.747,83.034 187.951,75.689 197.631,60.216 C205.910,45.667 214.388,26.508 217.945,20.962 C219.645,18.201 224.972,20.049 227.929,22.319 C230.067,23.858 231.670,25.946 230.372,28.046 C222.031,42.051 225.933,50.610 226.610,63.205 ZM133.581,50.949 C131.256,49.686 123.693,58.695 118.360,71.056 C114.780,79.185 111.453,89.217 113.089,90.733 C114.420,91.941 119.776,87.989 128.749,71.027 C128.749,71.027 130.286,67.563 130.286,67.563 C132.520,62.012 135.662,52.266 133.581,50.949 ZM168.605,65.265 C170.534,65.926 174.843,60.883 178.406,54.986 C183.125,47.205 184.586,40.302 183.521,39.746 C182.325,39.085 176.691,44.947 171.167,56.127 C168.761,60.877 167.444,64.843 168.605,65.265 ZM215.643,56.173 C215.584,53.886 215.408,51.616 215.368,49.446 C210.970,56.542 206.848,62.994 202.943,68.336 C204.614,71.869 206.845,76.888 210.683,76.631 C216.344,76.380 216.168,65.773 215.643,56.173 ZM466.007,87.854 C470.026,88.319 464.972,95.118 461.372,94.948 C310.168,85.748 153.270,111.454 5.351,165.429 C1.968,166.532 -2.157,156.446 1.356,155.230 C1.356,155.230 1.400,155.218 1.400,155.218 C155.615,100.066 319.103,77.708 466.007,87.854 Z" id="path-1" class="cls-2" fill-rule="evenodd"/>
</svg>
