<svg width="380" height="140" viewBox="0 0 380 140" xmlns="http://www.w3.org/2000/svg">
    <g fill="#333">
        <path d="M368.7.9v30.6c0 18.7-28.7 18.7-28.7 0v-30.6h-4.5v30.6c0 24.4 37.5 24.5 37.5 0v-30.6h-4.3zm-4.7 30.1v-30.1h-4.5v30.1c0 7.1-10.3 7.1-10.3 0v-30.1h-4.5v30.1c0 13 19.3 13 19.3 0zm-327 18.9h4.5v-49h-4.5v49zm-36.4 0h4.4v-49h-4.4v49zm8.9 0h4.5v-22.9l14.5 22.9h5.4l-24.4-39.2v39.2zm23-49h-4.5v22.9l-14.5-22.9h-5.4l24.4 39.3v-39.3zm214.2 31.2h7.8v-4.5h-12.3v13.3h16.4v-4.5h-11.9v-4.3zm-13.4 17.8h25.3v-4.5h-20.8v-40.1h20.8v-4.5h-25.3v49.1zm8.9-26.8h12.3v-4.5h-7.8v-4.5h11.9v-4.4h-16.4v13.4zm-90 8.3c0 18.7-28.7 18.7-28.7 0v-30.6h-4.5v30.6c0 24.4 37.5 24.5 37.5 0v-30.6h-4.4v30.6h.1zm-4.7-.5v-30.1h-4.5v30.1c0 7.1-10.4 7.1-10.4 0v-30.1h-4.5v30.1c.1 13 19.4 13 19.4 0zM94.6 120.9c0 18.7-28.7 18.7-28.7 0v-30.6h-4.5v30.6c0 24.4 37.5 24.5 37.5 0v-30.6h-4.4v30.6h.1zM70.6 90.3v30.1c0 13 19.3 13 19.3 0v-30.1h-4.5v30.1c0 7.1-10.4 7.1-10.4 0v-30.1h-4.4z" id="Shape"/>
        <path id="Rectangle-path" d="M37.7 78h4.5v49h-4.5zM1.2 78h4.4v49h-4.4z"/>
        <path id="Shape" d="M10.2 127h4.4v-22.9l14.5 22.9h5.4l-24.3-39.1zM33.2 78h-4.5v23l-14.5-23h-5.4l24.4 39.3zM246.7 109.2h7.8v-4.5h-12.3v13.4h16.5v-4.5h-12zM233.3 127h25.4v-4.5h-20.9v-40h20.9v-4.5h-25.4zM242.2 100.3h12.3v-4.5h-7.8v-4.4h12v-4.4h-16.5z"/>
        <path id="Rectangle-path" d="M113.3 78h4.5v48.9h-4.5zM158 78h4.5v48.9h-4.5z"/>
        <path d="M138 110.1h-.1l-15.5-22.3v39.1h4.6v-24.7l10.9 15.8h.1l11-15.8v24.7h4.5v-39.1zM138 94.3h-.1l-11.3-16.3h-5.5l16.8 24v.1h.1v-.1l16.8-24h-5.5zM292.5 106.4v4.4h3.5c3.7 0 6.8-2.9 6.8-6.6 0-3.4-2.7-6.8-6.8-6.8h-7.9v4.5h7.9c1.3 0 2.3.9 2.3 2.3.1 2.5-3.7 2.2-5.8 2.2zM285.9 137.5h4.5v-9.8l6.9 9.8h5.5l-16.9-23.9zM307.7 115.1c9.6-9.9 2.7-26.6-11-26.6h-19.8v49h4.5v-44.5h15.4c3 0 5.7 1.2 7.7 3.2 6.8 6.9 2.1 18.9-7.6 19h-4.5l15.7 22.3h5.4l-12.9-18.3c2.8-.7 5.2-2.2 7.1-4.1zM367.3 120.3c-3.5 2.5-7.8 4-12.6 4-27.8 0-27.8-41.7 0-41.7 4.7 0 9.1 1.5 12.6 4 3.7 2.7 6.4 6.3 7.7 10.6l4.3-1.3c-1.7-5.3-5-9.7-9.4-12.9-4.3-3.1-9.5-4.9-15.3-4.9-33.9 0-33.9 50.8 0 50.8 5.8 0 11-1.9 15.3-4.9 4.3-3.1 7.7-7.7 9.4-12.9l-4.3-1.4c-1.4 4.3-4 8-7.7 10.6zM354.7 115.1c-2.1 0-4-.6-5.6-1.6-1.7-.9-3.2-2.5-4.3-4.2l-3.9 2.2c1.4 2.5 3.4 4.5 5.8 6 2.4 1.3 5.1 2.1 7.9 2.1 4.5 0 8.5-1.8 11.4-4.8 2.8-2.9 4.6-6.9 4.6-11.4s-1.8-8.5-4.6-11.4c-2.9-2.9-6.9-4.7-11.4-4.7-2.8 0-5.5.7-7.9 2.1-2.4 1.4-4.4 3.5-5.8 5.9l3.9 2.2c1.1-1.7 2.5-3.2 4.3-4.2 1.7-1 3.5-1.5 5.6-1.5 3.2 0 6.1 1.3 8.1 3.4 2.1 2.1 3.4 5 3.4 8.2 0 3.3-1.3 6.2-3.4 8.3-2 2.1-4.9 3.4-8.1 3.4zM105.3 30.9c-1.7-5.3-5-9.7-9.4-12.9-4.3-3.1-9.5-4.9-15.3-4.9-33.9 0-33.9 50.9 0 50.9 5.8 0 11-1.9 15.3-4.9 4.3-3.1 7.7-7.7 9.4-12.9l-4.3-1.4c-1.4 4.3-4.1 8-7.7 10.6-3.5 2.5-7.8 4-12.6 4-27.8 0-27.8-41.7 0-41.7 4.7 0 9.1 1.5 12.6 4 3.7 2.7 6.4 6.3 7.7 10.6l4.3-1.4zM80.6 50.2c-2.1 0-4-.6-5.6-1.6-1.7-.9-3.2-2.5-4.3-4.2l-3.9 2.2c1.4 2.5 3.4 4.5 5.8 6 2.4 1.3 5.1 2.1 7.9 2.1 4.5 0 8.5-1.8 11.4-4.8 2.8-2.9 4.6-6.9 4.6-11.4s-1.8-8.5-4.6-11.4c-2.9-2.9-6.9-4.7-11.4-4.7-2.8 0-5.5.7-7.9 2.1-2.4 1.4-4.4 3.5-5.8 5.9l3.9 2.2c1.1-1.7 2.5-3.2 4.3-4.2 1.7-1 3.5-1.5 5.6-1.5 3.2 0 6.1 1.3 8.1 3.4 2.1 2.1 3.4 5 3.4 8.2 0 3.3-1.3 6.2-3.4 8.3-2 2.1-4.9 3.4-8.1 3.4zM197.3 60.3l20.4-49h-4.7l-18 43-17.6-43h-4.8l20 49zM207.2 11.3h-4.8l-7.4 18.2-7.4-18.2h-4.6l11.9 30.1zM293 11.3l-19.5 49h4.8l16.8-42.3 16.8 42.3h4.8l-19.5-49zM283.5 60.3h4.7l1.5-4.4h10.8l1.7 4.4h4.8l-3.5-9h-16.4zM288.8 46.9h12.9l-1.3-3.1-5.2-12.9-2.4 6 2.2 5.6h-4.4z"/>
        <path d="M195.234 97.663l7.141 7.141-7.141 7.141-7.141-7.141z"/>
    </g>
</svg>
