<?xml version="1.0" encoding="utf-8"?>
<!-- Generator: Adobe Illustrator 18.1.1, SVG Export Plug-In . SVG Version: 6.00 Build 0)  -->
<svg version="1.1" baseProfile="tiny" id="Calque_1"
	 xmlns="http://www.w3.org/2000/svg" xmlns:xlink="http://www.w3.org/1999/xlink" x="0px" y="0px" viewBox="0 0 400 200"
	 xml:space="preserve">
<g>
	<path fill="#333333" d="M378.7,30.9v30.6c0,18.7-28.7,18.7-28.7,0V30.9h-4.5v30.6c0,24.4,37.5,24.5,37.5,0V30.9H378.7z M374,61
		V30.9h-4.5V61c0,7.1-10.3,7.1-10.3,0V30.9h-4.5V61C354.7,74,374,74,374,61z M47,79.9h4.5v-49H47V79.9z M10.6,79.9H15v-49h-4.4V79.9
		z M19.5,79.9H24V57l14.5,22.9h5.4L19.5,40.7V79.9z M42.5,30.9H38v22.9L23.5,30.9h-5.4l24.4,39.3L42.5,30.9z M256.7,62.1h7.8v-4.5
		h-12.3v13.3h16.4v-4.5h-11.9V62.1z M243.3,79.9h25.3v-4.5h-20.8V35.3h20.8v-4.5h-25.3V79.9z M252.2,53.1h12.3v-4.5h-7.8v-4.5h11.9
		v-4.4h-16.4V53.1z M162.2,61.4c0,18.7-28.7,18.7-28.7,0V30.8h-4.5v30.6c0,24.4,37.5,24.5,37.5,0V30.8h-4.4V61.4z M157.5,60.9V30.8
		H153v30.1c0,7.1-10.4,7.1-10.4,0V30.8h-4.5v30.1C138.2,73.9,157.5,73.9,157.5,60.9z"/>
	<path fill="#333333" d="M104.6,150.9c0,18.7-28.7,18.7-28.7,0v-30.6h-4.5v30.6c0,24.4,37.5,24.5,37.5,0v-30.6h-4.4V150.9z"/>
	<path fill="#333333" d="M80.6,120.3v30.1c0,13,19.3,13,19.3,0v-30.1h-4.5v30.1c0,7.1-10.4,7.1-10.4,0v-30.1H80.6z"/>
	<rect x="47.7" y="108" fill="#333333" width="4.5" height="49"/>
	<rect x="11.2" y="108" fill="#333333" width="4.4" height="49"/>
	<polygon fill="#333333" points="20.2,157 24.6,157 24.6,134.1 39.1,157 44.5,157 20.2,117.9 	"/>
	<polygon fill="#333333" points="43.2,108 38.7,108 38.7,131 24.2,108 18.8,108 43.2,147.3 	"/>
	<polygon fill="#333333" points="256.7,139.2 264.5,139.2 264.5,134.7 252.2,134.7 252.2,148.1 268.7,148.1 268.7,143.6
		256.7,143.6 	"/>
	<polygon fill="#333333" points="243.3,157 268.7,157 268.7,152.5 247.8,152.5 247.8,112.5 268.7,112.5 268.7,108 243.3,108 	"/>
	<polygon fill="#333333" points="252.2,130.3 264.5,130.3 264.5,125.8 256.7,125.8 256.7,121.4 268.7,121.4 268.7,117 252.2,117
		"/>
	<rect x="123.3" y="108" fill="#333333" width="4.5" height="48.9"/>
	<rect x="168" y="108" fill="#333333" width="4.5" height="48.9"/>
	<polygon fill="#333333" points="148,140.1 148,140.1 147.9,140.1 147.9,140.1 132.4,117.8 132.4,156.9 137,156.9 137,132.2
		147.9,148 147.9,148 148,148 148,148 148,148 159,132.2 159,156.9 163.5,156.9 163.5,117.8 148,140.1 	"/>
	<polygon fill="#333333" points="148,124.3 148,124.3 148,124.3 147.9,124.3 147.9,124.3 136.6,108 131.1,108 147.9,132
		147.9,132.1 147.9,132.1 148,132.1 148,132.1 148,132.1 148,132 164.8,108 159.3,108 	"/>
	<path fill="#333333" d="M302.5,136.4v4.4c0,0,2.9,0,3.5,0c3.7,0,6.8-2.9,6.8-6.6c0-3.4-2.7-6.8-6.8-6.8h-7.9v4.5h7.9
		c1.3,0,2.3,0.9,2.3,2.3C308.4,136.7,304.6,136.4,302.5,136.4z"/>
	<polygon fill="#333333" points="295.9,167.5 300.4,167.5 300.4,157.7 307.3,167.5 312.8,167.5 295.9,143.6 	"/>
	<path fill="#333333" d="M317.7,145.1c9.6-9.9,2.7-26.6-11-26.6h-19.8v49h4.5V123h15.4c3,0,5.7,1.2,7.7,3.2c6.8,6.9,2.1,18.9-7.6,19
		l-4.5,0l15.7,22.3h5.4l-12.9-18.3C313.4,148.5,315.8,147,317.7,145.1z"/>
	<path fill="#333333" d="M377.3,150.3c-3.5,2.5-7.8,4-12.6,4c-27.8,0-27.8-41.7,0-41.7c4.7,0,9.1,1.5,12.6,4
		c3.7,2.7,6.4,6.3,7.7,10.6l4.3-1.3c-1.7-5.3-5-9.7-9.4-12.9c-4.3-3.1-9.5-4.9-15.3-4.9c-33.9,0-33.9,50.8,0,50.8
		c5.8,0,11-1.9,15.3-4.9c4.3-3.1,7.7-7.7,9.4-12.9l-4.3-1.4C383.6,144,381,147.7,377.3,150.3z"/>
	<path fill="#333333" d="M364.7,145.1c-2.1,0-4-0.6-5.6-1.6c-1.7-0.9-3.2-2.5-4.3-4.2l-3.9,2.2c1.4,2.5,3.4,4.5,5.8,6
		c2.4,1.3,5.1,2.1,7.9,2.1c4.5,0,8.5-1.8,11.4-4.8c2.8-2.9,4.6-6.9,4.6-11.4c0-4.5-1.8-8.5-4.6-11.4c-2.9-2.9-6.9-4.7-11.4-4.7
		c-2.8,0-5.5,0.7-7.9,2.1c-2.4,1.4-4.4,3.5-5.8,5.9l3.9,2.2c1.1-1.7,2.5-3.2,4.3-4.2c1.7-1,3.5-1.5,5.6-1.5c3.2,0,6.1,1.3,8.1,3.4
		c2.1,2.1,3.4,5,3.4,8.2c0,3.3-1.3,6.2-3.4,8.3C370.8,143.8,367.9,145.1,364.7,145.1z"/>
	<path fill="#333333" d="M115.3,60.9c-1.7-5.3-5-9.7-9.4-12.9c-4.3-3.1-9.5-4.9-15.3-4.9c-33.9,0-33.9,50.9,0,50.9
		c5.8,0,11-1.9,15.3-4.9c4.3-3.1,7.7-7.7,9.4-12.9l-4.3-1.4c-1.4,4.3-4.1,8-7.7,10.6c-3.5,2.5-7.8,4-12.6,4
		c-27.8,0-27.8-41.7,0-41.7c4.7,0,9.1,1.5,12.6,4c3.7,2.7,6.4,6.3,7.7,10.6L115.3,60.9z"/>
	<path fill="#333333" d="M90.6,80.2c-2.1,0-4-0.6-5.6-1.6c-1.7-0.9-3.2-2.5-4.3-4.2l-3.9,2.2c1.4,2.5,3.4,4.5,5.8,6
		c2.4,1.3,5.1,2.1,7.9,2.1c4.5,0,8.5-1.8,11.4-4.8c2.8-2.9,4.6-6.9,4.6-11.4c0-4.5-1.8-8.5-4.6-11.4c-2.9-2.9-6.9-4.7-11.4-4.7
		c-2.8,0-5.5,0.7-7.9,2.1c-2.4,1.4-4.4,3.5-5.8,5.9l3.9,2.2c1.1-1.7,2.5-3.2,4.3-4.2c1.7-1,3.5-1.5,5.6-1.5c3.2,0,6.1,1.3,8.1,3.4
		c2.1,2.1,3.4,5,3.4,8.2c0,3.3-1.3,6.2-3.4,8.3C96.7,78.9,93.8,80.2,90.6,80.2z"/>
	<polygon fill="#333333" points="207.3,90.3 227.7,41.3 223,41.3 205,84.3 187.4,41.3 182.6,41.3 202.6,90.3 	"/>
	<polygon fill="#333333" points="217.2,41.3 212.4,41.3 205,59.5 197.6,41.3 193,41.3 204.9,71.4 	"/>
	<polygon fill="#333333" points="303,41.3 283.5,90.3 288.3,90.3 305.1,48 321.9,90.3 326.7,90.3 307.2,41.3 	"/>
	<polygon fill="#333333" points="293.5,90.3 298.2,90.3 299.7,85.9 310.5,85.9 312.2,90.3 317,90.3 313.5,81.3 297.1,81.3 	"/>
	<polygon fill="#333333" points="298.8,76.9 311.7,76.9 310.4,73.8 310.4,73.8 305.2,60.9 302.8,66.9 305,72.5 300.6,72.5 	"/>

		<rect x="200.2" y="129.7" transform="matrix(0.7072 0.7071 -0.7071 0.7072 155.3633 -105.6236)" fill="#333333" width="10.1" height="10.1"/>
</g>
</svg>
