<svg xmlns="http://www.w3.org/2000/svg" xmlns:xlink="http://www.w3.org/1999/xlink" preserveAspectRatio="xMidYMid" width="1770" height="989" viewBox="0 0 1770 989">
  <path  fill="#333333" d="M1753.837,453.592 C1753.837,453.592 1753.548,453.592 1753.548,453.592 C1745.611,453.592 1739.179,447.158 1739.179,439.223 C1739.179,439.223 1739.179,165.728 1739.179,165.728 C1739.179,130.632 1726.352,100.006 1701.047,74.701 C1675.738,49.395 1645.116,36.563 1610.039,36.563 C1574.478,36.563 1543.743,49.277 1518.674,74.351 C1493.609,99.425 1480.896,130.164 1480.896,165.728 C1480.896,165.728 1480.896,439.223 1480.896,439.223 C1480.896,447.158 1474.468,453.592 1466.527,453.592 C1466.527,453.592 1466.234,453.592 1466.234,453.592 C1458.300,453.592 1451.865,447.158 1451.865,439.223 C1451.865,439.223 1451.865,165.678 1451.865,165.678 C1451.865,122.034 1467.406,84.368 1498.056,53.731 C1528.715,23.080 1566.387,7.540 1610.039,7.540 C1653.224,7.540 1690.787,23.198 1721.669,54.080 C1752.551,84.958 1768.206,122.506 1768.206,165.678 C1768.206,165.678 1768.206,439.223 1768.206,439.223 C1768.206,447.158 1761.774,453.592 1753.837,453.592 ZM1517.429,722.313 C1517.429,722.313 1517.860,722.313 1517.860,722.313 C1517.860,722.313 1517.860,592.579 1517.860,592.579 C1517.860,592.579 1531.879,592.579 1531.879,592.579 C1531.879,592.579 1531.879,743.665 1531.879,743.665 C1531.879,743.665 1514.837,743.665 1514.837,743.665 C1514.837,743.665 1454.879,614.334 1454.879,614.334 C1454.879,614.334 1454.448,614.334 1454.448,614.334 C1454.448,614.334 1454.448,743.665 1454.448,743.665 C1454.448,743.665 1440.429,743.665 1440.429,743.665 C1440.429,743.665 1440.429,592.579 1440.429,592.579 C1440.429,592.579 1457.898,592.579 1457.898,592.579 C1457.898,592.579 1517.429,722.313 1517.429,722.313 ZM1445.376,906.615 C1445.376,906.615 1445.685,906.615 1445.685,906.615 C1445.685,906.615 1487.751,852.234 1487.751,852.234 C1487.751,852.234 1499.394,852.234 1499.394,852.234 C1499.394,852.234 1464.932,896.175 1464.932,896.175 C1464.932,896.175 1501.103,960.997 1501.103,960.997 C1501.103,960.997 1490.236,960.997 1490.236,960.997 C1490.236,960.997 1458.415,903.858 1458.415,903.858 C1458.415,903.858 1445.376,919.813 1445.376,919.813 C1445.376,919.813 1445.376,960.997 1445.376,960.997 C1445.376,960.997 1435.282,960.997 1435.282,960.997 C1435.282,960.997 1435.282,852.234 1435.282,852.234 C1435.282,852.234 1445.376,852.234 1445.376,852.234 C1445.376,852.234 1445.376,906.615 1445.376,906.615 ZM1344.881,592.579 C1344.881,592.579 1418.212,592.579 1418.212,592.579 C1418.212,592.579 1418.212,604.260 1418.212,604.260 C1418.212,604.260 1358.900,604.260 1358.900,604.260 C1358.900,604.260 1358.900,658.654 1358.900,658.654 C1358.900,658.654 1412.821,658.654 1412.821,658.654 C1412.821,658.654 1412.821,670.339 1412.821,670.339 C1412.821,670.339 1358.900,670.339 1358.900,670.339 C1358.900,670.339 1358.900,731.980 1358.900,731.980 C1358.900,731.980 1419.290,731.980 1419.290,731.980 C1419.290,731.980 1419.290,743.665 1419.290,743.665 C1419.290,743.665 1344.881,743.665 1344.881,743.665 C1344.881,743.665 1344.881,592.579 1344.881,592.579 ZM1159.990,461.466 C1032.522,461.466 929.192,358.164 929.192,230.733 C929.192,103.305 1032.522,-0.001 1159.990,-0.001 C1287.457,-0.001 1390.783,103.305 1390.783,230.733 C1390.783,358.164 1287.457,461.466 1159.990,461.466 ZM1170.372,27.680 C1064.576,27.680 978.813,113.420 978.813,219.186 C978.813,324.948 1064.576,410.688 1170.372,410.688 C1276.163,410.688 1361.927,324.948 1361.927,219.186 C1361.927,113.420 1276.163,27.680 1170.372,27.680 ZM929.896,636.089 C928.602,618.161 921.271,600.636 899.489,600.636 C865.409,600.636 866.703,646.566 866.703,666.914 C866.703,690.080 865.409,735.608 900.995,735.608 C925.152,735.608 930.546,711.030 931.189,692.496 C931.189,692.496 945.213,692.496 945.213,692.496 C945.860,718.282 931.840,747.293 899.489,747.293 C852.684,747.293 852.684,695.921 852.684,663.892 C852.684,632.868 856.998,588.951 899.921,588.951 C929.033,588.951 943.703,610.507 943.919,636.089 C943.919,636.089 929.896,636.089 929.896,636.089 ZM628.501,461.466 C501.034,461.466 397.699,358.164 397.699,230.733 C397.699,103.305 501.034,-0.001 628.501,-0.001 C755.964,-0.001 859.295,103.305 859.295,230.733 C859.295,358.164 755.964,461.466 628.501,461.466 ZM618.119,27.680 C512.327,27.680 426.559,113.420 426.559,219.186 C426.559,324.948 512.327,410.688 618.119,410.688 C723.910,410.688 809.674,324.948 809.674,219.186 C809.674,113.420 723.910,27.680 618.119,27.680 ZM402.115,724.326 C402.115,724.326 441.370,592.579 441.370,592.579 C441.370,592.579 464.232,592.579 464.232,592.579 C464.232,592.579 464.232,743.665 464.232,743.665 C464.232,743.665 450.212,743.665 450.212,743.665 C450.212,743.665 450.212,605.671 450.212,605.671 C450.212,605.671 449.781,605.671 449.781,605.671 C449.781,605.671 409.664,743.665 409.664,743.665 C409.664,743.665 394.782,743.665 394.782,743.665 C394.782,743.665 354.234,605.671 354.234,605.671 C354.234,605.671 353.802,605.671 353.802,605.671 C353.802,605.671 353.802,743.665 353.802,743.665 C353.802,743.665 339.783,743.665 339.783,743.665 C339.783,743.665 339.783,592.579 339.783,592.579 C339.783,592.579 363.294,592.579 363.294,592.579 C363.294,592.579 401.684,724.326 401.684,724.326 C401.684,724.326 402.115,724.326 402.115,724.326 ZM122.671,217.588 C122.671,217.588 213.992,217.588 213.992,217.588 C246.469,217.588 274.703,229.232 297.920,252.195 C321.126,275.166 332.891,303.278 332.891,335.758 C332.891,368.243 321.077,396.359 297.766,419.322 C274.471,442.286 246.107,453.926 213.479,453.926 C213.479,453.926 18.047,453.926 18.047,453.926 C10.146,453.926 3.743,447.524 3.743,439.626 C3.743,439.626 3.743,439.333 3.743,439.333 C3.743,431.434 10.146,425.033 18.047,425.033 C18.047,425.033 213.544,425.033 213.544,425.033 C238.100,425.033 259.540,416.203 277.270,398.783 C294.999,381.376 303.994,360.170 303.994,335.758 C303.994,311.352 295.044,290.146 277.396,272.726 C259.736,255.310 238.397,246.481 213.967,246.481 C213.967,246.481 122.643,246.481 122.643,246.481 C90.149,246.481 61.911,234.828 38.714,211.845 C15.508,188.874 3.743,160.505 3.743,127.537 C3.743,95.036 15.557,66.904 38.868,43.916 C62.172,20.933 90.535,9.280 123.155,9.280 C123.155,9.280 318.587,9.280 318.587,9.280 C326.488,9.280 332.891,15.686 332.891,23.585 C332.891,23.585 332.891,23.873 332.891,23.873 C332.891,31.772 326.488,38.173 318.587,38.173 C318.587,38.173 123.094,38.173 123.094,38.173 C98.542,38.173 77.098,47.015 59.360,64.451 C41.635,81.875 32.644,103.101 32.644,127.537 C32.644,151.981 41.594,173.325 59.246,190.976 C76.894,208.636 98.233,217.588 122.671,217.588 ZM76.211,604.260 C76.211,604.260 16.898,604.260 16.898,604.260 C16.898,604.260 16.898,658.654 16.898,658.654 C16.898,658.654 70.818,658.654 70.818,658.654 C70.818,658.654 70.818,670.339 70.818,670.339 C70.818,670.339 16.898,670.339 16.898,670.339 C16.898,670.339 16.898,731.980 16.898,731.980 C16.898,731.980 77.289,731.980 77.289,731.980 C77.289,731.980 77.289,743.665 77.289,743.665 C77.289,743.665 2.878,743.665 2.878,743.665 C2.878,743.665 2.878,592.579 2.878,592.579 C2.878,592.579 76.211,592.579 76.211,592.579 C76.211,592.579 76.211,604.260 76.211,604.260 ZM146.092,735.608 C170.247,735.608 175.640,711.030 176.287,692.496 C176.287,692.496 190.306,692.496 190.306,692.496 C190.953,718.282 176.934,747.293 144.583,747.293 C97.779,747.293 97.779,695.921 97.779,663.892 C97.779,632.868 102.094,588.951 145.014,588.951 C174.131,588.951 188.797,610.507 189.012,636.089 C189.012,636.089 174.993,636.089 174.993,636.089 C173.699,618.161 166.366,600.636 144.583,600.636 C110.505,600.636 111.798,646.566 111.798,666.914 C111.798,690.080 110.505,735.608 146.092,735.608 ZM216.624,663.892 C216.624,632.868 221.152,588.951 264.074,588.951 C311.525,588.951 311.740,638.509 311.740,671.343 C311.740,704.181 309.151,747.293 263.643,747.293 C216.839,747.293 216.624,695.921 216.624,663.892 ZM297.721,668.321 C297.721,646.163 297.937,600.636 263.427,600.636 C230.859,600.636 230.643,645.155 230.643,666.914 C230.643,690.080 229.349,735.608 264.937,735.608 C299.015,735.608 297.721,689.678 297.721,668.321 ZM495.507,743.665 C495.507,743.665 495.507,592.579 495.507,592.579 C495.507,592.579 519.017,592.579 519.017,592.579 C519.017,592.579 557.408,724.326 557.408,724.326 C557.408,724.326 557.839,724.326 557.839,724.326 C557.839,724.326 597.094,592.579 597.094,592.579 C597.094,592.579 619.955,592.579 619.955,592.579 C619.955,592.579 619.955,743.665 619.955,743.665 C619.955,743.665 605.936,743.665 605.936,743.665 C605.936,743.665 605.936,605.671 605.936,605.671 C605.936,605.671 605.505,605.671 605.505,605.671 C605.505,605.671 565.388,743.665 565.388,743.665 C565.388,743.665 550.506,743.665 550.506,743.665 C550.506,743.665 509.957,605.671 509.957,605.671 C509.957,605.671 509.526,605.671 509.526,605.671 C509.526,605.671 509.526,743.665 509.526,743.665 C509.526,743.665 495.507,743.665 495.507,743.665 ZM724.350,731.980 C724.350,731.980 724.350,743.665 724.350,743.665 C724.350,743.665 649.939,743.665 649.939,743.665 C649.939,743.665 649.939,592.579 649.939,592.579 C649.939,592.579 723.271,592.579 723.271,592.579 C723.271,592.579 723.271,604.260 723.271,604.260 C723.271,604.260 663.958,604.260 663.958,604.260 C663.958,604.260 663.958,658.654 663.958,658.654 C663.958,658.654 717.879,658.654 717.879,658.654 C717.879,658.654 717.879,670.339 717.879,670.339 C717.879,670.339 663.958,670.339 663.958,670.339 C663.958,670.339 663.958,731.980 663.958,731.980 C663.958,731.980 724.350,731.980 724.350,731.980 ZM823.776,703.978 C824.208,711.230 823.129,737.825 831.110,741.851 C831.110,741.851 831.110,743.665 831.110,743.665 C831.110,743.665 815.797,743.665 815.797,743.665 C809.757,730.975 810.188,705.190 809.326,694.107 C807.817,673.962 791.641,672.551 773.307,672.551 C773.307,672.551 758.857,672.551 758.857,672.551 C758.857,672.551 758.857,743.665 758.857,743.665 C758.857,743.665 744.838,743.665 744.838,743.665 C744.838,743.665 744.838,592.579 744.838,592.579 C744.838,592.579 776.110,592.579 776.110,592.579 C805.660,592.579 825.935,600.636 825.935,631.257 C825.935,645.960 819.248,663.286 802.209,666.711 C802.209,666.711 802.209,667.113 802.209,667.113 C820.974,671.546 823.561,685.041 823.776,703.978 ZM811.916,632.262 C811.916,610.104 801.130,604.260 779.131,604.260 C779.131,604.260 758.857,604.260 758.857,604.260 C758.857,604.260 758.857,660.870 758.857,660.870 C758.857,660.870 783.446,660.870 783.446,660.870 C788.189,660.870 811.916,659.255 811.916,632.262 ZM1047.880,731.980 C1047.880,731.980 1047.880,743.665 1047.880,743.665 C1047.880,743.665 973.471,743.665 973.471,743.665 C973.471,743.665 973.471,592.579 973.471,592.579 C973.471,592.579 1046.802,592.579 1046.802,592.579 C1046.802,592.579 1046.802,604.260 1046.802,604.260 C1046.802,604.260 987.490,604.260 987.490,604.260 C987.490,604.260 987.490,658.654 987.490,658.654 C987.490,658.654 1041.411,658.654 1041.411,658.654 C1041.411,658.654 1041.411,670.339 1041.411,670.339 C1041.411,670.339 987.490,670.339 987.490,670.339 C987.490,670.339 987.490,731.980 987.490,731.980 C987.490,731.980 1047.880,731.980 1047.880,731.980 ZM1131.996,697.129 C1131.996,697.129 1118.839,743.665 1118.839,743.665 C1118.839,743.665 1105.251,743.665 1105.251,743.665 C1105.251,743.665 1148.603,592.579 1148.603,592.579 C1148.603,592.579 1164.782,592.579 1164.782,592.579 C1164.782,592.579 1208.134,743.665 1208.134,743.665 C1208.134,743.665 1193.899,743.665 1193.899,743.665 C1193.899,743.665 1181.173,697.129 1181.173,697.129 C1181.173,697.129 1131.996,697.129 1131.996,697.129 ZM1156.800,609.095 C1156.800,609.095 1156.369,609.095 1156.369,609.095 C1156.369,609.095 1135.015,685.444 1135.015,685.444 C1135.015,685.444 1178.151,685.444 1178.151,685.444 C1178.151,685.444 1156.800,609.095 1156.800,609.095 ZM1213.610,913.359 C1213.610,913.359 -0.000,913.359 -0.000,913.359 C-0.000,913.359 -0.000,905.664 -0.000,905.664 C-0.000,905.664 1213.610,905.664 1213.610,905.664 C1213.610,905.664 1213.610,913.359 1213.610,913.359 ZM1268.523,588.951 C1295.484,588.951 1312.306,609.498 1312.306,633.872 C1312.306,633.872 1298.934,633.872 1298.934,633.872 C1296.562,617.555 1289.878,600.636 1268.954,600.636 C1233.154,600.636 1234.447,647.371 1234.447,668.122 C1234.447,688.868 1234.879,735.608 1267.661,735.608 C1298.287,735.608 1299.796,701.965 1300.663,680.409 C1300.663,680.409 1265.936,680.409 1265.936,680.409 C1265.936,680.409 1265.936,668.724 1265.936,668.724 C1265.936,668.724 1314.682,668.724 1314.682,668.724 C1314.682,668.724 1314.682,743.665 1314.682,743.665 C1314.682,743.665 1303.466,743.665 1303.466,743.665 C1303.466,743.665 1302.172,728.153 1302.172,728.153 C1302.172,728.153 1301.741,728.153 1301.741,728.153 C1293.759,741.046 1282.758,747.293 1266.583,747.293 C1221.075,747.293 1220.428,695.722 1220.428,665.100 C1220.428,632.868 1222.800,588.951 1268.523,588.951 ZM1280.053,887.471 C1280.053,887.471 1280.362,887.471 1280.362,887.471 C1285.643,881.961 1291.696,878.918 1299.613,878.918 C1321.346,878.918 1323.518,905.456 1323.518,920.684 C1323.518,936.777 1321.809,963.027 1298.836,963.027 C1290.455,963.027 1284.398,960.127 1280.362,953.457 C1280.362,953.457 1280.053,953.457 1280.053,953.457 C1280.053,953.457 1280.053,960.997 1280.053,960.997 C1280.053,960.997 1271.050,960.997 1271.050,960.997 C1271.050,960.997 1271.050,852.234 1271.050,852.234 C1271.050,852.234 1280.053,852.234 1280.053,852.234 C1280.053,852.234 1280.053,887.471 1280.053,887.471 ZM1296.664,955.633 C1314.202,955.633 1314.515,932.719 1314.515,921.261 C1314.515,910.386 1314.361,886.312 1297.282,886.312 C1279.898,886.312 1280.053,908.791 1280.053,919.520 C1280.053,929.819 1279.121,955.633 1296.664,955.633 ZM1342.147,880.948 C1342.147,880.948 1359.844,945.770 1359.844,945.770 C1359.844,945.770 1360.153,945.770 1360.153,945.770 C1360.153,945.770 1378.782,880.948 1378.782,880.948 C1378.782,880.948 1387.940,880.948 1387.940,880.948 C1387.940,880.948 1364.657,959.981 1364.657,959.981 C1362.330,968.391 1359.380,981.736 1351.150,986.665 C1344.787,990.000 1338.420,988.259 1334.385,988.259 C1334.385,988.259 1334.385,980.865 1334.385,980.865 C1339.975,981.154 1346.960,981.736 1349.909,975.936 C1352.082,971.295 1353.636,966.219 1354.876,961.286 C1354.876,961.286 1332.680,880.948 1332.680,880.948 C1332.680,880.948 1342.147,880.948 1342.147,880.948 ZM1518.336,919.813 C1525.944,916.478 1534.170,914.156 1541.778,910.821 C1543.173,910.239 1543.950,908.645 1544.105,907.632 C1544.727,904.293 1544.414,897.623 1543.796,894.288 C1542.550,889.501 1539.446,886.312 1531.529,886.312 C1518.800,886.312 1518.959,893.999 1517.559,901.104 C1517.559,901.104 1508.865,901.104 1508.865,901.104 C1508.402,887.036 1516.782,878.918 1531.684,878.918 C1538.828,878.918 1545.345,880.366 1549.381,885.007 C1553.262,889.647 1553.572,895.012 1553.572,900.669 C1553.572,900.669 1553.572,949.829 1553.572,949.829 C1553.572,954.616 1554.503,955.340 1559.784,955.197 C1559.784,955.197 1559.784,961.286 1559.784,961.286 C1556.680,962.449 1553.108,962.303 1549.849,961.721 C1545.813,960.273 1545.968,958.244 1545.036,954.469 C1545.036,954.469 1544.882,954.469 1544.882,954.469 C1540.378,960.273 1533.393,963.027 1525.944,963.027 C1510.265,963.027 1506.538,953.022 1506.538,940.405 C1506.538,931.124 1509.333,924.161 1518.336,919.813 ZM1527.494,955.633 C1533.393,955.633 1537.583,953.310 1540.223,949.687 C1543.950,944.611 1544.568,937.794 1544.568,931.848 C1544.568,931.848 1544.568,917.780 1544.568,917.780 C1538.669,920.826 1532.616,922.856 1526.717,925.178 C1517.559,928.948 1515.541,932.283 1515.541,941.711 C1515.541,949.540 1518.181,955.633 1527.494,955.633 ZM1584.621,960.997 C1584.621,960.997 1575.617,960.997 1575.617,960.997 C1575.617,960.997 1575.617,852.234 1575.617,852.234 C1575.617,852.234 1584.621,852.234 1584.621,852.234 C1584.621,852.234 1584.621,960.997 1584.621,960.997 ZM1606.939,588.951 C1636.060,588.951 1650.726,610.507 1650.942,636.089 C1650.942,636.089 1636.923,636.089 1636.923,636.089 C1635.625,618.161 1628.294,600.636 1606.508,600.636 C1572.432,600.636 1573.726,646.566 1573.726,666.914 C1573.726,690.080 1572.432,735.608 1608.017,735.608 C1632.175,735.608 1637.569,711.030 1638.216,692.496 C1638.216,692.496 1652.235,692.496 1652.235,692.496 C1652.882,718.282 1638.863,747.293 1606.508,747.293 C1559.707,747.293 1559.707,695.921 1559.707,663.892 C1559.707,632.868 1564.019,588.951 1606.939,588.951 ZM1619.860,866.009 C1619.860,866.009 1609.458,866.009 1609.458,866.009 C1609.458,866.009 1609.458,852.234 1609.458,852.234 C1609.458,852.234 1619.860,852.234 1619.860,852.234 C1619.860,852.234 1619.860,866.009 1619.860,866.009 ZM1619.083,960.997 C1619.083,960.997 1610.080,960.997 1610.080,960.997 C1610.080,960.997 1610.080,880.948 1610.080,880.948 C1610.080,880.948 1619.083,880.948 1619.083,880.948 C1619.083,880.948 1619.083,960.997 1619.083,960.997 ZM1666.580,878.918 C1690.640,878.918 1693.281,903.134 1693.281,920.684 C1693.281,938.811 1690.795,963.027 1666.117,963.027 C1640.035,963.027 1639.416,937.648 1639.416,919.085 C1639.416,901.104 1642.984,878.918 1666.580,878.918 ZM1665.958,955.633 C1684.123,955.633 1684.278,932.865 1684.278,920.826 C1684.278,908.356 1683.968,886.312 1665.494,886.312 C1649.351,886.312 1648.419,908.210 1648.419,919.232 C1648.419,931.124 1647.488,955.633 1665.958,955.633 ZM1718.740,888.199 C1718.740,888.199 1719.049,888.199 1719.049,888.199 C1722.930,882.689 1728.829,878.918 1736.128,878.918 C1759.565,878.918 1761.896,901.828 1761.896,918.943 C1761.896,936.342 1761.896,963.027 1736.901,963.027 C1729.297,963.027 1723.553,960.416 1719.362,954.469 C1719.362,954.469 1719.049,954.469 1719.049,954.469 C1719.049,954.469 1719.049,988.552 1719.049,988.552 C1719.049,988.552 1709.737,988.552 1709.737,988.552 C1709.737,988.552 1709.737,880.948 1709.737,880.948 C1709.737,880.948 1718.740,880.948 1718.740,880.948 C1718.740,880.948 1718.740,888.199 1718.740,888.199 ZM1736.128,955.633 C1753.048,955.633 1752.893,932.283 1752.893,921.696 C1752.893,910.821 1752.893,886.312 1736.437,886.312 C1717.654,886.312 1718.740,908.356 1718.740,920.537 C1718.740,932.719 1717.808,955.633 1736.128,955.633 ZM1712.841,743.665 C1712.841,743.665 1712.841,679.404 1712.841,679.404 C1712.841,679.404 1670.136,592.579 1670.136,592.579 C1670.136,592.579 1685.665,592.579 1685.665,592.579 C1685.665,592.579 1719.745,664.494 1719.745,664.494 C1719.745,664.494 1755.330,592.579 1755.330,592.579 C1755.330,592.579 1770.000,592.579 1770.000,592.579 C1770.000,592.579 1726.860,679.404 1726.860,679.404 C1726.860,679.404 1726.860,743.665 1726.860,743.665 C1726.860,743.665 1712.841,743.665 1712.841,743.665 Z" id="path-1" class="cls-2" fill-rule="evenodd"/>
</svg>
