<svg xmlns="http://www.w3.org/2000/svg" viewBox="0 0 1069.02 300.43">
    <path fill="#333" d="M0 .7v89.92l89.92-89.92h-89.92zM0 210.51v89.92h89.92l-44.96-44.96-44.96-44.96zM156.11 144.31l143.62-143.61h-89.92l-149.86 149.86 44.95 44.96 104.91 104.91h89.92l-149.86-149.87 6.24-6.25zM380.28 119l15.9-22.62a59.73 59.73 0 0 0 43.21 18.55c16.1 0 23.64-7.13 23.64-15.08 0-23.64-78.26-7.13-78.26-58.29-.01-22.56 19.56-41.36 51.56-41.36 21.6 0 39.54 6.52 53 19l-16.1 21.6c-11-10.19-25.68-14.88-39.54-14.88-12.23 0-19.16 5.3-19.16 13.45 0 21.4 78.05 6.93 78.05 57.67 0 24.86-17.93 43.61-54.41 43.61-26.3-.03-45.05-8.8-57.89-21.65zM546.17 70.31c0-41 30-70.31 71.13-70.31 41 0 70.92 29.35 70.92 70.31s-30 70.31-70.92 70.31c-41.17 0-71.13-29.35-71.13-70.31zm112.29 0c0-25.47-16.1-44.63-41.17-44.63-25.27 0-41.37 19.16-41.37 44.63 0 25.27 16.1 44.63 41.37 44.63 25.07 0 41.17-19.36 41.17-44.63zM742.83 70.31c0-41 30-70.31 71.12-70.31 41 0 70.92 29.35 70.92 70.31s-30 70.31-70.92 70.31c-41.16 0-71.12-29.35-71.12-70.31zm112.29 0c0-25.47-16.1-44.63-41.17-44.63-25.27 0-41.37 19.16-41.37 44.63 0 25.27 16.1 44.63 41.37 44.63 25.05 0 41.17-19.36 41.17-44.63zM1039.76 138.17l-64.76-88.65v88.65h-29v-135.93h29.75l63 85.39v-85.39h28.94v135.93zM382.94 228.1v-41.45h28.4v6.35h-21.13v10.69h20.69v6.4h-20.69v11.56h21.13v6.4zM455.85 207.41c0-12.81 9.51-21.44 21.75-21.44a18.59 18.59 0 0 1 16.59 9.26l-6.19 3.23a12.25 12.25 0 0 0-10.44-6c-8.2 0-14.29 6.21-14.29 15s6.09 15 14.29 15a12.39 12.39 0 0 0 10.44-6l6.21 3.1c-3.17 5-8.33 9.39-16.65 9.39-12.21-.11-21.71-8.81-21.71-21.54zM537.08 207.41c0-12.37 8.76-21.44 21.19-21.44s21.19 9.07 21.19 21.44-8.82 21.44-21.19 21.44-21.19-9.08-21.19-21.44zm34.93 0c0-8.58-5.41-15-13.73-15s-13.73 6.4-13.73 15 5.34 15 13.73 15 13.72-6.49 13.72-15zM661.06 228.1v-32l-12.68 32h-3.11l-12.74-32v32h-7.27v-41.45h10.25l11.31 28.47 11.25-28.47h10.25v41.45zM751.8 228.1v-32l-12.68 32h-3.12l-12.74-32v32h-7.26v-41.45h10.26l11.31 28.47 11.25-28.47h10.26v41.45zM806.74 228.1v-41.45h28.4v6.35h-21.14v10.69h20.7v6.4h-20.7v11.56h21.13v6.4zM905.13 228.1l-9.13-15.47h-7.27v15.47h-7.27v-41.45h18.21c8.2 0 13.61 5.28 13.61 13 0 7.33-4.85 11.37-9.88 12.18l10.19 16.28zm.69-28.53c0-4-3-6.52-7.09-6.52h-10v13.17h10c4.1 0 7.08-2.61 7.08-6.65zM957.59 207.41c0-12.81 9.51-21.44 21.75-21.44a18.58 18.58 0 0 1 16.59 9.26l-6.15 3.23a12.26 12.26 0 0 0-10.44-6c-8.2 0-14.29 6.21-14.29 15s6.09 15 14.29 15a12.39 12.39 0 0 0 10.44-6l6.21 3.1c-3.17 5-8.33 9.39-16.65 9.39-12.25-.11-21.75-8.81-21.75-21.54zM1040.62 228.1v-41.45h28.38v6.35h-21.13v10.69h20.7v6.4h-20.7v11.56h21.13v6.4zM722.76 298.64v-25.71h11.45c4.47 0 7.21 2.7 7.21 6.55a5.84 5.84 0 0 1-4.51 5.89 6.42 6.42 0 0 1 5 6.32c0 4.12-2.74 6.94-7.44 6.94zm15.34-18.7c0-2.31-1.54-4.16-4.44-4.16h-7.66v8.29h7.71c2.85 0 4.4-1.77 4.4-4.13zm.5 11.41c0-2.35-1.62-4.43-4.74-4.43h-7.86v8.87h7.9c2.93 0 4.7-1.7 4.7-4.44zM773.63 298.64v-10.87l-10.14-14.84h3.74l8 11.95 8-11.95h3.74l-10.1 14.84v10.87zM856.39 298.64l-9.75-11.56-2.59 2.92v8.63h-3.2v-25.7h3.2v13.26l11.37-13.26h4l-10.72 12.18 11.68 13.53zM902.67 298.64l-2.27-5.74h-12.8l-2.27 5.74h-3.66l10.33-25.71h4l10.33 25.71zm-8.67-22.44l-5.44 13.88h10.91zM929.56 298.64v-25.71h3.2v22.86h12v2.85zM969.28 298.64v-25.71h3.2v25.71zM997.75 285.8c0-7.59 5.16-13.3 12.76-13.3s12.8 5.71 12.8 13.3-5.21 13.3-12.8 13.3-12.76-5.71-12.76-13.3zm22.24 0c0-6-3.74-10.45-9.48-10.45s-9.44 4.43-9.44 10.45 3.66 10.44 9.44 10.44 9.49-4.46 9.49-10.44zM1048.58 298.64v-25.71h10.33c5.17 0 8.06 3.54 8.06 7.75s-2.93 7.75-8.06 7.75h-7.13v10.21zm15.07-18a4.78 4.78 0 0 0-5.13-4.9h-6.75v9.79h6.75a4.78 4.78 0 0 0 5.13-4.85z"/>
</svg>
